<svg width="495" height="262" viewBox="0 0 495 262" fill="none" xmlns="http://www.w3.org/2000/svg">
<path d="M71.2903 183.988L72.8665 179.56L81.7337 184.682L71.2903 183.988Z" fill="#B06FD6"/>
<path d="M72.8574 179.502L1.04391 167.933L76.3942 170.047L81.792 184.673L72.8574 179.502Z" fill="#B06FD6"/>
<path d="M88.501 147.421L76.3851 169.988L1.04149 167.933L88.501 147.421Z" fill="#B06FD6"/>
<path d="M61.8166 211.22L1.05149 167.934L72.8574 179.501L61.8166 211.22Z" fill="#B06FD6"/>
<path d="M71.9827 177.16C95.7299 195.491 161.194 229.781 215.43 210.446C283.225 186.278 267.004 118.4 263.117 108.262C259.231 98.1249 234.569 48.0178 177.911 61.9884C121.254 75.959 124.25 131.717 126.606 143.809C128.962 155.901 154.537 254.996 329.35 231.063C469.201 211.917 480.364 69.7325 468.465 1.03366" stroke="#B06FD6" stroke-opacity="0.35" stroke-linecap="square" stroke-linejoin="round"/>
</svg>
