<svg width="18" height="19" viewBox="0 0 18 19" fill="none" xmlns="http://www.w3.org/2000/svg">
<path d="M16.0001 2.82569H15.0001V1.82568C15.0001 1.22568 14.6001 0.825684 14 0.825684C13.4 0.825684 13 1.22568 13 1.82568V2.82569H5.00004V1.82568C5.00004 1.32568 4.60004 0.825684 4.10004 0.825684H4.00004C3.50004 0.825684 3.00003 1.22568 3.00003 1.72568V1.82568V2.82569H2.00003C0.900032 2.82569 3.05176e-05 3.72569 3.05176e-05 4.82569V16.8257C3.05176e-05 17.9257 0.900032 18.8257 2.00003 18.8257H16.0001C17.1001 18.8257 18.0001 17.9257 18.0001 16.8257V4.82569C18.0001 3.72569 17.1001 2.82569 16.0001 2.82569ZM16.0001 16.8257H2.00003V8.82569H16.0001V16.8257ZM16.0001 6.82569H2.00003V4.82569H16.0001V6.82569Z" fill="#713693"/>
</svg>
