<svg width="226" height="210" viewBox="0 0 226 210" fill="none" xmlns="http://www.w3.org/2000/svg">
<g clip-path="url(#clip0_2308_98)">
<path d="M102.509 1.41394C165.087 -4.18894 165.188 31.2943 193.384 64.3538C221.581 97.4133 227.615 112.397 216.985 150.506C206.355 188.611 170.541 218.486 126.231 201.561C81.9205 184.636 56.5392 200.892 28.59 185.858C0.645874 170.824 -9.73165 141.785 10.7257 107.564C31.1831 73.3387 25.3511 8.31993 102.509 1.41394Z" fill="#B79FFF"/>
<path opacity="0.7" d="M102.509 1.41394C165.087 -4.18894 165.188 31.2943 193.384 64.3538C221.581 97.4133 227.615 112.397 216.985 150.506C206.355 188.611 170.541 218.486 126.231 201.561C81.9205 184.636 56.5392 200.892 28.59 185.858C0.645874 170.824 -9.73165 141.785 10.7257 107.564C31.1831 73.3387 25.3511 8.31993 102.509 1.41394Z" fill="white"/>
<path d="M116.716 3.74491L106.423 5.92309C105.035 6.21676 104.147 7.58554 104.439 8.98033L106.606 19.3255C106.899 20.7203 108.26 21.6129 109.648 21.3192L119.941 19.141C121.329 18.8474 122.217 17.4786 121.925 16.0838L119.758 5.73867C119.466 4.34387 118.104 3.45124 116.716 3.74491Z" stroke="#263238" stroke-linecap="round" stroke-linejoin="round"/>
<path d="M112.528 9.38965L113.84 15.6669" stroke="#263238" stroke-linecap="round" stroke-linejoin="round"/>
<path d="M116.307 11.864L110.061 13.1874" stroke="#263238" stroke-linecap="round" stroke-linejoin="round"/>
<path d="M220.476 114.354L210.183 116.532C208.795 116.826 207.907 118.194 208.199 119.589L210.366 129.934C210.658 131.329 212.02 132.222 213.408 131.928L223.701 129.75C225.089 129.456 225.977 128.087 225.685 126.693L223.518 116.348C223.225 114.953 221.863 114.06 220.476 114.354Z" stroke="#263238" stroke-linecap="round" stroke-linejoin="round"/>
<path d="M218.69 120.443L215.204 125.818" stroke="#263238" stroke-linecap="round" stroke-linejoin="round"/>
<path d="M219.618 124.88L214.27 121.376" stroke="#263238" stroke-linecap="round" stroke-linejoin="round"/>
<path d="M81.8392 181.126L71.3379 180.517C69.922 180.435 68.7081 181.522 68.6264 182.945L68.0209 193.499C67.9393 194.922 69.0209 196.143 70.4367 196.225L80.9381 196.833C82.3539 196.915 83.5679 195.828 83.6495 194.405L84.255 183.851C84.3367 182.428 83.2551 181.208 81.8392 181.126Z" stroke="#263238" stroke-linecap="round" stroke-linejoin="round"/>
<path d="M79.3172 188.864L72.9404 188.494" stroke="#263238" stroke-linecap="round" stroke-linejoin="round"/>
<path d="M18.7385 108.11L8.75346 104.785C7.40721 104.337 5.95429 105.07 5.50828 106.423L2.20023 116.459C1.75422 117.812 2.48401 119.272 3.83026 119.72L13.8153 123.045C15.1616 123.493 16.6145 122.76 17.0605 121.407L20.3686 111.371C20.8146 110.018 20.0848 108.558 18.7385 108.11Z" stroke="#263238" stroke-linecap="round" stroke-linejoin="round"/>
<path d="M15.2813 111.9L7.29507 115.931" stroke="#263238" stroke-linecap="round" stroke-linejoin="round"/>
<path d="M10.7004 110.241C10.9779 110.794 10.7559 111.469 10.206 111.747C9.65611 112.026 8.98513 111.803 8.70766 111.251C8.43018 110.698 8.65216 110.023 9.20206 109.745C9.75197 109.466 10.4229 109.689 10.7004 110.241Z" stroke="#263238" stroke-linecap="round" stroke-linejoin="round"/>
<path d="M13.8687 116.585C14.1461 117.137 13.9242 117.812 13.3743 118.091C12.8244 118.369 12.1534 118.146 11.8759 117.594C11.5984 117.041 11.8204 116.367 12.3703 116.088C12.9202 115.809 13.5912 116.032 13.8687 116.585Z" stroke="#263238" stroke-linecap="round" stroke-linejoin="round"/>
<path d="M117.366 178.612C114.45 182.856 108.659 183.916 104.436 180.985C102.807 179.849 101.651 178.287 101.006 176.553C99.9915 173.79 100.284 170.59 102.075 167.984C103.326 166.169 105.102 164.937 107.055 164.354C109.668 163.563 112.594 163.938 115.01 165.616C119.233 168.547 120.288 174.368 117.366 178.612Z" fill="#B79FFF"/>
<path opacity="0.3" d="M116.156 177.765C113.699 181.335 108.83 182.227 105.274 179.758C101.717 177.289 100.834 172.396 103.291 168.821C105.748 165.251 110.616 164.359 114.173 166.828C117.725 169.298 118.613 174.191 116.156 177.765Z" fill="black"/>
<path d="M116.156 177.765C113.699 181.335 108.83 182.227 105.274 179.758C101.717 177.289 100.834 172.396 103.291 168.821C105.748 165.251 110.616 164.359 114.173 166.828C117.725 169.298 118.613 174.191 116.156 177.765Z" stroke="#263238" stroke-linecap="round" stroke-linejoin="round"/>
<path d="M111.726 169.374L112.099 168.826L113.038 169.48L112.665 170.028C113.366 170.763 113.346 171.681 112.665 172.674L112.508 172.908L111.423 172.152L111.63 171.848C111.994 171.326 111.918 170.981 111.555 170.727C111.191 170.474 110.843 170.53 110.485 171.052C110.127 171.574 110.082 172.086 110.43 173.242C110.848 174.652 110.778 175.453 110.198 176.29C109.511 177.283 108.644 177.628 107.715 177.228L107.347 177.765L106.409 177.111L106.777 176.574C106.066 175.833 106.091 174.905 106.777 173.907L107.125 173.405L108.21 174.16L107.811 174.738C107.448 175.26 107.549 175.61 107.917 175.864C108.285 176.117 108.644 176.087 109.002 175.565C109.36 175.042 109.416 174.52 109.057 173.374C108.629 171.975 108.709 171.163 109.289 170.327C109.965 169.343 110.808 168.993 111.731 169.374H111.726Z" fill="#B79FFF" stroke="#263238" stroke-linecap="round" stroke-linejoin="round"/>
<path opacity="0.2" d="M107.13 165.728C107.13 170.332 104.673 174.358 101.006 176.553C99.9915 173.79 100.284 170.59 102.075 167.984C103.326 166.169 105.102 164.937 107.055 164.354C107.105 164.805 107.13 165.261 107.13 165.728Z" fill="black"/>
<path d="M117.366 178.612C114.45 182.856 108.659 183.916 104.436 180.985C102.807 179.849 101.651 178.287 101.006 176.553C99.9915 173.79 100.284 170.59 102.075 167.984C103.326 166.169 105.102 164.937 107.055 164.354C109.668 163.563 112.594 163.938 115.01 165.616C119.233 168.547 120.288 174.368 117.366 178.612Z" stroke="#263238" stroke-linecap="round" stroke-linejoin="round"/>
<path d="M96.45 174.784C101.585 174.784 105.748 170.6 105.748 165.439C105.748 160.278 101.585 156.094 96.45 156.094C91.3149 156.094 87.1521 160.278 87.1521 165.439C87.1521 170.6 91.3149 174.784 96.45 174.784Z" fill="#B79FFF" stroke="#263238" stroke-linecap="round" stroke-linejoin="round"/>
<path opacity="0.3" d="M96.45 173.298C100.769 173.298 104.27 169.779 104.27 165.439C104.27 161.098 100.769 157.579 96.45 157.579C92.1313 157.579 88.6302 161.098 88.6302 165.439C88.6302 169.779 92.1313 173.298 96.45 173.298Z" fill="black"/>
<path d="M96.45 173.298C100.769 173.298 104.27 169.779 104.27 165.439C104.27 161.098 100.769 157.579 96.45 157.579C92.1313 157.579 88.6302 161.098 88.6302 165.439C88.6302 169.779 92.1313 173.298 96.45 173.298Z" stroke="#263238" stroke-linecap="round" stroke-linejoin="round"/>
<path d="M95.8799 161.063V160.399H97.02V161.063C98.0089 161.266 98.5184 162.031 98.5184 163.243V163.522H97.1966V163.152C97.1966 162.513 96.9444 162.27 96.5004 162.27C96.0565 162.27 95.8042 162.513 95.8042 163.152C95.8042 163.791 96.0565 164.237 96.9948 164.987C98.135 165.905 98.5285 166.605 98.5285 167.624C98.5285 168.836 98.0089 169.612 97.02 169.815V170.464H95.8799V169.815C94.8759 169.612 94.3714 168.831 94.3714 167.624V167.011H95.6932V167.71C95.6932 168.349 95.9707 168.577 96.4146 168.577C96.8586 168.577 97.1361 168.349 97.1361 167.71C97.1361 167.071 96.8838 166.615 95.9455 165.875C94.8053 164.967 94.4118 164.257 94.4118 163.233C94.4118 162.036 94.9062 161.271 95.8849 161.053L95.8799 161.063Z" fill="#B79FFF" stroke="#263238" stroke-linecap="round" stroke-linejoin="round"/>
<path d="M148.629 173.28C151.4 168.935 150.14 163.155 145.817 160.371C141.493 157.586 135.742 158.852 132.972 163.197C130.201 167.543 131.461 173.323 135.784 176.107C140.108 178.891 145.859 177.626 148.629 173.28Z" fill="#B79FFF" stroke="#263238" stroke-linecap="round" stroke-linejoin="round"/>
<path opacity="0.3" d="M146.532 162.899C149.473 166.078 149.286 171.052 146.123 174.008C142.96 176.964 138.011 176.776 135.069 173.597C132.128 170.418 132.315 165.444 135.478 162.488C138.641 159.532 143.59 159.719 146.532 162.899Z" fill="black"/>
<path d="M146.532 162.899C149.473 166.078 149.286 171.052 146.123 174.008C142.96 176.964 138.011 176.776 135.069 173.597C132.128 170.418 132.315 165.444 135.478 162.488C138.641 159.532 143.59 159.719 146.532 162.899Z" stroke="#263238" stroke-linecap="round" stroke-linejoin="round"/>
<path d="M137.425 165.439L136.976 164.952L137.814 164.171L138.263 164.658C139.125 164.131 140.013 164.344 140.836 165.231L141.027 165.439L140.059 166.341L139.807 166.073C139.373 165.606 139.025 165.601 138.702 165.905C138.379 166.209 138.354 166.559 138.787 167.026C139.221 167.492 139.706 167.644 140.906 167.553C142.364 167.447 143.126 167.69 143.817 168.435C144.64 169.323 144.781 170.251 144.196 171.072L144.635 171.549L143.797 172.33L143.358 171.853C142.485 172.39 141.587 172.167 140.77 171.28L140.356 170.834L141.325 169.931L141.799 170.443C142.233 170.91 142.591 170.89 142.914 170.585C143.237 170.281 143.288 169.921 142.859 169.455C142.425 168.988 141.93 168.826 140.74 168.927C139.292 169.044 138.52 168.79 137.829 168.045C137.017 167.168 136.86 166.27 137.43 165.444L137.425 165.439Z" fill="#B79FFF" stroke="#263238" stroke-linecap="round" stroke-linejoin="round"/>
<path opacity="0.2" d="M136.976 127.633C136.976 127.633 136.936 147.023 136.976 148.153C137.017 149.284 138.475 156.094 138.475 156.094L133.793 164.769L137.824 168.035L145.669 160.282C145.669 160.282 152.348 164.43 153.569 170.362C154.79 176.295 162.06 180.615 169.602 197.043C177.144 213.471 185.746 160.282 185.746 160.282L162.474 130.833L136.971 127.623L136.976 127.633Z" fill="black"/>
<path d="M208.121 23.4653L200.992 93.377L196.608 136.385L135.342 130.077L123.42 128.85L115.787 128.064L122.553 61.6916L127.3 15.1447L208.121 23.4653Z" fill="white"/>
<path d="M184.646 26.0766L149.76 22.4817C149.104 22.4158 148.519 22.8924 148.454 23.5515C148.388 24.2107 148.862 24.7989 149.518 24.8648L184.404 28.4598C185.06 28.5257 185.645 28.0491 185.711 27.3899C185.776 26.7307 185.302 26.1426 184.646 26.0766V26.0766Z" fill="#263238"/>
<path d="M175.429 30.0722L157.984 28.2772C157.656 28.2418 157.363 28.4851 157.328 28.8096C157.292 29.1392 157.535 29.4333 157.857 29.4688L175.303 31.2638C175.631 31.2992 175.924 31.0559 175.959 30.7314C175.994 30.4018 175.752 30.1077 175.429 30.0722Z" fill="#263238"/>
<path d="M194.62 81.6745L137.995 75.8434C137.667 75.8079 137.375 76.0513 137.34 76.3758C137.304 76.7054 137.546 76.9995 137.869 77.035L194.494 82.866C194.822 82.9015 195.115 82.6581 195.15 82.3336C195.185 82.0091 194.943 81.7099 194.62 81.6745Z" fill="#263238"/>
<path d="M194.181 85.9591L128.339 79.1798C128.011 79.1443 127.719 79.3877 127.683 79.7122C127.648 80.0418 127.89 80.3359 128.213 80.3714L194.055 87.1506C194.383 87.1861 194.676 86.9427 194.711 86.6182C194.746 86.2886 194.504 85.9946 194.181 85.9591Z" fill="#263238"/>
<path d="M175.308 88.3421L127.905 83.4593C127.578 83.4238 127.285 83.6671 127.25 83.9917C127.214 84.3212 127.456 84.6153 127.779 84.6508L175.182 89.5337C175.51 89.5692 175.802 89.3258 175.838 89.0013C175.873 88.6768 175.631 88.3776 175.308 88.3421Z" fill="#263238"/>
<path d="M127.162 88.0884L125.236 106.984L191.613 113.819L193.539 94.9237L127.162 88.0884Z" fill="#BFBFBF" stroke="#263238" stroke-miterlimit="10"/>
<path d="M157.597 66.2225C163.867 60.9722 164.714 51.6075 159.491 45.3058C154.267 39.0042 144.949 38.1519 138.679 43.4023C132.409 48.6526 131.561 58.0173 136.785 64.3189C142.009 70.6205 151.327 71.4728 157.597 66.2225Z" fill="#B79FFF"/>
<path opacity="0.5" d="M157.597 66.2225C163.867 60.9722 164.714 51.6075 159.491 45.3058C154.267 39.0042 144.949 38.1519 138.679 43.4023C132.409 48.6526 131.561 58.0173 136.785 64.3189C142.009 70.6205 151.327 71.4728 157.597 66.2225Z" fill="white"/>
<path d="M157.597 66.2225C163.867 60.9722 164.714 51.6075 159.491 45.3058C154.267 39.0042 144.949 38.1519 138.679 43.4023C132.409 48.6526 131.561 58.0173 136.785 64.3189C142.009 70.6205 151.327 71.4728 157.597 66.2225Z" stroke="#263238" stroke-miterlimit="10"/>
<path d="M148.565 54.7705L160.854 60.9869C161.55 59.5419 162.009 57.9548 162.181 56.2663C162.569 52.4533 161.414 48.8381 159.23 46.0493L148.565 54.7756V54.7705Z" fill="white"/>
<path d="M148.65 54.1062L158.942 45.6893C157.424 43.8791 155.461 42.4441 153.196 41.572L151.339 46.6932L148.655 54.1062H148.65Z" fill="#B79FFF"/>
<path d="M149.811 40.7354L148.565 52.9755L152.757 41.4097C151.819 41.0852 150.835 40.857 149.816 40.7354H149.811Z" fill="#757575"/>
<path d="M147.924 54.664L149.347 40.6898C141.688 40.0255 134.883 45.6588 134.096 53.371C133.838 55.886 134.257 58.3097 135.19 60.4697L147.919 54.6589L147.924 54.664Z" fill="#999999"/>
<path d="M146.703 68.9324C152.616 69.5408 158.044 66.387 160.642 61.4027L148.136 55.0798L135.387 60.9007C137.435 65.2309 141.613 68.4101 146.703 68.9324Z" fill="#BFBFBF"/>
<path d="M171.852 45.1779L170.171 45.0047C169.996 44.9867 169.84 45.1144 169.823 45.2899L169.65 46.9797C169.632 47.1552 169.759 47.3121 169.934 47.33L171.615 47.5032C171.79 47.5212 171.946 47.3935 171.964 47.218L172.136 45.5282C172.154 45.3527 172.027 45.1958 171.852 45.1779Z" fill="#B79FFF" stroke="#263238" stroke-miterlimit="10"/>
<path d="M195.276 48.4475L173.557 46.2115C173.411 46.1962 173.305 46.0644 173.32 45.9174C173.335 45.7703 173.467 45.6638 173.613 45.6791L195.332 47.9151C195.478 47.9304 195.584 48.0622 195.569 48.2092C195.554 48.3563 195.422 48.4628 195.276 48.4475Z" fill="#263238"/>
<path d="M193.031 49.3906L173.436 47.3726C173.29 47.3574 173.184 47.2255 173.199 47.0785C173.214 46.9315 173.346 46.825 173.492 46.8402L193.087 48.8582C193.233 48.8735 193.339 49.0053 193.324 49.1523C193.309 49.2994 193.177 49.4059 193.031 49.3906V49.3906Z" fill="#263238"/>
<path d="M171.322 50.385L169.641 50.2119C169.466 50.1939 169.31 50.3216 169.292 50.4971L169.12 52.1869C169.102 52.3624 169.229 52.5192 169.404 52.5372L171.085 52.7103C171.26 52.7283 171.416 52.6006 171.433 52.4251L171.606 50.7353C171.624 50.5598 171.497 50.403 171.322 50.385Z" fill="#757575" stroke="#263238" stroke-linecap="round" stroke-linejoin="round"/>
<path d="M194.746 53.6549L173.028 51.4189C172.881 51.4036 172.775 51.2718 172.791 51.1248C172.806 50.9777 172.937 50.8712 173.083 50.8865L194.802 53.1225C194.948 53.1377 195.054 53.2696 195.039 53.4166C195.024 53.5637 194.893 53.6701 194.746 53.6549Z" fill="#263238"/>
<path d="M192.501 54.598L172.907 52.58C172.76 52.5648 172.654 52.4329 172.67 52.2859C172.685 52.1389 172.816 52.0324 172.962 52.0476L192.557 54.0656C192.703 54.0809 192.809 54.2127 192.794 54.3597C192.779 54.5068 192.648 54.6133 192.501 54.598Z" fill="#263238"/>
<path d="M170.792 55.5922L169.11 55.419C168.936 55.4011 168.78 55.5287 168.762 55.7042L168.589 57.394C168.572 57.5695 168.699 57.7264 168.873 57.7444L170.555 57.9175C170.729 57.9355 170.885 57.8078 170.903 57.6323L171.075 55.9425C171.093 55.767 170.966 55.6101 170.792 55.5922Z" fill="#999999" stroke="#263238" stroke-linecap="round" stroke-linejoin="round"/>
<path d="M194.212 58.8623L172.493 56.6263C172.347 56.611 172.241 56.4792 172.256 56.3322C172.271 56.1851 172.402 56.0786 172.548 56.0939L194.267 58.3299C194.413 58.3451 194.519 58.477 194.504 58.624C194.489 58.7711 194.358 58.8775 194.212 58.8623Z" fill="#263238"/>
<path d="M191.967 59.8106L172.372 57.7925C172.226 57.7773 172.12 57.6455 172.135 57.4984C172.15 57.3514 172.281 57.2449 172.427 57.2601L192.022 59.2782C192.168 59.2934 192.274 59.4252 192.259 59.5722C192.244 59.7193 192.113 59.8258 191.967 59.8106V59.8106Z" fill="#263238"/>
<path d="M170.261 60.8043L168.579 60.6312C168.405 60.6132 168.249 60.7409 168.231 60.9164L168.059 62.6062C168.041 62.7817 168.168 62.9385 168.342 62.9565L170.024 63.1296C170.198 63.1476 170.354 63.0199 170.372 62.8444L170.544 61.1547C170.562 60.9792 170.435 60.8223 170.261 60.8043Z" fill="#BFBFBF" stroke="#263238" stroke-miterlimit="10"/>
<path d="M193.682 64.0749L171.963 61.8388C171.817 61.8236 171.711 61.6917 171.726 61.5447C171.741 61.3976 171.872 61.2912 172.019 61.3064L193.737 63.5425C193.884 63.5577 193.99 63.6895 193.974 63.8365C193.959 63.9836 193.828 64.0901 193.682 64.0749Z" fill="#263238"/>
<path d="M191.437 65.018L171.842 62.9999C171.696 62.9847 171.59 62.8529 171.605 62.7058C171.62 62.5588 171.751 62.4523 171.898 62.4675L191.492 64.4856C191.639 64.5008 191.745 64.6326 191.729 64.7796C191.714 64.9267 191.583 65.0332 191.437 65.018Z" fill="#263238"/>
<path d="M169.725 66.0109L168.044 65.8377C167.869 65.8198 167.713 65.9474 167.695 66.1229L167.523 67.8127C167.505 67.9882 167.632 68.1451 167.807 68.1631L169.488 68.3362C169.663 68.3542 169.819 68.2265 169.837 68.051L170.009 66.3612C170.027 66.1857 169.9 66.0288 169.725 66.0109Z" fill="white" stroke="#263238" stroke-linecap="round" stroke-linejoin="round"/>
<path d="M193.152 69.2821L171.434 67.0461C171.287 67.0308 171.181 66.899 171.196 66.752C171.212 66.6049 171.343 66.4984 171.489 66.5137L193.208 68.7497C193.354 68.7649 193.46 68.8968 193.445 69.0438C193.43 69.1909 193.298 69.2973 193.152 69.2821Z" fill="#263238"/>
<path d="M190.907 70.2252L171.312 68.2072C171.166 68.192 171.06 68.0601 171.075 67.9131C171.09 67.7661 171.222 67.6596 171.368 67.6748L190.963 69.6928C191.109 69.7081 191.215 69.8399 191.2 69.9869C191.185 70.134 191.053 70.2404 190.907 70.2252Z" fill="#263238"/>
<path d="M183.49 107.446L184.729 107.574L185.456 100.447L184.216 100.319L183.49 107.446Z" fill="#757575" stroke="#263238" stroke-linecap="round" stroke-linejoin="round"/>
<path d="M183.597 106.363L184.837 106.491L185.179 103.137L183.939 103.009L183.597 106.363Z" fill="#B79FFF" stroke="#263238" stroke-miterlimit="10"/>
<path d="M186.465 105.927L187.704 106.054L188.431 98.9269L187.191 98.7993L186.465 105.927Z" fill="#757575" stroke="#263238" stroke-linecap="round" stroke-linejoin="round"/>
<path d="M186.988 100.689L186.646 104.043L187.886 104.171L188.228 100.817L186.988 100.689Z" fill="#B79FFF" stroke="#263238" stroke-miterlimit="10"/>
<path d="M189.119 107.58L190.358 107.708L191.085 100.58L189.845 100.453L189.119 107.58Z" fill="#757575" stroke="#263238" stroke-linecap="round" stroke-linejoin="round"/>
<path d="M189.387 104.905L190.626 105.033L190.968 101.679L189.729 101.551L189.387 104.905Z" fill="#B79FFF" stroke="#263238" stroke-miterlimit="10"/>
<path d="M180.842 105.746L182.082 105.874L182.808 98.7467L181.569 98.6191L180.842 105.746Z" fill="#757575" stroke="#263238" stroke-linecap="round" stroke-linejoin="round"/>
<path d="M180.95 104.668L182.19 104.796L182.532 101.442L181.292 101.314L180.95 104.668Z" fill="#B79FFF" stroke="#263238" stroke-miterlimit="10"/>
<path d="M177.838 107.56L179.078 107.687L179.804 100.56L178.564 100.432L177.838 107.56Z" fill="#757575" stroke="#263238" stroke-linecap="round" stroke-linejoin="round"/>
<path d="M177.917 106.765L179.157 106.893L179.499 103.539L178.259 103.411L177.917 106.765Z" fill="#B79FFF" stroke="#263238" stroke-miterlimit="10"/>
<path d="M175.232 105.437L176.472 105.565L177.198 98.4375L175.959 98.3099L175.232 105.437Z" fill="#757575" stroke="#263238" stroke-linecap="round" stroke-linejoin="round"/>
<path d="M175.255 105.173L176.494 105.301L176.836 101.947L175.597 101.819L175.255 105.173Z" fill="#B79FFF" stroke="#263238" stroke-miterlimit="10"/>
<path d="M172.058 108.883L173.298 109.011L174.024 101.884L172.785 101.756L172.058 108.883Z" fill="#757575" stroke="#263238" stroke-linecap="round" stroke-linejoin="round"/>
<path d="M172.081 108.614L173.32 108.742L173.662 105.387L172.423 105.26L172.081 108.614Z" fill="#B79FFF" stroke="#263238" stroke-miterlimit="10"/>
<path d="M169.726 104.093L170.965 104.22L171.692 97.0931L170.452 96.9654L169.726 104.093Z" fill="#757575" stroke="#263238" stroke-linecap="round" stroke-linejoin="round"/>
<path d="M169.838 103.02L171.078 103.148L171.42 99.7938L170.18 99.6661L169.838 103.02Z" fill="#B79FFF" stroke="#263238" stroke-miterlimit="10"/>
<path d="M166.971 103.397L168.211 103.525L168.937 96.3975L167.698 96.2699L166.971 103.397Z" fill="#757575" stroke="#263238" stroke-linecap="round" stroke-linejoin="round"/>
<path d="M167.249 100.712L168.489 100.84L168.831 97.4857L167.591 97.358L167.249 100.712Z" fill="#B79FFF" stroke="#263238" stroke-miterlimit="10"/>
<path d="M163.726 107.58L164.965 107.708L165.692 100.58L164.452 100.453L163.726 107.58Z" fill="#757575" stroke="#263238" stroke-linecap="round" stroke-linejoin="round"/>
<path d="M164.033 104.628L165.272 104.755L165.614 101.401L164.375 101.273L164.033 104.628Z" fill="#B79FFF" stroke="#263238" stroke-miterlimit="10"/>
<path d="M161.253 104.16L162.492 104.287L163.219 97.16L161.979 97.0323L161.253 104.16Z" fill="#757575" stroke="#263238" stroke-linecap="round" stroke-linejoin="round"/>
<path d="M161.389 102.819L162.628 102.947L162.97 99.5925L161.731 99.4648L161.389 102.819Z" fill="#B79FFF" stroke="#263238" stroke-miterlimit="10"/>
<path d="M158.268 105.736L159.508 105.863L160.235 98.7361L158.995 98.6085L158.268 105.736Z" fill="#757575" stroke="#263238" stroke-linecap="round" stroke-linejoin="round"/>
<path d="M158.386 104.658L159.626 104.786L159.968 101.432L158.728 101.304L158.386 104.658Z" fill="#B79FFF" stroke="#263238" stroke-miterlimit="10"/>
<path d="M155.152 108.651L156.392 108.779L157.118 101.652L155.879 101.524L155.152 108.651Z" fill="#757575" stroke="#263238" stroke-linecap="round" stroke-linejoin="round"/>
<path d="M155.156 108.645L156.396 108.773L156.738 105.418L155.498 105.291L155.156 108.645Z" fill="#B79FFF" stroke="#263238" stroke-miterlimit="10"/>
<path d="M152.822 103.845L154.061 103.973L154.788 96.8455L153.548 96.7179L152.822 103.845Z" fill="#757575" stroke="#263238" stroke-linecap="round" stroke-linejoin="round"/>
<path d="M152.906 103.04L154.146 103.168L154.488 99.8138L153.248 99.6861L152.906 103.04Z" fill="#B79FFF" stroke="#263238" stroke-miterlimit="10"/>
<path d="M150.348 100.43L151.588 100.558L152.315 93.4307L151.075 93.3031L150.348 100.43Z" fill="#757575" stroke="#263238" stroke-linecap="round" stroke-linejoin="round"/>
<path d="M150.433 99.615L151.672 99.7427L152.014 96.3884L150.775 96.2607L150.433 99.615Z" fill="#B79FFF" stroke="#263238" stroke-miterlimit="10"/>
<path d="M147.174 103.907L148.413 104.035L149.14 96.9075L147.9 96.7799L147.174 103.907Z" fill="#757575" stroke="#263238" stroke-linecap="round" stroke-linejoin="round"/>
<path d="M147.442 101.227L148.682 101.355L149.024 98.0008L147.784 97.8731L147.442 101.227Z" fill="#B79FFF" stroke="#263238" stroke-miterlimit="10"/>
<path d="M143.97 107.647L145.209 107.775L145.936 100.647L144.696 100.52L143.97 107.647Z" fill="#757575" stroke="#263238" stroke-linecap="round" stroke-linejoin="round"/>
<path d="M144.3 104.431L145.539 104.559L145.881 101.205L144.641 101.077L144.3 104.431Z" fill="#B79FFF" stroke="#263238" stroke-miterlimit="10"/>
<path d="M141.593 103.33L142.832 103.458L143.559 96.3306L142.319 96.203L141.593 103.33Z" fill="#757575" stroke="#263238" stroke-linecap="round" stroke-linejoin="round"/>
<path d="M141.695 102.262L142.935 102.39L143.277 99.0358L142.037 98.9082L141.695 102.262Z" fill="#B79FFF" stroke="#263238" stroke-miterlimit="10"/>
<path d="M138.912 101.862L140.151 101.99L140.878 94.8622L139.638 94.7346L138.912 101.862Z" fill="#757575" stroke="#263238" stroke-linecap="round" stroke-linejoin="round"/>
<path d="M139.224 98.9043L140.463 99.032L140.805 95.6777L139.566 95.55L139.224 98.9043Z" fill="#B79FFF" stroke="#263238" stroke-miterlimit="10"/>
<path d="M135.899 103.799L137.139 103.927L137.865 96.7994L136.625 96.6717L135.899 103.799Z" fill="#757575" stroke="#263238" stroke-linecap="round" stroke-linejoin="round"/>
<path d="M135.903 103.793L137.143 103.92L137.485 100.566L136.245 100.438L135.903 103.793Z" fill="#B79FFF" stroke="#263238" stroke-miterlimit="10"/>
<path d="M133.336 101.28L134.575 101.408L135.302 94.2804L134.062 94.1528L133.336 101.28Z" fill="#757575" stroke="#263238" stroke-linecap="round" stroke-linejoin="round"/>
<path d="M133.391 100.749L134.631 100.876L134.973 97.522L133.733 97.3944L133.391 100.749Z" fill="#B79FFF" stroke="#263238" stroke-miterlimit="10"/>
<path d="M130.448 101.955L131.687 102.083L132.414 94.9553L131.174 94.8276L130.448 101.955Z" fill="#757575" stroke="#263238" stroke-linecap="round" stroke-linejoin="round"/>
<path d="M130.475 101.686L131.715 101.814L132.057 98.4594L130.817 98.3318L130.475 101.686Z" fill="#B79FFF" stroke="#263238" stroke-miterlimit="10"/>
<path d="M127.748 100.755L128.988 100.882L129.715 93.755L128.475 93.6274L127.748 100.755Z" fill="#757575" stroke="#263238" stroke-linecap="round" stroke-linejoin="round"/>
<path d="M128.107 97.2664L129.347 97.394L129.689 94.0397L128.449 93.9121L128.107 97.2664Z" fill="#B79FFF" stroke="#263238" stroke-miterlimit="10"/>
<path d="M191.099 116.184L134.474 110.353C134.146 110.318 133.853 110.561 133.818 110.885C133.783 111.215 134.025 111.509 134.348 111.545L190.973 117.376C191.301 117.411 191.593 117.168 191.629 116.843C191.664 116.519 191.422 116.22 191.099 116.184Z" fill="#263238"/>
<path d="M190.665 120.469L124.823 113.689C124.495 113.654 124.202 113.897 124.167 114.222C124.132 114.551 124.374 114.846 124.697 114.881L190.539 121.66C190.867 121.696 191.159 121.452 191.195 121.128C191.23 120.798 190.988 120.504 190.665 120.469Z" fill="#263238"/>
<path d="M162.569 121.909L124.384 117.974C124.056 117.939 123.764 118.182 123.728 118.506C123.693 118.836 123.935 119.13 124.258 119.166L162.443 123.1C162.771 123.136 163.064 122.892 163.099 122.568C163.135 122.243 162.892 121.944 162.569 121.909Z" fill="#263238"/>
<path opacity="0.2" d="M197.345 83.6417C195.392 83.4846 194.716 86.613 194.716 86.613C194.716 86.613 191.629 82.5465 192.118 72.9836C192.118 72.9836 190.609 68.7447 186.568 71.3053C182.532 73.8659 178.34 82.8913 179.339 92.723L171.484 66.5137C168.77 67.0917 163.256 70.7577 164.709 88.4587L156.137 79.3521C156.137 79.3521 153.816 78.6017 152.505 80.6654C151.193 82.7341 151.819 97.5095 152.903 103.036C153.993 108.568 151.223 119.667 151.223 119.667C151.223 119.667 148.267 107.093 142.919 103.908L122.553 61.6917L115.787 128.064L123.42 128.85L135.68 122.852C135.609 125.625 135.544 128.176 135.342 130.077L196.608 136.385L200.992 93.3771C199.504 88.0176 198.081 83.6975 197.345 83.6417V83.6417Z" fill="black"/>
<path d="M208.121 23.4653L200.992 93.377L196.608 136.385L135.342 130.077L123.42 128.85L115.787 128.064L122.553 61.6916L127.3 15.1447L208.121 23.4653Z" stroke="#263238" stroke-linecap="round" stroke-linejoin="round"/>
<path d="M207.112 203.447L171.292 209.572C171.292 209.572 165.057 176.284 161.339 171.041C157.62 165.794 158.301 163.639 156.495 160.104C155.406 157.97 149.942 153.989 145.654 150.06H145.649C145.275 149.72 144.912 149.38 144.564 149.041C144.413 148.904 144.271 148.757 144.13 148.62C143.56 148.052 143.03 147.499 142.561 146.957C142.39 146.764 142.228 146.571 142.077 146.379C141.184 145.268 140.553 144.229 140.341 143.291C140.326 143.24 140.316 143.189 140.311 143.134C140.296 143.068 140.286 143.007 140.281 142.946C140.185 142.16 140.084 141.263 139.983 140.289C139.963 140.096 139.943 139.894 139.918 139.691C139.907 139.61 139.897 139.534 139.887 139.447C139.801 138.636 139.706 137.774 139.595 136.887C139.484 135.959 139.363 134.995 139.221 134.027C139.176 133.692 139.131 133.358 139.075 133.018C139.075 133.013 139.075 133.008 139.07 133.008C139.014 132.633 138.954 132.257 138.893 131.877L138.727 130.904C138.717 130.848 138.702 130.797 138.697 130.751C138.626 130.371 138.555 130.001 138.485 129.626C138.47 129.585 138.465 129.545 138.46 129.499C138.389 129.169 138.323 128.845 138.248 128.515C138.091 127.78 137.915 127.06 137.723 126.36C137.345 124.966 136.901 123.663 136.386 122.507C133.803 116.711 137.163 118.805 135.14 103.893C135.14 103.893 136.628 100.435 140.871 103.198C141.199 103.411 141.512 103.645 141.819 103.893H141.825C142.677 104.583 143.434 105.399 144.08 106.317C144.922 107.508 145.578 108.872 146.027 110.353C146.698 112.559 146.915 115.028 146.602 117.604C146.602 117.604 149.791 128.586 151.471 131.086C153.156 133.586 160.097 119.226 159.648 117.553C159.558 117.218 159.432 116.402 159.29 115.281C159.26 115.033 159.23 114.769 159.194 114.49C159.164 114.212 159.129 113.923 159.099 113.623C159.078 113.481 159.063 113.329 159.043 113.182C159.038 113.121 159.033 113.061 159.023 113.005C158.962 112.432 158.892 111.823 158.826 111.195C158.811 111.017 158.791 110.85 158.771 110.677C158.74 110.378 158.71 110.069 158.68 109.765C158.67 109.719 158.67 109.668 158.665 109.613C158.644 109.44 158.624 109.263 158.609 109.08C158.569 108.725 158.534 108.365 158.498 108.005C158.463 107.696 158.438 107.387 158.407 107.077C158.347 106.494 158.291 105.911 158.236 105.348C158.195 104.928 158.155 104.512 158.12 104.106C158.11 104.015 158.1 103.924 158.095 103.837C157.883 101.606 157.716 99.7709 157.656 98.99C157.656 98.99 152.606 91.4756 152.086 87.9364C151.566 84.3921 151.612 80.6704 153.726 79.1543C158.73 75.5745 157.267 81.3447 159.507 83.7329C161.747 86.1313 165.183 90.0355 167.13 91.2575C168.926 92.4035 170.53 96.8553 170.757 97.5044C170.5 96.5308 167.932 86.9578 167.877 85.031C167.811 82.9977 166.267 72.2737 168.891 68.4252C171.509 64.5818 175 67.5632 175.323 68.3238C175.646 69.0843 175.742 79.4737 176.665 82.369C177.593 85.2592 181.453 97.3117 181.453 97.3117C181.453 97.3117 181.614 85.5887 182.487 80.3408C183.355 75.0979 185.625 70.9908 187.845 70.7576C190.065 70.5243 192.118 72.9835 192.118 72.9835C192.118 72.9835 191.24 81.3498 191.492 83.2817C191.74 85.2084 191.129 92.1905 192.184 95.9426C192.184 95.9426 192.062 85.9487 193.606 84.671C195.155 83.3932 196.477 82.7797 197.345 83.6417C198.207 84.5037 198.399 90.4209 199.282 93.9804C200.17 97.5449 200.054 102.377 200.634 107.929C201.214 113.481 203.499 121.189 203.045 125.595C202.591 129.991 201.194 140.928 200.069 147.342C198.944 153.761 196.073 162.543 196.073 162.543C196.073 162.543 197.38 167.234 197.128 171.417C196.87 175.6 207.112 203.447 207.112 203.447V203.447Z" fill="white"/>
<path opacity="0.4" d="M176.67 82.3639C177.356 84.5036 179.647 91.6631 180.792 95.2378C180.792 95.2378 175.782 98.9392 175.908 102.372C176.04 105.805 174.99 112.746 172.745 112.548C170.5 112.356 170.702 97.915 169.965 95.4913C170.419 96.5308 170.717 97.3826 170.778 97.5499C170.611 96.9263 167.937 86.9932 167.882 85.0259C167.867 84.5644 167.776 83.6416 167.67 82.4501V82.4247C167.67 82.4247 172.649 77.6382 176.302 80.5689C176.413 81.3041 176.529 81.9177 176.67 82.3588V82.3639Z" fill="#B79FFF"/>
<path opacity="0.4" d="M191.543 86.4913C189.212 88.7121 185.696 92.6418 185.252 96.4294C185.252 96.4294 186.553 107.001 185.998 111.615L181.453 97.3117C181.453 97.3117 181.614 85.5887 182.487 80.3408C182.507 80.1988 182.538 80.0518 182.563 79.9047C184.793 78.7588 187.85 77.7346 191.689 77.6636C191.513 79.925 191.371 82.3487 191.492 83.2766C191.568 83.9053 191.563 85.0715 191.548 86.4913H191.543Z" fill="#B79FFF"/>
<path opacity="0.4" d="M193.606 84.671L193.591 84.6862C193.536 84.7268 193.399 84.8333 193.203 85.0006C193.329 84.7673 193.46 84.5442 193.601 84.3414L193.611 84.671H193.606Z" fill="#B79FFF"/>
<path opacity="0.4" d="M194.792 113.912C194.792 113.912 191.795 102.615 191.745 93.5189C191.724 90.1521 192.108 87.0845 193.193 85.0106C193.319 84.7723 193.45 84.5492 193.591 84.3464L193.601 84.676C194.242 84.1487 194.837 83.7329 195.387 83.4895C194.545 84.8078 193.576 87.3887 194.696 91.582C196.452 98.1533 194.923 106.175 194.787 113.917L194.792 113.912Z" fill="#B79FFF"/>
<path opacity="0.4" d="M153.458 135.442C153.458 135.442 154.265 146.206 145.654 150.065C145.28 149.725 144.922 149.385 144.569 149.046C144.418 148.904 144.276 148.762 144.135 148.625C143.565 148.057 143.035 147.504 142.566 146.962C142.395 146.764 142.233 146.571 142.082 146.384C141.189 145.273 140.558 144.234 140.346 143.296C140.331 143.245 140.321 143.189 140.316 143.139C140.301 143.073 140.291 143.012 140.286 142.951C140.19 142.165 140.089 141.268 139.988 140.294C139.968 140.101 139.948 139.899 139.923 139.696C139.912 139.615 139.902 139.539 139.897 139.452C139.807 138.641 139.711 137.779 139.605 136.892C139.494 135.964 139.373 135 139.231 134.032C139.181 133.697 139.136 133.358 139.085 133.023V133.013C139.03 132.638 138.969 132.257 138.909 131.882C138.853 131.558 138.798 131.233 138.742 130.904C138.732 130.853 138.722 130.802 138.712 130.751C138.641 130.376 138.571 130.001 138.495 129.626C138.485 129.585 138.475 129.54 138.47 129.499C138.404 129.169 138.333 128.84 138.263 128.515C138.096 127.78 137.925 127.06 137.733 126.36C141.138 123.065 148.998 125.133 145.195 117.502C145.195 117.502 147.112 110.972 141.83 103.888C145.442 106.819 147.293 111.96 146.607 117.604C146.607 117.604 149.796 128.581 151.476 131.086C153.161 133.586 160.102 119.226 159.648 117.553C159.563 117.223 159.437 116.402 159.295 115.281C159.265 115.033 159.235 114.769 159.199 114.49C159.164 114.212 159.134 113.923 159.099 113.623C159.078 113.481 159.063 113.334 159.048 113.187C159.043 113.126 159.038 113.066 159.028 113.01C158.967 112.432 158.902 111.828 158.831 111.195C158.816 111.022 158.796 110.85 158.776 110.677C158.745 110.378 158.715 110.074 158.685 109.765C158.68 109.719 158.675 109.668 158.67 109.613C158.655 109.44 158.629 109.263 158.614 109.075C158.574 108.72 158.544 108.36 158.503 108C158.473 107.691 158.443 107.382 158.412 107.072C158.357 106.489 158.296 105.906 158.246 105.343C158.206 104.922 158.165 104.502 158.125 104.106C158.115 104.015 158.11 103.924 158.1 103.832C158.241 104.497 160.799 116.737 162.257 119.586C163.755 122.522 157.393 137.972 153.463 135.437L153.458 135.442Z" fill="#B79FFF"/>
<path opacity="0.4" d="M200.069 147.342C198.944 153.761 196.078 162.543 196.078 162.543C196.078 162.543 197.385 167.234 197.128 171.417C197.057 172.542 197.753 175.382 198.792 178.931C198.49 178.15 195.276 169.774 195.327 166.853C195.387 163.786 194.519 162.939 192.819 159.172C191.124 155.399 188.526 155.82 188.526 155.82C188.526 155.82 187.527 165.221 185.176 159.045C182.83 152.864 182.376 145.684 188.294 120.737C188.294 120.737 189.187 123.866 188.44 133.16C187.688 142.459 189.903 145.268 189.903 145.268C189.903 145.268 194.686 137.353 197.768 126.832C197.768 126.832 197.007 137.678 196.32 142.621C195.639 147.56 198.747 136.897 200.916 130.305C202.955 124.124 203.03 121.772 202.253 117.37C202.828 120.474 203.262 123.43 203.04 125.59C202.586 129.991 201.184 140.923 200.059 147.337L200.069 147.342Z" fill="#B79FFF"/>
<path opacity="0.4" d="M159.593 168.248C161.339 171.036 165.612 174.723 168.159 184.919C170.707 195.116 169.103 206.276 169.103 206.276L159.593 168.243V168.248Z" fill="#B79FFF"/>
<path opacity="0.2" d="M146.027 110.353C146.027 110.353 137.092 114.901 136.386 122.507C133.803 116.711 137.163 118.805 135.14 103.893C135.14 103.893 136.628 100.435 140.871 103.198C141.199 103.411 141.512 103.645 141.819 103.893H141.825C142.677 104.583 143.434 105.399 144.08 106.317L146.027 110.353Z" fill="black"/>
<path d="M171.292 209.572C171.292 209.572 165.062 176.284 161.339 171.041C157.62 165.799 158.301 163.639 156.495 160.104C154.689 156.57 140.891 147.971 140.281 142.946C139.67 137.926 138.969 128.302 136.386 122.507C133.803 116.706 137.163 118.805 135.135 103.893C135.135 103.893 136.633 100.44 140.871 103.198C145.109 105.962 147.344 111.489 146.602 117.609C146.602 117.609 149.791 128.586 151.471 131.086C153.156 133.591 160.092 119.226 159.643 117.548C159.194 115.87 157.863 101.591 157.656 98.99C157.656 98.99 152.606 91.4704 152.086 87.9363C151.566 84.3971 151.612 80.6703 153.726 79.1593C158.73 75.5796 157.267 81.3498 159.507 83.743C161.747 86.1363 165.183 90.0406 167.13 91.2676C169.078 92.4947 170.783 97.5905 170.783 97.5905C170.783 97.5905 167.937 87.0743 167.877 85.0411C167.816 83.0078 166.267 72.2838 168.891 68.4403C171.514 64.5969 175.005 67.5783 175.323 68.3339C175.641 69.0894 175.747 79.4838 176.67 82.374C177.593 85.2692 181.453 97.3218 181.453 97.3218C181.453 97.3218 181.619 85.5988 182.487 80.3509C183.36 75.1029 185.63 70.9959 187.845 70.7677C190.065 70.5344 192.118 72.9936 192.118 72.9936C192.118 72.9936 191.24 81.3599 191.487 83.2918C191.735 85.2236 191.129 92.2006 192.184 95.9527C192.184 95.9527 192.057 85.9588 193.606 84.6811C195.155 83.4033 196.477 82.7898 197.339 83.6518C198.207 84.5137 198.394 90.431 199.282 93.9905C200.165 97.5499 200.054 102.387 200.634 107.939C201.214 113.492 203.499 121.199 203.045 125.6C202.591 130.001 201.189 140.933 200.064 147.352C198.939 153.771 196.073 162.553 196.073 162.553C196.073 162.553 197.38 167.244 197.123 171.427C196.865 175.61 207.107 203.457 207.107 203.457" stroke="#263238" stroke-linecap="round" stroke-linejoin="round"/>
<path d="M181.448 97.3116C182.492 99.7759 185.07 110.181 185.993 111.621C186.917 113.061 187.961 113.497 187.961 113.497" stroke="#263238" stroke-linecap="round" stroke-linejoin="round"/>
<path d="M192.184 95.9426C192.184 95.9426 191.962 98.0722 193.107 104.872C194.252 111.671 194.812 114.561 195.453 116.077" stroke="#263238" stroke-linecap="round" stroke-linejoin="round"/>
<path d="M170.783 97.5803C172.185 101.723 172.972 108.325 173.769 110.312C174.566 112.3 175.278 112.711 175.278 112.711" stroke="#263238" stroke-linecap="round" stroke-linejoin="round"/>
<path d="M173.048 107.519C173.048 107.519 174.516 108.614 174.985 109.978" stroke="#263238" stroke-linecap="round" stroke-linejoin="round"/>
<path d="M151.476 131.086C151.476 131.086 152.242 136.577 155.668 136.141" stroke="#263238" stroke-linecap="round" stroke-linejoin="round"/>
<path d="M159.648 117.548C159.648 117.548 160.536 124.074 159.078 126.847" stroke="#263238" stroke-linecap="round" stroke-linejoin="round"/>
<path d="M187.007 117.609C187.007 117.609 189.308 119.023 187.769 123.176C186.23 127.329 183.557 144.082 183.557 144.082" stroke="#263238" stroke-linecap="round" stroke-linejoin="round"/>
<path d="M197.022 121.99C197.985 125.742 198.071 125.838 196.507 130.447C194.938 135.056 192.416 146.343 192.416 146.343" stroke="#263238" stroke-linecap="round" stroke-linejoin="round"/>
<path d="M196.078 162.543C196.078 162.543 194.575 159.491 195.816 156.981" stroke="#263238" stroke-linecap="round" stroke-linejoin="round"/>
<path d="M161.339 171.042C161.339 171.042 165.142 176.411 166.797 182.42" stroke="#263238" stroke-linecap="round" stroke-linejoin="round"/>
<path d="M189.328 76.9183L190.357 75.894L190.821 75.7622L190.791 76.2693L189.848 77.4811L189.328 76.9183Z" fill="#757575" stroke="#263238" stroke-linecap="round" stroke-linejoin="round"/>
<path d="M190.16 77.4812L188.491 81.2992L143.489 141.602L138.475 138.393L145.28 129.814L185.701 78.8553L189.268 76.5786C189.268 76.5786 190.029 76.7764 190.166 77.4812H190.16Z" fill="#B79FFF"/>
<path opacity="0.3" d="M190.16 77.4812L188.491 81.2992L143.489 141.602L138.475 138.393L145.28 129.814C148.408 129.489 148.928 131.345 148.928 131.345L187.699 80.488C187.32 79.1189 185.701 78.8553 185.701 78.8553L189.268 76.5786C189.268 76.5786 190.029 76.7764 190.166 77.4812H190.16Z" fill="black"/>
<path d="M190.16 77.4812L188.491 81.2992L143.489 141.602L138.475 138.393L145.28 129.814L185.701 78.8553L189.268 76.5786C189.268 76.5786 190.029 76.7764 190.166 77.4812H190.16Z" stroke="#263238" stroke-linecap="round" stroke-linejoin="round"/>
<path d="M158.165 123.749C158.165 123.749 153.145 133.768 148.312 140.857L144.862 141.754C144.862 141.754 136.941 149.664 132.108 153.614C132.108 153.614 130.867 152.889 129.747 151.622C129.747 151.622 136.608 138.378 144.201 129.996C144.201 129.996 145.306 130.336 146.693 131.325C147.515 131.913 148.444 132.724 149.291 133.829L157.752 123.131L158.17 123.749H158.165Z" fill="#B79FFF"/>
<path opacity="0.3" d="M158.165 123.749C158.165 123.749 153.145 133.768 148.312 140.857L144.862 141.754C144.862 141.754 136.941 149.664 132.108 153.614L132.239 151.464C137.481 143.418 144.14 134.641 146.688 131.325C147.51 131.913 148.439 132.724 149.286 133.829L144.584 140.137L147.278 139.65L157.746 123.131L158.165 123.749V123.749Z" fill="black"/>
<path d="M158.165 123.749C158.165 123.749 153.145 133.768 148.312 140.857L144.862 141.754C144.862 141.754 136.941 149.664 132.108 153.614C132.108 153.614 130.867 152.889 129.747 151.622C129.747 151.622 136.608 138.378 144.201 129.996C144.201 129.996 145.306 130.336 146.693 131.325C147.515 131.913 148.444 132.724 149.291 133.829L157.752 123.131L158.17 123.749H158.165Z" stroke="#263238" stroke-linecap="round" stroke-linejoin="round"/>
<path d="M175.278 112.711L161.222 126.411L158.977 128.602C160.516 124.626 159.77 118.486 159.674 117.736V117.725C159.669 117.685 159.664 117.659 159.664 117.659C159.664 117.624 159.664 117.578 159.653 117.553C159.568 117.223 159.442 116.402 159.3 115.281C159.27 115.033 159.24 114.769 159.204 114.49C159.169 114.212 159.139 113.923 159.104 113.623C159.083 113.481 159.068 113.334 159.053 113.187C159.048 113.126 159.043 113.066 159.033 113.01C158.972 112.437 158.902 111.828 158.836 111.195C158.821 111.022 158.801 110.85 158.781 110.677C158.75 110.378 158.72 110.074 158.69 109.765C158.685 109.719 158.68 109.668 158.675 109.613C158.66 109.44 158.634 109.263 158.619 109.075C158.579 108.72 158.549 108.36 158.508 108C158.478 107.691 158.448 107.382 158.417 107.072C158.362 106.489 158.301 105.906 158.251 105.343C158.206 104.922 158.165 104.507 158.13 104.106C158.12 104.015 158.115 103.924 158.105 103.832C157.893 101.601 157.726 99.7708 157.666 98.9849C157.666 98.9849 152.621 91.4705 152.096 87.9313C151.576 84.3921 151.622 80.6653 153.736 79.1543C158.74 75.5695 157.272 81.3397 159.512 83.7329C161.752 86.1313 165.193 90.0305 167.135 91.2575C169.078 92.4896 170.788 97.5804 170.788 97.5804C172.185 101.723 172.977 108.32 173.774 110.312C174.572 112.3 175.283 112.711 175.283 112.711H175.278Z" fill="white"/>
<path d="M173.048 107.519C173.048 107.519 174.516 108.614 174.985 109.978" stroke="#263238" stroke-linecap="round" stroke-linejoin="round"/>
<path opacity="0.4" d="M159.507 83.7331C161.737 86.1264 165.163 90.0053 167.11 91.2476C166.838 91.1106 163.251 89.3512 161.248 91.3084C159.164 93.3467 157.656 98.9902 157.656 98.9902C157.656 98.9902 152.611 91.4757 152.086 87.9365C151.566 84.3973 151.612 80.6705 153.726 79.1595C158.73 75.5747 157.262 81.3449 159.502 83.7382L159.507 83.7331Z" fill="#B79FFF"/>
<path opacity="0.4" d="M161.217 126.411L158.972 128.602C160.511 124.626 159.764 118.486 159.669 117.736V117.725C159.669 117.654 159.659 117.599 159.648 117.553C159.563 117.223 159.437 116.402 159.295 115.281C159.265 115.033 159.235 114.769 159.199 114.49C159.164 114.212 159.134 113.923 159.099 113.623C159.078 113.481 159.063 113.334 159.048 113.187C159.043 113.126 159.038 113.066 159.028 113.01C158.967 112.432 158.902 111.828 158.831 111.195C158.816 111.022 158.796 110.85 158.776 110.677C158.745 110.378 158.715 110.074 158.685 109.765C158.68 109.719 158.675 109.668 158.67 109.613C158.655 109.44 158.629 109.263 158.614 109.075C158.574 108.72 158.544 108.36 158.503 108C158.473 107.691 158.443 107.382 158.412 107.072C158.357 106.489 158.296 105.906 158.246 105.343C158.206 104.922 158.165 104.502 158.125 104.106C158.115 104.015 158.11 103.924 158.1 103.832C158.241 104.497 160.799 116.737 162.257 119.586C162.807 120.666 162.297 123.445 161.222 126.406L161.217 126.411Z" fill="#B79FFF"/>
<path d="M175.278 112.711C175.278 112.711 174.567 112.3 173.77 110.312C172.972 108.325 172.18 101.723 170.783 97.5804C170.783 97.5804 169.073 92.4846 167.13 91.2575C165.188 90.0305 161.752 86.1262 159.507 83.733C157.267 81.3397 158.73 75.5695 153.726 79.1492C151.612 80.6602 151.572 84.387 152.086 87.9262C152.606 91.4654 157.656 98.9799 157.656 98.9799C157.863 101.586 159.195 115.865 159.644 117.538" stroke="#263238" stroke-linecap="round" stroke-linejoin="round"/>
<path d="M159.648 117.548C159.648 117.548 160.536 124.074 159.078 126.847" stroke="#263238" stroke-linecap="round" stroke-linejoin="round"/>
<path opacity="0.2" d="M73.3591 125.534C73.3591 125.534 76.5526 140.436 69.6359 151.282C62.7192 162.123 57.3968 165.018 55.0004 168.253C52.604 171.488 43.2355 189.574 43.2355 189.574L32.2879 156.986L43.2355 116.671L73.3641 125.539L73.3591 125.534Z" fill="black"/>
<path d="M137.884 114.141L69.9991 142.855L63.0017 145.816L49.8142 114.323L19.1911 41.1918L94.0738 9.51648L137.884 114.141Z" fill="white"/>
<path d="M74.7263 23.1256L42.4031 36.7956C41.7977 37.0542 41.5101 37.7539 41.7674 38.3624C42.0247 38.9708 42.7209 39.2599 43.3263 39.0013L75.6495 25.3313C76.2549 25.0727 76.5425 24.3729 76.2852 23.7645C76.0279 23.156 75.3317 22.867 74.7263 23.1256V23.1256Z" fill="#263238"/>
<path d="M68.5462 31.0811L52.382 37.9161C52.0794 38.0429 51.9381 38.3978 52.0642 38.7021C52.1903 39.0063 52.5435 39.1483 52.8462 39.0215L69.0103 32.1865C69.313 32.0597 69.4543 31.7048 69.3281 31.4006C69.202 31.0964 68.8489 30.9544 68.5462 31.0811V31.0811Z" fill="#263238"/>
<path d="M95.1383 72.7251C95.1383 72.7251 95.8193 78.1049 93.8266 78.9516C92.0053 79.7224 89.609 76.8322 87.5153 77.7195C85.4216 78.6068 87.0714 86.2328 85.0534 87.0898C83.0354 87.9416 80.6037 84.808 78.8632 85.5433C77.1227 86.2785 78.177 90.203 76.381 90.9636C74.8978 91.5923 72.7789 88.4689 71.0838 87.7844C70.7256 87.6374 70.3876 87.6019 70.0748 87.7337C68.299 88.4841 69.1819 96.6831 67.6482 97.3271C67.1386 97.5451 66.6947 97.5806 66.286 97.5501C65.6806 97.5096 65.1459 97.3271 64.5556 97.3879C64.3488 97.4082 64.1369 97.4589 63.9098 97.5552C62.6032 98.1079 62.7798 102.423 61.5841 102.93C60.3885 103.437 59.2079 102.808 57.9315 103.351C56.6552 103.893 56.6753 106.134 54.7683 106.941L55.5755 108.862L102.045 89.2092" fill="#BFBFBF"/>
<path d="M95.1383 72.7251C95.1383 72.7251 95.8193 78.1049 93.8266 78.9516C92.0053 79.7224 89.609 76.8322 87.5153 77.7195C85.4216 78.6068 87.0714 86.2328 85.0534 87.0898C83.0354 87.9416 80.6037 84.808 78.8632 85.5433C77.1227 86.2785 78.177 90.203 76.381 90.9636C74.8978 91.5923 72.7789 88.4689 71.0838 87.7844C70.7256 87.6374 70.3876 87.6019 70.0748 87.7337C68.299 88.4841 69.1819 96.6831 67.6482 97.3271C67.1386 97.5451 66.6947 97.5806 66.286 97.5501C65.6806 97.5096 65.1459 97.3271 64.5556 97.3879C64.3488 97.4082 64.1369 97.4589 63.9098 97.5552C62.6032 98.1079 62.7798 102.423 61.5841 102.93C60.3885 103.437 59.2079 102.808 57.9315 103.351C56.6552 103.893 56.6753 106.134 54.7683 106.941L55.5755 108.862L102.045 89.2092" stroke="#263238" stroke-miterlimit="10"/>
<path d="M46.1616 86.3951L55.5705 108.862L104.224 88.2864" stroke="#263238" stroke-linecap="round" stroke-linejoin="round"/>
<path d="M98.8766 81.6542C98.8766 81.6542 98.6496 81.3702 98.3015 81.0356C97.7011 80.4525 96.7476 79.7122 96.0211 80.0164C95.3098 80.3156 95.2493 81.5021 95.2644 82.7646C95.2795 84.306 95.4158 85.959 94.6439 86.2886C93.988 86.5675 93.4028 86.1466 92.7974 85.6954C92.1062 85.1782 91.3999 84.6103 90.5473 84.9703C89.1146 85.5787 89.5484 87.4548 89.0439 89.0621C88.7866 89.8836 88.2821 90.634 87.1571 91.1106C85.916 91.6329 84.6599 91.1208 83.4793 90.3095C81.4815 88.9405 79.6855 86.7196 78.5252 87.2114C76.6736 87.9923 78.7169 93.0273 76.7241 93.869C75.6142 94.3405 73.3137 90.8165 71.0788 87.7895C69.313 85.3911 67.5876 83.3072 66.5231 83.7534C64.1217 84.7675 68.077 96.7997 66.3314 97.54C66.3163 97.5451 66.2961 97.5552 66.2759 97.5603C65.5495 97.8493 65.0147 97.6667 64.5455 97.398C63.9149 97.038 63.4053 96.531 62.7091 96.825C61.4227 97.3676 62.1794 102.083 60.7618 102.687C59.3441 103.285 58.4966 102.418 56.9024 103.092C55.5554 103.66 54.7532 106.946 54.7532 106.946L55.5604 108.867L102.03 89.2143" fill="#757575"/>
<path d="M98.8766 81.6542C98.8766 81.6542 98.6496 81.3702 98.3015 81.0356C97.7011 80.4525 96.7476 79.7122 96.0211 80.0164C95.3098 80.3156 95.2493 81.5021 95.2644 82.7646C95.2795 84.306 95.4158 85.959 94.6439 86.2886C93.988 86.5675 93.4028 86.1466 92.7974 85.6954C92.1062 85.1782 91.3999 84.6103 90.5473 84.9703C89.1146 85.5787 89.5484 87.4548 89.0439 89.0621C88.7866 89.8836 88.2821 90.634 87.1571 91.1106C85.916 91.6329 84.6599 91.1208 83.4793 90.3095C81.4815 88.9405 79.6855 86.7196 78.5252 87.2114C76.6736 87.9923 78.7169 93.0273 76.7241 93.869C75.6142 94.3405 73.3137 90.8165 71.0788 87.7895C69.313 85.3911 67.5876 83.3072 66.5231 83.7534C64.1217 84.7675 68.077 96.7997 66.3314 97.54C66.3163 97.5451 66.2961 97.5552 66.2759 97.5603C65.5495 97.8493 65.0147 97.6667 64.5455 97.398C63.9149 97.038 63.4053 96.531 62.7091 96.825C61.4227 97.3676 62.1794 102.083 60.7618 102.687C59.3441 103.285 58.4966 102.418 56.9024 103.092C55.5554 103.66 54.7532 106.946 54.7532 106.946L55.5604 108.867L102.03 89.2143" stroke="#263238" stroke-linecap="round" stroke-linejoin="round"/>
<path d="M89.0439 97.6971L72.8798 104.532C72.5771 104.659 72.4359 105.014 72.562 105.318C72.6881 105.622 73.0413 105.764 73.344 105.637L89.5081 98.8025C89.8108 98.6757 89.952 98.3208 89.8259 98.0165C89.6998 97.7123 89.3466 97.5703 89.0439 97.6971Z" fill="#263238"/>
<path d="M101.842 70.7863L100.284 71.4451C100.122 71.5135 100.046 71.7008 100.114 71.8634L100.77 73.4291C100.838 73.5917 101.024 73.668 101.186 73.5996L102.744 72.9408C102.906 72.8724 102.982 72.6851 102.914 72.5225L102.258 70.9568C102.19 70.7942 102.004 70.7179 101.842 70.7863Z" fill="#BFBFBF" stroke="#263238" stroke-miterlimit="10"/>
<path d="M110.288 68.1312L103.831 70.8642C103.695 70.92 103.538 70.8591 103.483 70.7222C103.427 70.5853 103.488 70.4281 103.624 70.3724L110.082 67.6394C110.218 67.5836 110.374 67.6444 110.43 67.7813C110.485 67.9182 110.425 68.0754 110.288 68.1312Z" fill="#263238"/>
<path d="M108.77 70.0377L104.28 71.9341C104.144 71.9898 103.987 71.929 103.932 71.7921C103.876 71.6552 103.937 71.498 104.073 71.4422L108.563 69.5459C108.699 69.4901 108.856 69.5509 108.911 69.6878C108.967 69.8247 108.906 69.9819 108.77 70.0377Z" fill="#263238"/>
<path d="M103.862 75.6086L102.304 76.2673C102.143 76.3358 102.067 76.5231 102.135 76.6857L102.79 78.2513C102.858 78.4139 103.045 78.4903 103.206 78.4219L104.764 77.7631C104.926 77.6947 105.002 77.5074 104.934 77.3448L104.278 75.7791C104.21 75.6165 104.024 75.5401 103.862 75.6086Z" fill="#757575" stroke="#263238" stroke-linecap="round" stroke-linejoin="round"/>
<path d="M112.311 72.9532L105.854 75.6862C105.718 75.742 105.561 75.6811 105.506 75.5442C105.45 75.4073 105.511 75.2502 105.647 75.1944L112.105 72.4614C112.241 72.4056 112.397 72.4665 112.453 72.6034C112.508 72.7403 112.448 72.8975 112.311 72.9532Z" fill="#263238"/>
<path d="M110.788 74.8649L106.298 76.7612C106.162 76.817 106.005 76.7561 105.95 76.6192C105.894 76.4823 105.955 76.3251 106.091 76.2694L110.581 74.373C110.717 74.3172 110.874 74.3781 110.929 74.515C110.985 74.6519 110.924 74.8091 110.788 74.8649Z" fill="#263238"/>
<path d="M120.802 92.8497L68.3393 115.038C68.0366 115.165 67.8954 115.52 68.0215 115.824C68.1476 116.128 68.5008 116.27 68.8035 116.143L121.266 93.9551C121.569 93.8283 121.71 93.4734 121.584 93.1691C121.458 92.8649 121.105 92.7229 120.802 92.8497Z" fill="#263238"/>
<path d="M122.467 96.8199L61.463 122.624C61.1603 122.75 61.0191 123.105 61.1452 123.409C61.2713 123.714 61.6245 123.856 61.9272 123.729L122.931 97.9253C123.234 97.7985 123.375 97.4436 123.249 97.1393C123.123 96.8351 122.77 96.6931 122.467 96.8199Z" fill="#263238"/>
<path d="M124.127 100.79L63.1228 126.594C62.8201 126.72 62.6788 127.075 62.805 127.38C62.9311 127.684 63.2842 127.826 63.5869 127.699L124.591 101.895C124.894 101.769 125.035 101.414 124.909 101.109C124.783 100.805 124.429 100.663 124.127 100.79V100.79Z" fill="#263238"/>
<path d="M125.792 104.765L64.7877 130.569C64.485 130.696 64.3437 131.051 64.4698 131.355C64.5959 131.659 64.9491 131.801 65.2518 131.674L126.256 105.871C126.558 105.744 126.7 105.389 126.574 105.085C126.447 104.781 126.094 104.639 125.792 104.765V104.765Z" fill="#263238"/>
<path d="M101.828 119.571L66.4474 134.534C66.1448 134.661 66.0035 135.016 66.1296 135.32C66.2557 135.624 66.6089 135.766 66.9116 135.639L102.292 120.676C102.595 120.55 102.736 120.195 102.61 119.891C102.484 119.586 102.131 119.444 101.828 119.571Z" fill="#263238"/>
<path d="M82.3442 42.1704C82.3442 42.1704 83.0253 47.5502 81.0325 48.397C79.2113 49.1677 76.8149 46.2775 74.7212 47.1648C72.6276 48.0522 74.2773 55.6782 72.2593 56.5351C70.2413 57.3869 67.8096 54.2534 66.0691 54.9886C64.3286 55.7238 65.383 59.6483 63.587 60.4089C62.1037 61.0377 59.9848 57.9142 58.2897 57.2297C57.9315 57.0827 57.5935 57.0472 57.2807 57.179C55.5049 57.9295 56.3878 66.1284 54.8541 66.7724C54.3446 66.9904 53.9006 67.0259 53.492 66.9955C52.8866 66.9549 52.3518 66.7724 51.7615 66.8332C51.5547 66.8535 51.3428 66.9042 51.1158 67.0005C49.8091 67.5532 49.9857 71.8682 48.79 72.3752C47.5944 72.8823 46.4138 72.2536 45.1375 72.7961C43.8611 73.3386 43.8813 75.5798 41.9793 76.386L42.7865 78.3077L89.2558 58.6545" fill="#BFBFBF"/>
<path d="M82.3442 42.1704C82.3442 42.1704 83.0253 47.5502 81.0325 48.397C79.2113 49.1677 76.8149 46.2775 74.7212 47.1648C72.6276 48.0522 74.2773 55.6782 72.2593 56.5351C70.2413 57.3869 67.8096 54.2534 66.0691 54.9886C64.3286 55.7238 65.383 59.6483 63.587 60.4089C62.1037 61.0377 59.9848 57.9142 58.2897 57.2297C57.9315 57.0827 57.5935 57.0472 57.2807 57.179C55.5049 57.9295 56.3878 66.1284 54.8541 66.7724C54.3446 66.9904 53.9006 67.0259 53.492 66.9955C52.8866 66.9549 52.3518 66.7724 51.7615 66.8332C51.5547 66.8535 51.3428 66.9042 51.1158 67.0005C49.8091 67.5532 49.9857 71.8682 48.79 72.3752C47.5944 72.8823 46.4138 72.2536 45.1375 72.7961C43.8611 73.3386 43.8813 75.5798 41.9793 76.386L42.7865 78.3077L89.2558 58.6545" stroke="#263238" stroke-miterlimit="10"/>
<path d="M85.346 49.3451C85.346 49.3451 85.7697 51.9513 84.7456 52.3874C83.893 52.7474 83.3683 52.2454 82.4703 52.215C82.1121 52.1998 81.6934 52.2606 81.1687 52.4837C80.3464 52.8285 80.1496 53.944 80.0033 55.1457C79.8217 56.6212 79.7309 58.2184 78.6563 58.6748C77.9046 58.9942 77.0924 58.8066 76.2549 58.5125C74.923 58.046 73.5155 57.3057 72.1634 57.8787C71.5076 58.1576 71.0485 58.8725 70.6903 59.7599C69.8478 61.854 69.5855 64.8861 68.6723 65.2715C67.3758 65.8191 64.9996 63.5779 63.8493 64.0647C62.6991 64.5515 63.1682 66.5644 62.2349 66.9599C61.3016 67.3554 60.7668 66.1892 59.1222 66.8839C57.4775 67.5785 58.2797 70.0225 55.959 71.0011C53.6383 71.9797 52.6242 70.1797 50.3792 71.1279C48.1342 72.076 48.5428 73.7848 46.9638 74.4541C45.3847 75.1234 44.7137 73.9623 43.5836 74.4389C42.4838 74.9054 42.1862 76.7155 42.166 76.8321L42.7865 78.3127L89.2558 58.6596" fill="#B79FFF"/>
<path d="M85.346 49.3451C85.346 49.3451 85.7697 51.9513 84.7456 52.3874C83.893 52.7474 83.3683 52.2454 82.4703 52.215C82.1121 52.1998 81.6934 52.2606 81.1687 52.4837C80.3464 52.8285 80.1496 53.944 80.0033 55.1457C79.8217 56.6212 79.7309 58.2184 78.6563 58.6748C77.9046 58.9942 77.0924 58.8066 76.2549 58.5125C74.923 58.046 73.5155 57.3057 72.1634 57.8787C71.5076 58.1576 71.0485 58.8725 70.6903 59.7599C69.8478 61.854 69.5855 64.8861 68.6723 65.2715C67.3758 65.8191 64.9996 63.5779 63.8493 64.0647C62.6991 64.5515 63.1682 66.5644 62.2349 66.9599C61.3016 67.3554 60.7668 66.1892 59.1222 66.8839C57.4775 67.5785 58.2797 70.0225 55.959 71.0011C53.6383 71.9797 52.6242 70.1797 50.3792 71.1279C48.1342 72.076 48.5428 73.7848 46.9638 74.4541C45.3847 75.1234 44.7137 73.9623 43.5836 74.4389C42.4838 74.9054 42.1862 76.7155 42.166 76.8321L42.7865 78.3127L89.2558 58.6596" stroke="#263238" stroke-miterlimit="10"/>
<path d="M33.3675 55.8405L42.7764 78.3077L91.4302 57.7267" stroke="#263238" stroke-linecap="round" stroke-linejoin="round"/>
<path d="M76.1036 66.7926L59.9395 73.6276C59.6368 73.7543 59.4955 74.1093 59.6216 74.4135C59.7477 74.7177 60.1009 74.8597 60.4036 74.7329L76.5677 67.8979C76.8704 67.7712 77.0117 67.4162 76.8855 67.112C76.7594 66.8078 76.4063 66.6658 76.1036 66.7926Z" fill="#263238"/>
<path d="M88.2293 38.2804L86.6715 38.9392C86.5097 39.0076 86.4337 39.1949 86.5018 39.3575L87.1573 40.9232C87.2254 41.0858 87.4117 41.1622 87.5735 41.0937L89.1313 40.435C89.2931 40.3665 89.3691 40.1793 89.301 40.0166L88.6455 38.451C88.5774 38.2884 88.3911 38.212 88.2293 38.2804Z" fill="#BFBFBF" stroke="#263238" stroke-miterlimit="10"/>
<path d="M96.677 35.6244L90.2194 38.3574C90.0832 38.4131 89.9268 38.3523 89.8713 38.2154C89.8158 38.0785 89.8764 37.9213 90.0126 37.8655L96.4701 35.1325C96.6064 35.0768 96.7628 35.1376 96.8183 35.2745C96.8737 35.4114 96.8132 35.5686 96.677 35.6244Z" fill="#263238"/>
<path d="M95.1585 37.536L90.6684 39.4324C90.5322 39.4881 90.3758 39.4273 90.3203 39.2904C90.2648 39.1535 90.3254 38.9963 90.4616 38.9405L94.9516 37.0442C95.0878 36.9884 95.2442 37.0492 95.2997 37.1861C95.3552 37.323 95.2947 37.4802 95.1585 37.536Z" fill="#263238"/>
<path d="M90.2495 43.1027L88.6917 43.7615C88.53 43.8299 88.454 44.0172 88.5221 44.1798L89.1775 45.7455C89.2456 45.9081 89.432 45.9844 89.5938 45.916L91.1515 45.2572C91.3133 45.1888 91.3893 45.0015 91.3212 44.8389L90.6658 43.2732C90.5977 43.1106 90.4113 43.0343 90.2495 43.1027Z" fill="#B79FFF" stroke="#263238" stroke-miterlimit="10"/>
<path d="M98.7 40.4515L92.2425 43.1845C92.1062 43.2403 91.9498 43.1794 91.8944 43.0425C91.8389 42.9056 91.8994 42.7484 92.0356 42.6927L98.4932 39.9597C98.6294 39.9039 98.7858 39.9648 98.8413 40.1017C98.8968 40.2386 98.8362 40.3957 98.7 40.4515Z" fill="#263238"/>
<path d="M97.1764 42.358L92.6864 44.2544C92.5502 44.3101 92.3938 44.2493 92.3383 44.1124C92.2828 43.9755 92.3433 43.8183 92.4796 43.7625L96.9696 41.8662C97.1058 41.8104 97.2622 41.8712 97.3177 42.0082C97.3732 42.1451 97.3127 42.3022 97.1764 42.358Z" fill="#263238"/>
<path opacity="0.2" d="M69.9991 142.855L63.0017 145.816L49.8141 114.323C50.6415 113.532 51.6102 112.178 52.0188 109.978C52.8058 105.759 52.2509 92.1957 62.7596 90.7962C73.2632 89.3968 64.4042 113.147 64.8885 117.675C65.3325 121.797 71.3209 133.779 69.9991 142.855Z" fill="black"/>
<path d="M137.884 114.141L69.9991 142.855L63.0017 145.816L49.8142 114.323L19.1911 41.1918L94.0738 9.51648L137.884 114.141Z" stroke="#263238" stroke-linecap="round" stroke-linejoin="round"/>
<path d="M65.7714 119.389C66.9469 115.342 71.548 102.347 70.9476 96.602C70.8921 96.0848 70.7811 95.6183 70.6247 95.2025C69.0103 90.9129 62.4115 91.3287 59.8739 94.8831C57.089 98.7924 54.8188 105.83 54.622 110.11C54.5161 112.478 53.5071 114.648 52.6242 116.123C52.6242 116.133 52.6242 116.139 52.6141 116.144C51.9028 117.33 51.2772 118.05 51.2772 118.05L36.218 82.141C36.218 82.141 33.7863 84.1185 32.2778 86.5624C31.6674 87.541 31.2133 88.6059 31.1225 89.6402C30.8148 93.1744 26.8292 107.706 25.1694 113.842C25.1392 113.973 25.0988 114.095 25.0685 114.217C23.4743 120.109 27.6818 141.993 26.4811 148.351C25.2754 154.705 24.5287 154.568 24.3572 159.08C24.2311 162.376 19.5392 172.395 14.2824 182.683C11.2705 188.58 8.06696 194.559 5.42844 199.401L43.9317 197.794C44.5977 193.093 45.2838 188.129 45.9094 183.327C46.1667 181.35 46.5854 179.317 47.0596 177.39C47.9072 173.937 48.9464 170.819 49.572 168.993C50.5558 166.144 51.5799 160.83 51.5799 160.83C56.0599 156.063 61.9322 148.579 63.6324 143.504C63.6324 143.494 63.6425 143.479 63.6425 143.468C64.0713 142.186 64.2277 141.06 64.0259 140.178C63.8544 139.448 63.7635 138.499 63.7232 137.409C63.7232 137.409 63.7232 137.406 63.7232 137.399C63.5264 131.908 64.7776 122.766 65.7664 119.394L65.7714 119.389Z" fill="white"/>
<path opacity="0.4" d="M52.6192 116.138C51.4235 118.547 49.9857 120.884 49.0675 123.587C48.1493 126.285 47.1656 126.67 44.4665 128.779C41.7725 130.894 39.8049 127.41 39.8049 127.41C39.8049 127.41 43.3717 123.688 42.1862 121.615C40.9955 119.541 36.566 114.384 36.8284 111.54C37.0857 108.695 34.1394 102.316 34.1394 102.316C34.1394 102.316 40.8644 98.3512 39.5577 93.7168C38.8464 91.1765 35.325 88.479 32.2879 86.5573C33.7964 84.1134 36.228 82.1359 36.228 82.1359L51.2873 118.045C51.2873 118.045 51.9129 117.325 52.6242 116.138H52.6192Z" fill="#B79FFF"/>
<path opacity="0.4" d="M28.2015 138.165C28.2923 138.469 30.4818 145.735 28.6353 148.762C26.7435 151.855 24.892 155.805 25.795 159.912C26.5164 163.198 20.4625 175.062 14.2874 182.678C19.5443 172.39 24.2361 162.371 24.3622 159.075C24.5388 154.562 25.2804 154.699 26.4862 148.346C27.6869 141.988 23.4844 120.104 25.0736 114.212C25.1039 114.09 25.1442 113.968 25.1745 113.836C26.35 120.514 29.0894 133.814 29.8411 138.089C30.7996 143.534 28.2973 138.383 28.1964 138.165H28.2015Z" fill="#B79FFF"/>
<path opacity="0.4" d="M42.0651 182.009C46.54 162.645 61.5993 147.799 63.6374 143.499C61.9373 148.569 56.0649 156.058 51.585 160.825C51.585 160.825 50.5608 166.133 49.5771 168.988C48.9464 170.813 47.9122 173.932 47.0647 177.38C42.6907 182.562 42.0651 182.014 42.0651 182.014V182.009Z" fill="#B79FFF"/>
<path opacity="0.4" d="M65.7715 119.389C64.7826 122.76 63.5315 131.903 63.7282 137.394C62.9362 133.946 61.4126 129.565 61.1604 123.465C60.7315 113.122 66.5635 116.833 64.5304 111.737C62.4973 106.647 56.7006 113.172 59.556 102.387C61.6396 94.5129 67.5776 94.5838 70.6247 95.1974C70.7811 95.6131 70.8921 96.0796 70.9476 96.5968C71.553 102.342 66.952 115.337 65.7715 119.384V119.389Z" fill="#B79FFF"/>
<path d="M11.2907 188.717C16.1188 179.849 20.8156 170.727 24.1958 160.891C24.5994 159.476 24.0596 157.635 24.4682 156.221C29.044 143.443 23.8527 130.143 24.7053 117.061C25.4217 111.905 27.0613 106.707 28.7009 101.515C29.4728 97.753 29.7654 93.5496 30.9964 89.767C32.2677 86.9174 33.5239 83.6013 36.228 82.141C41.3739 93.9958 46.5047 105.896 51.2873 118.05C53.4466 116.793 53.7947 113.984 54.163 111.636C55.3233 105.993 56.4988 100.821 58.6227 96.0696C60.782 92.2515 66.281 90.6239 69.6561 93.7422C70.6197 94.6346 71.1393 96.0087 71.1999 97.4082C70.544 103.959 68.4957 110.571 66.4323 116.717C65.6201 119.546 64.7927 121.914 64.4446 124.723C64.485 125.656 64.5001 126.117 64.5405 127.05C63.3448 131.761 64.4446 135.908 64.1722 140.583C63.1279 149.016 56.4181 154.892 51.5749 161.149C50.3792 165.86 49.1836 170.57 47.5238 175.301C45.4957 182.379 44.86 189.397 44.1689 196.217" stroke="#263238" stroke-linecap="round" stroke-linejoin="round"/>
<path d="M51.2873 118.045C51.2873 118.045 49.7032 121.103 49.0726 123.587C48.4419 126.072 45.2485 125.712 43.5988 127.258" stroke="#263238" stroke-linecap="round" stroke-linejoin="round"/>
<path d="M39.2399 113.674C39.2399 113.674 43.5836 115.216 46.1112 117.198C48.6387 119.181 50.5104 119.668 50.5104 119.668" stroke="#263238" stroke-linecap="round" stroke-linejoin="round"/>
<path d="M36.4702 102.849C36.4702 102.849 39.9765 103.838 42.5746 102.595C42.5746 102.595 42.7663 100.435 43.2355 98.8483" stroke="#263238" stroke-linecap="round" stroke-linejoin="round"/>
<path d="M43.4121 103.102C43.4121 103.102 43.4474 103.594 45.2384 103.614" stroke="#263238" stroke-linecap="round" stroke-linejoin="round"/>
<path d="M51.585 160.83C51.585 160.83 48.1645 163.948 46.0759 169.566" stroke="#263238" stroke-linecap="round" stroke-linejoin="round"/>
<path d="M24.8718 115.297C24.7154 118.334 28.262 129.129 29.3417 134.489C30.4213 139.853 30.8198 143.646 30.8198 143.646" stroke="#263238" stroke-linecap="round" stroke-linejoin="round"/>
</g>
<defs>
<clipPath id="clip0_2308_98">
<rect width="226" height="209" fill="white" transform="translate(3.05176e-05 0.825684)"/>
</clipPath>
</defs>
</svg>
