<svg width="19" height="20" viewBox="0 0 19 20" fill="none" xmlns="http://www.w3.org/2000/svg">
<path d="M9.06363 0.825684C4.10095 0.825684 0.0636292 4.92068 0.0636292 9.95427C0.0636292 14.9879 4.10095 19.0828 9.06363 19.0828C14.0263 19.0828 18.0636 14.9878 18.0636 9.95427C18.0636 4.92068 14.0263 0.825684 9.06363 0.825684ZM9.06363 17.0875C5.18565 17.0875 2.03084 13.8877 2.03084 9.95427C2.03084 6.02108 5.18565 2.821 9.06363 2.821C12.9416 2.821 16.0964 6.02108 16.0964 9.95427C16.0964 13.8877 12.9416 17.0875 9.06363 17.0875Z" fill="#713693"/>
<path d="M9.8426 9.96528V6.13929C9.8426 5.71209 9.50129 5.36591 9.08027 5.36591C8.65912 5.36591 8.31778 5.71209 8.31778 6.13929V10.2123C8.31778 10.2245 8.32074 10.2359 8.32131 10.2481C8.31129 10.4584 8.38271 10.6719 8.54105 10.8325L11.3808 13.7126C11.6786 14.0147 12.1613 14.0147 12.459 13.7126C12.7566 13.4105 12.7568 12.9208 12.459 12.6189L9.8426 9.96528Z" fill="#713693"/>
</svg>
