<svg width="21" height="16" viewBox="0 0 21 16" fill="none" xmlns="http://www.w3.org/2000/svg">
<path d="M10.2853 11.3791C11.0682 11.3791 11.8511 11.0817 12.4472 10.4866C13.0254 9.90971 13.3436 9.14245 13.3436 8.32616C13.3436 7.50988 13.0254 6.74261 12.4472 6.16575C11.255 4.97584 9.31529 4.97584 8.12306 6.16575C7.54492 6.74261 7.22672 7.50988 7.22672 8.32616C7.22672 9.14245 7.54492 9.90971 8.12306 10.4866C8.71918 11.0817 9.5021 11.3791 10.2853 11.3791ZM9.51519 7.56043C9.72766 7.34847 10.0063 7.24275 10.2853 7.24275C10.564 7.24275 10.8426 7.34873 11.0549 7.56043C11.2599 7.76495 11.3728 8.03696 11.3728 8.32616C11.3728 8.61536 11.2599 8.88712 11.0551 9.09189C10.6304 9.51556 9.93988 9.5153 9.51519 9.09189C9.31016 8.88712 9.1975 8.61536 9.1975 8.32616C9.1975 8.03696 9.31041 7.76521 9.51519 7.56043Z" fill="#713693"/>
<path d="M13.8866 12.6346C14.079 12.8275 14.3315 12.924 14.5841 12.924C14.836 12.924 15.0878 12.828 15.2802 12.6361C16.4337 11.4847 17.0691 9.95396 17.0691 8.32549C17.0691 6.69701 16.4337 5.16605 15.2802 4.01488C14.8951 3.63047 14.271 3.63099 13.8866 4.01617C13.5022 4.40134 13.5029 5.02543 13.8881 5.40984C14.6685 6.18866 15.0983 7.2241 15.0983 8.32549C15.0983 9.42662 14.6685 10.4623 13.8881 11.2411C13.5029 11.6255 13.5022 12.2494 13.8866 12.6346Z" fill="#713693"/>
<path d="M5.28754 12.6363C5.48 12.8283 5.73173 12.9242 5.98373 12.9242C6.23623 12.9242 6.48874 12.8277 6.6812 12.6348C7.06561 12.2496 7.06484 11.6258 6.67966 11.2414C5.8993 10.4623 5.46947 9.42684 5.46947 8.32545C5.46947 7.22432 5.8993 6.18888 6.67966 5.4098C7.06484 5.0254 7.06561 4.40157 6.6812 4.01639C6.29679 3.63096 5.67271 3.63044 5.28754 4.01485C4.13406 5.16628 3.49894 6.69698 3.49869 8.32545C3.49869 9.95392 4.13406 11.4849 5.28754 12.6363Z" fill="#713693"/>
<path d="M18.5326 8.3259C18.5326 10.523 17.6752 12.589 16.1183 14.1428C15.7332 14.5272 15.7324 15.1513 16.1168 15.5365C16.3095 15.7292 16.5618 15.8257 16.8143 15.8257C17.0663 15.8257 17.318 15.7297 17.5105 15.5377C19.4405 13.6116 20.5034 11.0504 20.5034 8.3259C20.5034 5.6017 19.4405 3.0402 17.5105 1.11406C17.1253 0.729657 16.5015 0.73017 16.1168 1.11535C15.7324 1.50052 15.7332 2.1246 16.1183 2.50901C17.6752 4.0628 18.5326 6.12853 18.5326 8.3259Z" fill="#713693"/>
<path d="M3.7527 15.8255C4.00521 15.8255 4.25772 15.729 4.45018 15.5363C4.83458 15.1511 4.83407 14.527 4.44864 14.1426C2.89176 12.5888 2.03442 10.5228 2.03442 8.32545C2.03442 6.12833 2.89176 4.06234 4.44864 2.50855C4.83381 2.12414 4.83458 1.50006 4.45018 1.11514C4.06551 0.729711 3.44169 0.729198 3.05651 1.1136C1.12652 3.03999 0.0636292 5.60125 0.0636292 8.32545C0.0636292 11.0499 1.12652 13.6112 3.05651 15.5375C3.24897 15.7295 3.50071 15.8255 3.7527 15.8255Z" fill="#713693"/>
</svg>
