<svg width="41" height="41" viewBox="0 0 41 41" fill="none" xmlns="http://www.w3.org/2000/svg">
<g clip-path="url(#clip0_2289_7185)">
<path d="M10.764 26.0432C11.1375 25.8277 11.2654 25.3495 11.0499 24.976C10.8341 24.6027 10.3562 24.4746 9.98271 24.69C9.60918 24.9058 9.481 25.384 9.69676 25.7572C9.91221 26.1308 10.3904 26.259 10.764 26.0432Z" fill="#6FCFFF"/>
<path d="M7.56236 31.4353L11.4967 38.2502C12.3457 39.7224 14.2555 40.2674 15.7658 39.3943C17.2602 38.5306 17.7738 36.6212 16.9093 35.1255L14.5655 31.0654L16.5953 29.8936C16.9688 29.6775 17.097 29.1999 16.8812 28.8264L15.8653 27.0667C15.9864 27.0432 16.7829 26.887 30.8293 24.1315C32.5657 24.0372 33.6061 22.1381 32.729 20.6199L30.1326 16.1228L31.7918 13.6097C31.9548 13.3625 31.9645 13.0448 31.8165 12.7885L30.254 10.0822C30.106 9.82581 29.8249 9.67566 29.5304 9.69305L26.5248 9.87341L23.6424 4.88074C23.2249 4.15747 22.4769 3.71954 21.642 3.70917C21.6319 3.70886 21.6221 3.70886 21.612 3.70886C20.8052 3.70886 20.0727 4.11047 19.6388 4.78949L9.43309 17.7906L2.79827 21.6212C0.188708 23.1272 -0.715222 26.475 0.796618 29.0916C2.17784 31.4841 5.08983 32.4253 7.56236 31.4353ZM15.5564 35.907C15.988 36.6535 15.7325 37.6087 14.9839 38.0411C14.2329 38.4754 13.2765 38.2087 12.8498 37.4692L8.94359 30.7026L11.6499 29.1401C16.1708 36.9715 15.4838 35.7816 15.5564 35.907ZM13.7843 29.712L13.003 28.3588L14.3562 27.5776L15.1374 28.9307L13.7843 29.712ZM29.1423 11.2815L30.222 13.1516L29.2591 14.6097L27.3982 11.3862L29.1423 11.2815ZM20.9455 5.64612C21.1552 5.3031 21.4878 5.2677 21.6227 5.27136C21.7561 5.27289 22.0884 5.31439 22.2889 5.66168L31.3758 21.4011C31.6719 21.9135 31.3121 22.5577 30.7185 22.5724C30.612 22.5748 30.5628 22.5941 30.29 22.645L20.6779 5.99615C20.8796 5.73676 20.9056 5.71173 20.9455 5.64612ZM19.6382 7.32062L28.6692 22.963L15.0395 25.6364L10.8952 18.4583L19.6382 7.32062ZM2.14977 28.3103C1.80675 27.7167 1.62548 27.0429 1.62548 26.3611C1.62548 24.9677 2.37438 23.6701 3.57952 22.9743L9.66869 19.4587L13.5749 26.2244L7.48576 29.7404C5.62023 30.817 3.22673 30.1755 2.14977 28.3103Z" fill="#6FCFFF"/>
<path d="M8.34361 26.5384C8.12785 26.1649 7.64995 26.0367 7.27641 26.2525L5.92326 27.0337C5.55034 27.2492 5.07152 27.1207 4.85606 26.7478C4.6403 26.3743 4.1624 26.2461 3.78886 26.4618C3.41533 26.6776 3.28715 27.1555 3.50291 27.529C4.14592 28.6429 5.58025 29.0357 6.70451 28.3869L8.05766 27.6056C8.4312 27.3899 8.55937 26.9123 8.34361 26.5384Z" fill="#6FCFFF"/>
<path d="M38.9024 5.38009L34.5491 7.80257C34.1722 8.01253 34.0364 8.4883 34.2464 8.8652C34.4557 9.24178 34.9312 9.3782 35.309 9.16793L39.662 6.74544C40.0392 6.53548 40.1747 6.05971 39.9647 5.68282C39.7551 5.30563 39.2793 5.17013 38.9024 5.38009Z" fill="#6FCFFF"/>
<path d="M38.4459 13.4715L35.4274 12.6628C35.0105 12.5511 34.582 12.7983 34.4704 13.2152C34.3587 13.6321 34.6062 14.0602 35.023 14.1719L38.0418 14.9806C38.4611 15.0932 38.8875 14.8421 38.9985 14.4283C39.1102 14.0114 38.8627 13.5829 38.4459 13.4715Z" fill="#6FCFFF"/>
<path d="M30.8604 2.54172L30.0508 5.56052C29.9391 5.97739 30.1863 6.40555 30.6032 6.51755C31.0197 6.62894 31.4482 6.38236 31.5602 5.96518L32.3695 2.94639C32.4812 2.52952 32.234 2.10105 31.8172 1.98936C31.4006 1.87766 30.9721 2.12485 30.8604 2.54172Z" fill="#6FCFFF"/>
</g>
<defs>
<clipPath id="clip0_2289_7185">
<rect width="40" height="40" fill="white" transform="translate(0.0635986 0.868652)"/>
</clipPath>
</defs>
</svg>
