<svg width="167" height="38" viewBox="0 0 167 38" fill="none" xmlns="http://www.w3.org/2000/svg">
<g clip-path="url(#clip0_1_8614)">
<path d="M49.938 25.2928H50.622L54.3844 20.2173H57.7192L53.1018 26.3924L58.1469 33.0752H54.8119L50.8786 27.9997H49.938V33.0752H46.945V20.2173H49.938V25.2928Z" fill="black"/>
<path d="M49.938 25.2928H50.622L54.3844 20.2173H57.7192L53.1018 26.3924L58.1469 33.0752H54.8119L50.8786 27.9997H49.938V33.0752H46.945V20.2173H49.938V25.2928Z" fill="black"/>
<path d="M63.1913 33.2444C62.3363 33.2444 61.6522 33.0752 60.968 32.8214C60.3695 32.5677 59.771 32.2294 59.3434 31.7218C58.9159 31.2988 58.5739 30.7066 58.3172 30.1145C58.0607 29.5223 57.9752 28.9302 57.9752 28.2535C57.9752 27.5767 58.0607 26.9846 58.3172 26.3924C58.5739 25.8004 58.9159 25.2928 59.3434 24.7853C59.771 24.3623 60.284 23.9393 60.968 23.6855C61.5667 23.4319 62.3363 23.2627 63.1913 23.2627C64.0465 23.2627 64.7305 23.4319 65.3291 23.6855C65.9276 23.9393 66.5263 24.2777 66.9538 24.7853C67.3813 25.2083 67.7233 25.8004 67.9799 26.3924C68.2364 26.9846 68.3219 27.5767 68.3219 28.2535C68.3219 28.9302 68.2364 29.5223 67.9799 30.1145C67.7233 30.7066 67.3813 31.2143 66.9538 31.7218C66.5263 32.1447 66.0131 32.5677 65.3291 32.8214C64.7305 33.0752 63.961 33.2444 63.1913 33.2444ZM61.0535 28.338C61.0535 29.0995 61.2247 29.6917 61.6522 30.1145C62.0797 30.5375 62.5928 30.7913 63.1913 30.7913C63.5333 30.7913 63.7898 30.7066 64.0465 30.6221C64.303 30.5375 64.5595 30.3683 64.7305 30.1145C64.9015 29.8608 65.0726 29.607 65.1581 29.3532C65.2436 29.0148 65.3291 28.6765 65.3291 28.338C65.3291 27.5767 65.1581 26.9846 64.7305 26.5618C64.303 26.1388 63.7898 25.8849 63.1913 25.8849C62.8493 25.8849 62.5928 25.9696 62.3363 26.0541C62.0797 26.1388 61.8232 26.3079 61.6522 26.5618C61.4812 26.8154 61.3102 27.0692 61.2247 27.3231C61.0535 27.5767 61.0535 27.9152 61.0535 28.338Z" fill="black"/>
<path d="M63.1913 33.2444C62.3363 33.2444 61.6522 33.0752 60.968 32.8214C60.3695 32.5677 59.771 32.2294 59.3434 31.7218C58.9159 31.2988 58.5739 30.7066 58.3172 30.1145C58.0607 29.5223 57.9752 28.9302 57.9752 28.2535C57.9752 27.5767 58.0607 26.9846 58.3172 26.3924C58.5739 25.8004 58.9159 25.2928 59.3434 24.7853C59.771 24.3623 60.284 23.9393 60.968 23.6855C61.5667 23.4319 62.3363 23.2627 63.1913 23.2627C64.0465 23.2627 64.7305 23.4319 65.3291 23.6855C65.9276 23.9393 66.5263 24.2777 66.9538 24.7853C67.3813 25.2083 67.7233 25.8004 67.9799 26.3924C68.2364 26.9846 68.3219 27.5767 68.3219 28.2535C68.3219 28.9302 68.2364 29.5223 67.9799 30.1145C67.7233 30.7066 67.3813 31.2143 66.9538 31.7218C66.5263 32.1447 66.0131 32.5677 65.3291 32.8214C64.7305 33.0752 63.961 33.2444 63.1913 33.2444ZM61.0535 28.338C61.0535 29.0995 61.2247 29.6917 61.6522 30.1145C62.0797 30.5375 62.5928 30.7913 63.1913 30.7913C63.5333 30.7913 63.7898 30.7066 64.0465 30.6221C64.303 30.5375 64.5595 30.3683 64.7305 30.1145C64.9015 29.8608 65.0726 29.607 65.1581 29.3532C65.2436 29.0148 65.3291 28.6765 65.3291 28.338C65.3291 27.5767 65.1581 26.9846 64.7305 26.5618C64.303 26.1388 63.7898 25.8849 63.1913 25.8849C62.8493 25.8849 62.5928 25.9696 62.3363 26.0541C62.0797 26.1388 61.8232 26.3079 61.6522 26.5618C61.4812 26.8154 61.3102 27.0692 61.2247 27.3231C61.0535 27.5767 61.0535 27.9152 61.0535 28.338Z" fill="black"/>
<path d="M112.273 26.3077C112.017 25.7156 111.76 25.2081 111.333 24.7851C110.905 24.3621 110.478 24.0238 109.965 23.77C109.451 23.5163 108.853 23.4316 108.169 23.4316C107.399 23.4316 106.801 23.6008 106.288 23.8546C105.945 24.0238 105.603 24.2776 105.347 24.6159V23.6008H102.44V36.9664H105.347V31.5524C105.603 32.06 106.031 32.483 106.63 32.8213C107.143 33.1597 107.827 33.2443 108.511 33.2443C109.109 33.2443 109.622 33.1597 110.136 32.9058C110.649 32.6522 111.076 32.3137 111.418 31.8909C111.76 31.4679 112.102 30.9602 112.273 30.3681C112.444 29.7759 112.615 29.0993 112.615 28.4225C112.615 27.5767 112.53 26.8999 112.273 26.3077ZM109.708 29.2685C109.622 29.6068 109.451 29.8606 109.28 30.0298C109.109 30.2836 108.853 30.4528 108.596 30.5374C108.34 30.6219 108.083 30.7066 107.741 30.7066C107.143 30.7066 106.63 30.4528 106.202 30.0298C105.774 29.6068 105.603 29.0146 105.603 28.2533C105.603 27.915 105.689 27.5767 105.774 27.2384C105.86 26.8999 106.031 26.6462 106.202 26.4769C106.373 26.2232 106.63 26.0541 106.886 25.9694C107.143 25.8847 107.399 25.8002 107.741 25.8002C108.34 25.8002 108.853 26.0541 109.28 26.4769C109.708 26.8999 109.879 27.492 109.879 28.2533C109.879 28.6763 109.793 29.0146 109.708 29.2685Z" fill="black"/>
<path d="M112.273 26.3077C112.017 25.7156 111.76 25.2081 111.333 24.7851C110.905 24.3621 110.478 24.0238 109.965 23.77C109.451 23.5163 108.853 23.4316 108.169 23.4316C107.399 23.4316 106.801 23.6008 106.288 23.8546C105.945 24.0238 105.603 24.2776 105.347 24.6159V23.6008H102.44V36.9664H105.347V31.5524C105.603 32.06 106.031 32.483 106.63 32.8213C107.143 33.1597 107.827 33.2443 108.511 33.2443C109.109 33.2443 109.622 33.1597 110.136 32.9058C110.649 32.6522 111.076 32.3137 111.418 31.8909C111.76 31.4679 112.102 30.9602 112.273 30.3681C112.444 29.7759 112.615 29.0993 112.615 28.4225C112.615 27.5767 112.53 26.8999 112.273 26.3077ZM109.708 29.2685C109.622 29.6068 109.451 29.8606 109.28 30.0298C109.109 30.2836 108.853 30.4528 108.596 30.5374C108.34 30.6219 108.083 30.7066 107.741 30.7066C107.143 30.7066 106.63 30.4528 106.202 30.0298C105.774 29.6068 105.603 29.0146 105.603 28.2533C105.603 27.915 105.689 27.5767 105.774 27.2384C105.86 26.8999 106.031 26.6462 106.202 26.4769C106.373 26.2232 106.63 26.0541 106.886 25.9694C107.143 25.8847 107.399 25.8002 107.741 25.8002C108.34 25.8002 108.853 26.0541 109.28 26.4769C109.708 26.8999 109.879 27.492 109.879 28.2533C109.879 28.6763 109.793 29.0146 109.708 29.2685Z" fill="black"/>
<path d="M166.658 26.3077C166.401 25.7156 166.145 25.2081 165.717 24.7851C165.29 24.3621 164.862 24.0238 164.349 23.77C163.836 23.5163 163.238 23.4316 162.553 23.4316C161.784 23.4316 161.185 23.6008 160.672 23.8546C160.33 24.0238 159.988 24.2776 159.732 24.6159V23.6008H156.824V36.9664H159.732V31.5524C159.988 32.06 160.416 32.483 161.014 32.8213C161.527 33.1597 162.211 33.2443 162.896 33.2443C163.494 33.2443 164.007 33.1597 164.52 32.9058C165.033 32.6522 165.461 32.3137 165.803 31.8909C166.145 31.4679 166.487 30.9602 166.658 30.3681C166.829 29.7759 167 29.0993 167 28.4225C167 27.5767 166.914 26.8999 166.658 26.3077ZM164.093 29.2685C164.007 29.6068 163.836 29.8606 163.665 30.0298C163.494 30.2836 163.238 30.4528 162.981 30.5374C162.725 30.6219 162.468 30.7066 162.126 30.7066C161.527 30.7066 161.014 30.4528 160.587 30.0298C160.159 29.6068 159.988 29.0146 159.988 28.2533C159.988 27.915 160.074 27.5767 160.159 27.2384C160.245 26.8999 160.416 26.6462 160.587 26.4769C160.758 26.2232 161.014 26.0541 161.271 25.9694C161.527 25.8847 161.784 25.8002 162.126 25.8002C162.725 25.8002 163.238 26.0541 163.665 26.4769C164.093 26.8999 164.264 27.492 164.264 28.2533C164.264 28.6763 164.178 29.0146 164.093 29.2685Z" fill="black"/>
<path d="M166.658 26.3077C166.401 25.7156 166.145 25.2081 165.717 24.7851C165.29 24.3621 164.862 24.0238 164.349 23.77C163.836 23.5163 163.238 23.4316 162.553 23.4316C161.784 23.4316 161.185 23.6008 160.672 23.8546C160.33 24.0238 159.988 24.2776 159.732 24.6159V23.6008H156.824V36.9664H159.732V31.5524C159.988 32.06 160.416 32.483 161.014 32.8213C161.527 33.1597 162.211 33.2443 162.896 33.2443C163.494 33.2443 164.007 33.1597 164.52 32.9058C165.033 32.6522 165.461 32.3137 165.803 31.8909C166.145 31.4679 166.487 30.9602 166.658 30.3681C166.829 29.7759 167 29.0993 167 28.4225C167 27.5767 166.914 26.8999 166.658 26.3077ZM164.093 29.2685C164.007 29.6068 163.836 29.8606 163.665 30.0298C163.494 30.2836 163.238 30.4528 162.981 30.5374C162.725 30.6219 162.468 30.7066 162.126 30.7066C161.527 30.7066 161.014 30.4528 160.587 30.0298C160.159 29.6068 159.988 29.0146 159.988 28.2533C159.988 27.915 160.074 27.5767 160.159 27.2384C160.245 26.8999 160.416 26.6462 160.587 26.4769C160.758 26.2232 161.014 26.0541 161.271 25.9694C161.527 25.8847 161.784 25.8002 162.126 25.8002C162.725 25.8002 163.238 26.0541 163.665 26.4769C164.093 26.8999 164.264 27.492 164.264 28.2533C164.264 28.6763 164.178 29.0146 164.093 29.2685Z" fill="black"/>
<path d="M73.0249 26.9003H76.2742V23.5166H79.1815V33.0755H76.2742V29.4381H73.0249V33.0755H70.1176V23.5166H73.0249V26.9003Z" fill="black"/>
<path d="M73.0249 26.9003H76.2742V23.5166H79.1815V33.0755H76.2742V29.4381H73.0249V33.0755H70.1176V23.5166H73.0249V26.9003Z" fill="black"/>
<path d="M97.8228 33.0755H94.9155V26.0544H92.0081V23.5166H100.645V26.0544H97.8228V33.0755Z" fill="black"/>
<path d="M97.8228 33.0755H94.9155V26.0544H92.0081V23.5166H100.645V26.0544H97.8228V33.0755Z" fill="black"/>
<path d="M114.668 34.4289C114.839 34.5134 115.095 34.5981 115.266 34.5981C115.437 34.5981 115.608 34.6826 115.779 34.6826C116.036 34.6826 116.292 34.5981 116.463 34.3442C116.634 34.0904 116.976 33.6674 116.891 33.0753C116.805 32.4833 113.214 23.6011 113.214 23.6011H116.292L118.43 29.9455L120.311 23.6011H123.133L119.627 34.2596C119.285 35.2747 118.858 36.036 118.259 36.5437C117.661 37.0511 116.976 37.305 116.121 37.305C115.865 37.305 115.608 37.305 115.437 37.2203C115.181 37.1358 115.01 37.1358 114.753 37.0511V34.4289H114.668Z" fill="black"/>
<path d="M114.668 34.4289C114.839 34.5134 115.095 34.5981 115.266 34.5981C115.437 34.5981 115.608 34.6826 115.779 34.6826C116.036 34.6826 116.292 34.5981 116.463 34.3442C116.634 34.0904 116.976 33.6674 116.891 33.0753C116.805 32.4833 113.214 23.6011 113.214 23.6011H116.292L118.43 29.9455L120.311 23.6011H123.133L119.627 34.2596C119.285 35.2747 118.858 36.036 118.259 36.5437C117.661 37.0511 116.976 37.305 116.121 37.305C115.865 37.305 115.608 37.305 115.437 37.2203C115.181 37.1358 115.01 37.1358 114.753 37.0511V34.4289H114.668Z" fill="black"/>
<path d="M130.658 23.5166H133.822L130.059 28.1691L134.164 33.0755H130.743L128.007 29.6919H127.579V33.0755H124.672V23.5166H127.579V27.0695H127.922L130.658 23.5166Z" fill="black"/>
<path d="M130.658 23.5166H133.822L130.059 28.1691L134.164 33.0755H130.743L128.007 29.6919H127.579V33.0755H124.672V23.5166H127.579V27.0695H127.922L130.658 23.5166Z" fill="black"/>
<path d="M140.919 33.0755H138.012V26.0544H135.105V23.5166H143.741V26.0544H140.919V33.0755Z" fill="black"/>
<path d="M140.919 33.0755H138.012V26.0544H135.105V23.5166H143.741V26.0544H140.919V33.0755Z" fill="black"/>
<path d="M149.897 33.2444C149.042 33.2444 148.358 33.0752 147.674 32.8214C147.075 32.5677 146.477 32.2294 146.049 31.7218C145.622 31.2988 145.28 30.7066 145.023 30.1145C144.767 29.5223 144.681 28.9302 144.681 28.2535C144.681 27.5767 144.767 26.9846 145.023 26.3924C145.28 25.8004 145.622 25.2928 146.049 24.7853C146.477 24.3623 146.99 23.9393 147.674 23.6855C148.273 23.4319 149.042 23.2627 149.897 23.2627C150.752 23.2627 151.436 23.4319 152.035 23.6855C152.634 23.9393 153.232 24.2777 153.66 24.7853C154.087 25.2083 154.429 25.8004 154.686 26.3924C154.942 26.9846 155.028 27.5767 155.028 28.2535C155.028 28.9302 154.942 29.5223 154.686 30.1145C154.429 30.7066 154.087 31.2143 153.66 31.7218C153.232 32.1447 152.719 32.5677 152.035 32.8214C151.436 33.0752 150.667 33.2444 149.897 33.2444ZM147.76 28.338C147.76 29.0995 147.931 29.6917 148.358 30.1145C148.786 30.5375 149.299 30.7913 149.897 30.7913C150.239 30.7913 150.496 30.7066 150.752 30.6221C151.009 30.5375 151.265 30.3683 151.436 30.1145C151.607 29.8608 151.778 29.607 151.864 29.3532C151.949 29.0148 152.035 28.6765 152.035 28.338C152.035 27.5767 151.864 26.9846 151.436 26.5618C151.009 26.1388 150.496 25.8849 149.897 25.8849C149.555 25.8849 149.299 25.9696 149.042 26.0541C148.786 26.1388 148.529 26.3079 148.358 26.5618C148.187 26.8154 148.016 27.0692 147.931 27.3231C147.76 27.5767 147.76 27.9152 147.76 28.338Z" fill="black"/>
<path d="M149.897 33.2444C149.042 33.2444 148.358 33.0752 147.674 32.8214C147.075 32.5677 146.477 32.2294 146.049 31.7218C145.622 31.2988 145.28 30.7066 145.023 30.1145C144.767 29.5223 144.681 28.9302 144.681 28.2535C144.681 27.5767 144.767 26.9846 145.023 26.3924C145.28 25.8004 145.622 25.2928 146.049 24.7853C146.477 24.3623 146.99 23.9393 147.674 23.6855C148.273 23.4319 149.042 23.2627 149.897 23.2627C150.752 23.2627 151.436 23.4319 152.035 23.6855C152.634 23.9393 153.232 24.2777 153.66 24.7853C154.087 25.2083 154.429 25.8004 154.686 26.3924C154.942 26.9846 155.028 27.5767 155.028 28.2535C155.028 28.9302 154.942 29.5223 154.686 30.1145C154.429 30.7066 154.087 31.2143 153.66 31.7218C153.232 32.1447 152.719 32.5677 152.035 32.8214C151.436 33.0752 150.667 33.2444 149.897 33.2444ZM147.76 28.338C147.76 29.0995 147.931 29.6917 148.358 30.1145C148.786 30.5375 149.299 30.7913 149.897 30.7913C150.239 30.7913 150.496 30.7066 150.752 30.6221C151.009 30.5375 151.265 30.3683 151.436 30.1145C151.607 29.8608 151.778 29.607 151.864 29.3532C151.949 29.0148 152.035 28.6765 152.035 28.338C152.035 27.5767 151.864 26.9846 151.436 26.5618C151.009 26.1388 150.496 25.8849 149.897 25.8849C149.555 25.8849 149.299 25.9696 149.042 26.0541C148.786 26.1388 148.529 26.3079 148.358 26.5618C148.187 26.8154 148.016 27.0692 147.931 27.3231C147.76 27.5767 147.76 27.9152 147.76 28.338Z" fill="black"/>
<path d="M46.945 2.87598H56.6932V5.49831H50.0235V7.95147H53.1873C54.5554 7.95147 55.6671 8.28984 56.4366 8.96657C57.2062 9.64331 57.6337 10.5738 57.6337 11.7581C57.6337 13.027 57.2917 13.9575 56.5222 14.6342C55.7526 15.311 54.7264 15.6493 53.3583 15.6493H47.0305V2.87598H46.945ZM52.8453 13.1962C53.3583 13.1962 53.7859 13.027 54.0424 12.7732C54.2989 12.5194 54.4699 12.181 54.4699 11.6735C54.4699 11.2505 54.2989 10.9122 54.0424 10.6584C53.7859 10.4046 53.3583 10.2354 52.8453 10.2354H49.938V13.1116H52.8453V13.1962Z" fill="black"/>
<path d="M46.945 2.87598H56.6932V5.49831H50.0235V7.95147H53.1873C54.5554 7.95147 55.6671 8.28984 56.4366 8.96657C57.2062 9.64331 57.6337 10.5738 57.6337 11.7581C57.6337 13.027 57.2917 13.9575 56.5222 14.6342C55.7526 15.311 54.7264 15.6493 53.3583 15.6493H47.0305V2.87598H46.945ZM52.8453 13.1962C53.3583 13.1962 53.7859 13.027 54.0424 12.7732C54.2989 12.5194 54.4699 12.181 54.4699 11.6735C54.4699 11.2505 54.2989 10.9122 54.0424 10.6584C53.7859 10.4046 53.3583 10.2354 52.8453 10.2354H49.938V13.1116H52.8453V13.1962Z" fill="black"/>
<path d="M59.4353 15.7383V6.19865H62.3438V15.7383H59.4353ZM59.4353 5.00879V2.37402H62.3438V5.00879H59.4353Z" fill="black"/>
<path d="M64.3718 7.10577C64.8849 6.68282 65.4835 6.34446 66.1676 6.17527C66.7661 6.00609 67.4501 5.83691 68.0488 5.83691C68.4763 5.83691 68.9039 5.92149 69.3314 6.00609C69.7589 6.09069 70.1009 6.25987 70.4429 6.51364C70.7851 6.68282 71.0416 7.02119 71.2126 7.35955C71.3836 7.69792 71.4692 8.03629 71.4692 8.54385C71.4692 9.0514 71.2981 9.47435 71.0416 9.8973C70.7851 10.3203 70.3574 10.574 69.8444 10.6586C70.5284 10.8278 71.0416 11.1662 71.3837 11.5891C71.7257 12.0121 71.8967 12.5197 71.8967 13.1964C71.8967 13.6193 71.8112 14.0423 71.5547 14.3807C71.3836 14.719 71.0416 15.0574 70.6996 15.3112C70.3574 15.5649 69.9299 15.7341 69.4169 15.9033C68.9039 16.0725 68.3908 16.1571 67.8777 16.1571C67.0226 16.1571 66.3386 16.0725 65.569 15.8187C64.8848 15.5649 64.3718 15.2266 63.9443 14.8036L65.3125 12.9426C65.4835 13.1964 65.8256 13.3656 66.1676 13.5347C66.5096 13.7039 66.9371 13.7885 67.3646 13.7885C67.8777 13.7885 68.2198 13.7039 68.4763 13.5347C68.7329 13.3656 68.9039 13.1118 68.9039 12.7734C68.9039 12.4351 68.7329 12.1813 68.4763 11.9275C68.2198 11.7583 67.7066 11.6737 66.9371 11.6737H66.0821V10.1511H66.8516C67.4501 10.1511 67.8777 10.0665 68.1343 9.81272C68.3908 9.64353 68.5619 9.30517 68.5619 9.0514C68.5619 8.79762 68.4763 8.54384 68.2198 8.45925C68.0488 8.29007 67.7066 8.29007 67.4501 8.29007C67.1081 8.29007 66.7661 8.37465 66.3386 8.54385C65.9111 8.71302 65.569 8.8822 65.3125 9.13598L64.3718 7.10577Z" fill="black"/>
<path d="M64.3718 7.10577C64.8849 6.68282 65.4835 6.34446 66.1676 6.17527C66.7661 6.00609 67.4501 5.83691 68.0488 5.83691C68.4763 5.83691 68.9039 5.92149 69.3314 6.00609C69.7589 6.09069 70.1009 6.25987 70.4429 6.51364C70.7851 6.68282 71.0416 7.02119 71.2126 7.35955C71.3836 7.69792 71.4692 8.03629 71.4692 8.54385C71.4692 9.0514 71.2981 9.47435 71.0416 9.8973C70.7851 10.3203 70.3574 10.574 69.8444 10.6586C70.5284 10.8278 71.0416 11.1662 71.3837 11.5891C71.7257 12.0121 71.8967 12.5197 71.8967 13.1964C71.8967 13.6193 71.8112 14.0423 71.5547 14.3807C71.3836 14.719 71.0416 15.0574 70.6996 15.3112C70.3574 15.5649 69.9299 15.7341 69.4169 15.9033C68.9039 16.0725 68.3908 16.1571 67.8777 16.1571C67.0226 16.1571 66.3386 16.0725 65.569 15.8187C64.8848 15.5649 64.3718 15.2266 63.9443 14.8036L65.3125 12.9426C65.4835 13.1964 65.8256 13.3656 66.1676 13.5347C66.5096 13.7039 66.9371 13.7885 67.3646 13.7885C67.8777 13.7885 68.2198 13.7039 68.4763 13.5347C68.7329 13.3656 68.9039 13.1118 68.9039 12.7734C68.9039 12.4351 68.7329 12.1813 68.4763 11.9275C68.2198 11.7583 67.7066 11.6737 66.9371 11.6737H66.0821V10.1511H66.8516C67.4501 10.1511 67.8777 10.0665 68.1343 9.81272C68.3908 9.64353 68.5619 9.30517 68.5619 9.0514C68.5619 8.79762 68.4763 8.54384 68.2198 8.45925C68.0488 8.29007 67.7066 8.29007 67.4501 8.29007C67.1081 8.29007 66.7661 8.37465 66.3386 8.54385C65.9111 8.71302 65.569 8.8822 65.3125 9.13598L64.3718 7.10577Z" fill="black"/>
<path d="M76.6854 9.64342H79.8494V6.25977H82.7567V15.734H79.8494V12.0966H76.6854V15.734H73.7781V6.25977H76.6854V9.64342Z" fill="black"/>
<path d="M76.6854 9.64342H79.8494V6.25977H82.7567V15.734H79.8494V12.0966H76.6854V15.734H73.7781V6.25977H76.6854V9.64342Z" fill="black"/>
<path d="M94.4704 13.1117C94.2139 13.9576 93.4442 14.7189 92.5891 15.2265C91.8196 15.734 90.8789 15.9032 89.7673 15.9032C88.9978 15.9032 88.2281 15.734 87.6296 15.4803C87.031 15.2265 86.4325 14.8881 86.0048 14.3806C85.5773 13.9576 85.2353 13.45 84.9788 12.8579C84.7223 12.2658 84.6367 11.6736 84.6367 10.9969C84.6367 10.3201 84.7223 9.64342 84.9788 9.05129C85.2353 8.45914 85.5773 7.86699 86.0048 7.44404C86.4325 7.02109 86.9455 6.59813 87.6296 6.34436C88.2281 6.09058 88.9978 5.92139 89.8528 5.92139C90.7079 5.92139 91.3919 6.09058 91.9906 6.34436C92.5891 6.59813 93.1877 6.93649 93.6152 7.44404C94.0427 7.86699 94.3849 8.45914 94.6414 8.96669C94.8979 9.55884 94.9834 10.151 94.9834 10.8277C94.9834 10.9969 94.9834 11.1661 94.9834 11.3352C94.9834 11.5044 94.9834 11.6736 94.8979 11.7582H87.8006C87.8861 12.4349 88.0571 12.8579 88.4846 13.1963C88.9123 13.5346 89.4253 13.7038 89.9383 13.7038C90.3658 13.7038 90.7934 13.6192 91.1354 13.3655C91.3919 13.2809 91.5631 13.1117 91.6486 12.9425L94.4704 13.1117ZM91.8196 10.0664C91.7341 9.47424 91.5631 8.96669 91.1354 8.62832C90.7934 8.28996 90.2803 8.12077 89.7673 8.12077C89.1688 8.12077 88.7413 8.28996 88.3136 8.62832C87.9716 8.96669 87.7151 9.47424 87.6296 10.0664H91.8196Z" fill="black"/>
<path d="M94.4704 13.1117C94.2139 13.9576 93.4442 14.7189 92.5891 15.2265C91.8196 15.734 90.8789 15.9032 89.7673 15.9032C88.9978 15.9032 88.2281 15.734 87.6296 15.4803C87.031 15.2265 86.4325 14.8881 86.0048 14.3806C85.5773 13.9576 85.2353 13.45 84.9788 12.8579C84.7223 12.2658 84.6367 11.6736 84.6367 10.9969C84.6367 10.3201 84.7223 9.64342 84.9788 9.05129C85.2353 8.45914 85.5773 7.86699 86.0048 7.44404C86.4325 7.02109 86.9455 6.59813 87.6296 6.34436C88.2281 6.09058 88.9978 5.92139 89.8528 5.92139C90.7079 5.92139 91.3919 6.09058 91.9906 6.34436C92.5891 6.59813 93.1877 6.93649 93.6152 7.44404C94.0427 7.86699 94.3849 8.45914 94.6414 8.96669C94.8979 9.55884 94.9834 10.151 94.9834 10.8277C94.9834 10.9969 94.9834 11.1661 94.9834 11.3352C94.9834 11.5044 94.9834 11.6736 94.8979 11.7582H87.8006C87.8861 12.4349 88.0571 12.8579 88.4846 13.1963C88.9123 13.5346 89.4253 13.7038 89.9383 13.7038C90.3658 13.7038 90.7934 13.6192 91.1354 13.3655C91.3919 13.2809 91.5631 13.1117 91.6486 12.9425L94.4704 13.1117ZM91.8196 10.0664C91.7341 9.47424 91.5631 8.96669 91.1354 8.62832C90.7934 8.28996 90.2803 8.12077 89.7673 8.12077C89.1688 8.12077 88.7413 8.28996 88.3136 8.62832C87.9716 8.96669 87.7151 9.47424 87.6296 10.0664H91.8196Z" fill="black"/>
<path d="M37.1111 24.1086V16.4954L33.3486 13.9576V5.92141L25.4817 0.845917L21.2063 3.97581L14.8786 0L7.43932 5.41386V7.10569L0 12.6042V20.2174L4.27547 23.0089V31.2988L12.1423 36.3743L16.5888 33.16L22.9166 37.2203L30.3558 31.8065V29.2687L37.1111 24.1086ZM8.03788 13.9576V7.86702L14.0235 3.46826V9.64345L8.03788 13.9576ZM14.9641 9.55885V3.38366L21.8049 7.86702V13.7884L14.9641 9.55885ZM8.63644 26.9002L14.8786 22.3321L21.4628 26.5618L15.2207 31.1297L8.63644 26.9002ZM14.3656 15.5649V21.5708L8.29441 26.0542V20.0482L14.3656 15.5649ZM8.29441 14.8035L14.5366 10.3202L21.4628 14.4652L18.641 16.58L14.8786 14.2114L11.3727 16.7491L8.29441 14.8035ZM7.3538 24.0241L1.19713 19.9637L7.52482 15.3957L10.6031 17.2566L7.3538 19.6252V24.0241ZM21.7194 23.4319V25.7159L15.3062 21.5708V15.4803L18.2135 17.3413V21.1478L21.7194 23.4319ZM7.18279 8.45917V14.5498L0.940603 19.0331V13.0271L7.18279 8.45917ZM15.7337 32.5678L12.0568 35.2747L5.47259 31.0452L9.1495 28.3383L15.7337 32.5678ZM29.0732 31.5527L22.8309 36.1207L15.9047 31.6373L22.1469 27.0693L29.0732 31.5527ZM33.3486 21.4017V15.0573L36.2559 17.003V23.0934L33.3486 21.4017ZM25.9094 8.45917V2.19938L32.408 6.42896V12.8579L25.9094 8.45917ZM25.9094 15.6495V9.47427L32.408 13.7884V19.7944L30.8688 18.7794L25.9094 15.6495ZM32.1515 20.725L25.9949 25.2084L19.4106 20.9787L25.4817 16.4954L32.1515 20.725ZM22.5744 24.0241L25.9949 26.2233L29.4152 23.7702V24.6162V30.7914L22.5744 26.3925V24.0241ZM32.237 21.74L35.9139 23.9394L30.3558 28.0844V24.1932V23.0934L32.237 21.74ZM20.4368 4.56794L19.4961 5.24468L15.3062 2.53775V1.26887L20.4368 4.56794Z" fill="black"/>
<path d="M37.1111 24.1086V16.4954L33.3486 13.9576V5.92141L25.4817 0.845917L21.2063 3.97581L14.8786 0L7.43932 5.41386V7.10569L0 12.6042V20.2174L4.27547 23.0089V31.2988L12.1423 36.3743L16.5888 33.16L22.9166 37.2203L30.3558 31.8065V29.2687L37.1111 24.1086ZM8.03788 13.9576V7.86702L14.0235 3.46826V9.64345L8.03788 13.9576ZM14.9641 9.55885V3.38366L21.8049 7.86702V13.7884L14.9641 9.55885ZM8.63644 26.9002L14.8786 22.3321L21.4628 26.5618L15.2207 31.1297L8.63644 26.9002ZM14.3656 15.5649V21.5708L8.29441 26.0542V20.0482L14.3656 15.5649ZM8.29441 14.8035L14.5366 10.3202L21.4628 14.4652L18.641 16.58L14.8786 14.2114L11.3727 16.7491L8.29441 14.8035ZM7.3538 24.0241L1.19713 19.9637L7.52482 15.3957L10.6031 17.2566L7.3538 19.6252V24.0241ZM21.7194 23.4319V25.7159L15.3062 21.5708V15.4803L18.2135 17.3413V21.1478L21.7194 23.4319ZM7.18279 8.45917V14.5498L0.940603 19.0331V13.0271L7.18279 8.45917ZM15.7337 32.5678L12.0568 35.2747L5.47259 31.0452L9.1495 28.3383L15.7337 32.5678ZM29.0732 31.5527L22.8309 36.1207L15.9047 31.6373L22.1469 27.0693L29.0732 31.5527ZM33.3486 21.4017V15.0573L36.2559 17.003V23.0934L33.3486 21.4017ZM25.9094 8.45917V2.19938L32.408 6.42896V12.8579L25.9094 8.45917ZM25.9094 15.6495V9.47427L32.408 13.7884V19.7944L30.8688 18.7794L25.9094 15.6495ZM32.1515 20.725L25.9949 25.2084L19.4106 20.9787L25.4817 16.4954L32.1515 20.725ZM22.5744 24.0241L25.9949 26.2233L29.4152 23.7702V24.6162V30.7914L22.5744 26.3925V24.0241ZM32.237 21.74L35.9139 23.9394L30.3558 28.0844V24.1932V23.0934L32.237 21.74ZM20.4368 4.56794L19.4961 5.24468L15.3062 2.53775V1.26887L20.4368 4.56794Z" fill="black"/>
<path d="M103.706 12.0122C103.62 12.3506 103.449 12.6044 103.278 12.8581C103.107 13.1119 102.851 13.2811 102.594 13.3657C102.338 13.4503 102.081 13.5349 101.739 13.5349C101.141 13.5349 100.628 13.2811 100.2 12.8581C99.7725 12.4352 99.6015 11.7585 99.6015 11.0817C99.6015 10.7434 99.687 10.405 99.7725 10.0666C99.8581 9.72826 100.029 9.47448 100.2 9.3053C100.371 9.05153 100.628 8.88233 100.884 8.79775C101.141 8.71315 101.397 8.62856 101.739 8.62856C102.338 8.62856 102.851 8.88233 103.278 9.3053C103.449 9.55908 103.62 9.81285 103.706 10.1512H106.784C106.699 9.81285 106.613 9.55908 106.528 9.2207C106.271 8.62856 105.929 8.12101 105.502 7.61346C105.074 7.1905 104.561 6.76755 103.877 6.51377C103.278 6.26 102.509 6.09082 101.654 6.09082C100.799 6.09082 100.115 6.26 99.4305 6.51377C98.7464 6.76755 98.2334 7.1905 97.8059 7.61346C97.3784 8.03643 97.0362 8.62856 96.7797 9.2207C96.5232 9.81285 96.4377 10.4896 96.4377 11.0817C96.4377 11.7585 96.5232 12.3506 96.7797 12.9427C97.0362 13.5349 97.3784 14.0424 97.8059 14.55C98.2334 14.9729 98.8319 15.3959 99.4305 15.6497C100.115 15.9034 100.799 16.0726 101.654 16.0726C102.509 16.0726 103.193 15.9034 103.877 15.6497C104.561 15.3959 105.074 15.0575 105.502 14.55C105.929 14.127 106.271 13.5349 106.528 12.9427C106.613 12.6044 106.699 12.3506 106.784 12.0122H103.706Z" fill="black"/>
<path d="M103.706 12.0122C103.62 12.3506 103.449 12.6044 103.278 12.8581C103.107 13.1119 102.851 13.2811 102.594 13.3657C102.338 13.4503 102.081 13.5349 101.739 13.5349C101.141 13.5349 100.628 13.2811 100.2 12.8581C99.7725 12.4352 99.6015 11.7585 99.6015 11.0817C99.6015 10.7434 99.687 10.405 99.7725 10.0666C99.8581 9.72826 100.029 9.47448 100.2 9.3053C100.371 9.05153 100.628 8.88233 100.884 8.79775C101.141 8.71315 101.397 8.62856 101.739 8.62856C102.338 8.62856 102.851 8.88233 103.278 9.3053C103.449 9.55908 103.62 9.81285 103.706 10.1512H106.784C106.699 9.81285 106.613 9.55908 106.528 9.2207C106.271 8.62856 105.929 8.12101 105.502 7.61346C105.074 7.1905 104.561 6.76755 103.877 6.51377C103.278 6.26 102.509 6.09082 101.654 6.09082C100.799 6.09082 100.115 6.26 99.4305 6.51377C98.7464 6.76755 98.2334 7.1905 97.8059 7.61346C97.3784 8.03643 97.0362 8.62856 96.7797 9.2207C96.5232 9.81285 96.4377 10.4896 96.4377 11.0817C96.4377 11.7585 96.5232 12.3506 96.7797 12.9427C97.0362 13.5349 97.3784 14.0424 97.8059 14.55C98.2334 14.9729 98.8319 15.3959 99.4305 15.6497C100.115 15.9034 100.799 16.0726 101.654 16.0726C102.509 16.0726 103.193 15.9034 103.877 15.6497C104.561 15.3959 105.074 15.0575 105.502 14.55C105.929 14.127 106.271 13.5349 106.528 12.9427C106.613 12.6044 106.699 12.3506 106.784 12.0122H103.706Z" fill="black"/>
<path d="M87.9033 29.2691C87.9033 29.3536 87.9033 29.3536 87.9033 29.2691C87.8178 29.6075 87.6468 29.8613 87.4758 30.1149C87.3048 30.3688 87.0483 30.5379 86.7917 30.6226C86.5352 30.7071 86.2787 30.7918 85.9365 30.7918C85.338 30.7918 84.825 30.5379 84.3975 30.1149C83.97 29.6921 83.7989 29.0153 83.7989 28.3385C83.7989 28.0002 83.8844 27.6619 83.97 27.3235C84.0555 26.985 84.2265 26.7314 84.3975 26.5622C84.5685 26.3084 84.825 26.1392 85.0815 26.0546C85.338 25.9701 85.5945 25.8854 85.9365 25.8854C86.5352 25.8854 87.0483 26.1392 87.4758 26.5622C87.6468 26.8159 87.8178 27.0697 87.9033 27.408H90.9816C90.8961 27.0697 90.8106 26.8159 90.7251 26.4776C90.4686 25.8854 90.1266 25.3779 89.6991 24.8703C89.2715 24.4473 88.7585 24.0245 88.0743 23.7706C87.4758 23.5168 86.7062 23.3477 85.851 23.3477C84.996 23.3477 84.312 23.5168 83.6279 23.7706C82.9437 24.0245 82.4307 24.4473 82.0032 24.8703C81.5757 25.2933 81.2337 25.8854 80.9771 26.4776C80.7206 27.0697 80.6351 27.7465 80.6351 28.3385C80.6351 29.0153 80.7206 29.6075 80.9771 30.1996C81.2337 30.7918 81.5757 31.2992 82.0032 31.8069C82.4307 32.2297 83.0292 32.6527 83.6279 32.9065C84.312 33.1603 84.996 33.3295 85.851 33.3295C86.7062 33.3295 87.3903 33.1603 88.0743 32.9065C88.7585 32.6527 89.2715 32.3144 89.6991 31.8069C90.1266 31.3839 90.4686 30.7918 90.7251 30.1996C90.8106 29.8613 90.8961 29.6075 90.9816 29.2691H87.9033Z" fill="black"/>
<path d="M87.9033 29.2691C87.9033 29.3536 87.9033 29.3536 87.9033 29.2691C87.8178 29.6075 87.6468 29.8613 87.4758 30.1149C87.3048 30.3688 87.0483 30.5379 86.7917 30.6226C86.5352 30.7071 86.2787 30.7918 85.9365 30.7918C85.338 30.7918 84.825 30.5379 84.3975 30.1149C83.97 29.6921 83.7989 29.0153 83.7989 28.3385C83.7989 28.0002 83.8844 27.6619 83.97 27.3235C84.0555 26.985 84.2265 26.7314 84.3975 26.5622C84.5685 26.3084 84.825 26.1392 85.0815 26.0546C85.338 25.9701 85.5945 25.8854 85.9365 25.8854C86.5352 25.8854 87.0483 26.1392 87.4758 26.5622C87.6468 26.8159 87.8178 27.0697 87.9033 27.408H90.9816C90.8961 27.0697 90.8106 26.8159 90.7251 26.4776C90.4686 25.8854 90.1266 25.3779 89.6991 24.8703C89.2715 24.4473 88.7585 24.0245 88.0743 23.7706C87.4758 23.5168 86.7062 23.3477 85.851 23.3477C84.996 23.3477 84.312 23.5168 83.6279 23.7706C82.9437 24.0245 82.4307 24.4473 82.0032 24.8703C81.5757 25.2933 81.2337 25.8854 80.9771 26.4776C80.7206 27.0697 80.6351 27.7465 80.6351 28.3385C80.6351 29.0153 80.7206 29.6075 80.9771 30.1996C81.2337 30.7918 81.5757 31.2992 82.0032 31.8069C82.4307 32.2297 83.0292 32.6527 83.6279 32.9065C84.312 33.1603 84.996 33.3295 85.851 33.3295C86.7062 33.3295 87.3903 33.1603 88.0743 32.9065C88.7585 32.6527 89.2715 32.3144 89.6991 31.8069C90.1266 31.3839 90.4686 30.7918 90.7251 30.1996C90.8106 29.8613 90.8961 29.6075 90.9816 29.2691H87.9033Z" fill="black"/>
</g>
<defs>
<clipPath id="clip0_1_8614">
<rect width="167" height="37.3184" fill="white"/>
</clipPath>
</defs>
</svg>
