<svg width="200" height="45" viewBox="0 0 200 45" fill="none" xmlns="http://www.w3.org/2000/svg">
<g clip-path="url(#clip0_2_372)">
<path d="M59.806 30.4991H60.6252L65.131 24.3789H69.1248L63.595 31.8251L69.637 39.8835H65.643L60.9324 33.7633H59.806V39.8835H56.2216V24.3789H59.806V30.4991Z" fill="white"/>
<path d="M59.806 30.4991H60.6252L65.131 24.3789H69.1248L63.595 31.8251L69.637 39.8835H65.643L60.9324 33.7633H59.806V39.8835H56.2216V24.3789H59.806V30.4991Z" fill="white"/>
<path d="M75.6784 40.0876C74.6544 40.0876 73.8352 39.8836 73.0158 39.5775C72.299 39.2716 71.5822 38.8637 71.0702 38.2515C70.5582 37.7415 70.1486 37.0275 69.8412 36.3134C69.534 35.5994 69.4316 34.8853 69.4316 34.0694C69.4316 33.2533 69.534 32.5393 69.8412 31.8252C70.1486 31.1114 70.5582 30.4992 71.0702 29.8873C71.5822 29.3773 72.1966 28.8672 73.0158 28.5611C73.7328 28.2553 74.6544 28.0513 75.6784 28.0513C76.7026 28.0513 77.5218 28.2553 78.2386 28.5611C78.9554 28.8672 79.6724 29.2752 80.1844 29.8873C80.6964 30.3974 81.106 31.1114 81.4132 31.8252C81.7204 32.5393 81.8228 33.2533 81.8228 34.0694C81.8228 34.8853 81.7204 35.5994 81.4132 36.3134C81.106 37.0275 80.6964 37.6396 80.1844 38.2515C79.6724 38.7616 79.0578 39.2716 78.2386 39.5775C77.5218 39.8836 76.6002 40.0876 75.6784 40.0876ZM73.1182 34.1713C73.1182 35.0895 73.3232 35.8036 73.8352 36.3134C74.3472 36.8235 74.9616 37.1295 75.6784 37.1295C76.088 37.1295 76.3952 37.0275 76.7026 36.9256C77.0098 36.8235 77.317 36.6195 77.5218 36.3134C77.7266 36.0075 77.9314 35.7015 78.0338 35.3954C78.1362 34.9874 78.2386 34.5795 78.2386 34.1713C78.2386 33.2533 78.0338 32.5393 77.5218 32.0294C77.0098 31.5194 76.3952 31.2133 75.6784 31.2133C75.2688 31.2133 74.9616 31.3154 74.6544 31.4173C74.3472 31.5194 74.04 31.7233 73.8352 32.0294C73.6304 32.3353 73.4256 32.6414 73.3232 32.9474C73.1182 33.2533 73.1182 33.6615 73.1182 34.1713Z" fill="white"/>
<path d="M75.6784 40.0876C74.6544 40.0876 73.8352 39.8836 73.0158 39.5775C72.299 39.2716 71.5822 38.8637 71.0702 38.2515C70.5582 37.7415 70.1486 37.0275 69.8412 36.3134C69.534 35.5994 69.4316 34.8853 69.4316 34.0694C69.4316 33.2533 69.534 32.5393 69.8412 31.8252C70.1486 31.1114 70.5582 30.4992 71.0702 29.8873C71.5822 29.3773 72.1966 28.8672 73.0158 28.5611C73.7328 28.2553 74.6544 28.0513 75.6784 28.0513C76.7026 28.0513 77.5218 28.2553 78.2386 28.5611C78.9554 28.8672 79.6724 29.2752 80.1844 29.8873C80.6964 30.3974 81.106 31.1114 81.4132 31.8252C81.7204 32.5393 81.8228 33.2533 81.8228 34.0694C81.8228 34.8853 81.7204 35.5994 81.4132 36.3134C81.106 37.0275 80.6964 37.6396 80.1844 38.2515C79.6724 38.7616 79.0578 39.2716 78.2386 39.5775C77.5218 39.8836 76.6002 40.0876 75.6784 40.0876ZM73.1182 34.1713C73.1182 35.0895 73.3232 35.8036 73.8352 36.3134C74.3472 36.8235 74.9616 37.1295 75.6784 37.1295C76.088 37.1295 76.3952 37.0275 76.7026 36.9256C77.0098 36.8235 77.317 36.6195 77.5218 36.3134C77.7266 36.0075 77.9314 35.7015 78.0338 35.3954C78.1362 34.9874 78.2386 34.5795 78.2386 34.1713C78.2386 33.2533 78.0338 32.5393 77.5218 32.0294C77.0098 31.5194 76.3952 31.2133 75.6784 31.2133C75.2688 31.2133 74.9616 31.3154 74.6544 31.4173C74.3472 31.5194 74.04 31.7233 73.8352 32.0294C73.6304 32.3353 73.4256 32.6414 73.3232 32.9474C73.1182 33.2533 73.1182 33.6615 73.1182 34.1713Z" fill="white"/>
<path d="M134.459 31.723C134.152 31.0089 133.845 30.397 133.333 29.8869C132.821 29.3769 132.309 28.9689 131.694 28.6628C131.08 28.357 130.363 28.2549 129.544 28.2549C128.622 28.2549 127.905 28.4589 127.291 28.7649C126.881 28.9689 126.472 29.275 126.164 29.683V28.4589H122.683V44.5756H126.164V38.0472C126.472 38.6593 126.984 39.1694 127.701 39.5773C128.315 39.9853 129.134 40.0874 129.953 40.0874C130.67 40.0874 131.285 39.9853 131.899 39.6792C132.514 39.3734 133.026 38.9652 133.435 38.4553C133.845 37.9453 134.255 37.3332 134.459 36.6191C134.664 35.9051 134.869 35.0892 134.869 34.273C134.869 33.2531 134.767 32.437 134.459 31.723ZM131.387 35.2931C131.285 35.7011 131.08 36.0072 130.875 36.2112C130.67 36.5172 130.363 36.7212 130.056 36.8233C129.749 36.9252 129.441 37.0273 129.032 37.0273C128.315 37.0273 127.701 36.7212 127.188 36.2112C126.676 35.7011 126.472 34.9871 126.472 34.0691C126.472 33.6611 126.574 33.2531 126.676 32.8452C126.779 32.437 126.984 32.1311 127.188 31.9269C127.393 31.6211 127.701 31.4171 128.008 31.315C128.315 31.2129 128.622 31.111 129.032 31.111C129.749 31.111 130.363 31.4171 130.875 31.9269C131.387 32.437 131.592 33.151 131.592 34.0691C131.592 34.5791 131.49 34.9871 131.387 35.2931Z" fill="white"/>
<path d="M134.459 31.723C134.152 31.0089 133.845 30.397 133.333 29.8869C132.821 29.3769 132.309 28.9689 131.694 28.6628C131.08 28.357 130.363 28.2549 129.544 28.2549C128.622 28.2549 127.905 28.4589 127.291 28.7649C126.881 28.9689 126.472 29.275 126.164 29.683V28.4589H122.683V44.5756H126.164V38.0472C126.472 38.6593 126.984 39.1694 127.701 39.5773C128.315 39.9853 129.134 40.0874 129.953 40.0874C130.67 40.0874 131.285 39.9853 131.899 39.6792C132.514 39.3734 133.026 38.9652 133.435 38.4553C133.845 37.9453 134.255 37.3332 134.459 36.6191C134.664 35.9051 134.869 35.0892 134.869 34.273C134.869 33.2531 134.767 32.437 134.459 31.723ZM131.387 35.2931C131.285 35.7011 131.08 36.0072 130.875 36.2112C130.67 36.5172 130.363 36.7212 130.056 36.8233C129.749 36.9252 129.441 37.0273 129.032 37.0273C128.315 37.0273 127.701 36.7212 127.188 36.2112C126.676 35.7011 126.472 34.9871 126.472 34.0691C126.472 33.6611 126.574 33.2531 126.676 32.8452C126.779 32.437 126.984 32.1311 127.188 31.9269C127.393 31.6211 127.701 31.4171 128.008 31.315C128.315 31.2129 128.622 31.111 129.032 31.111C129.749 31.111 130.363 31.4171 130.875 31.9269C131.387 32.437 131.592 33.151 131.592 34.0691C131.592 34.5791 131.49 34.9871 131.387 35.2931Z" fill="white"/>
<path d="M199.59 31.7227C199.283 31.0087 198.976 30.3967 198.464 29.8867C197.952 29.3766 197.44 28.9687 196.825 28.6626C196.211 28.3567 195.494 28.2546 194.675 28.2546C193.753 28.2546 193.036 28.4586 192.422 28.7647C192.012 28.9687 191.603 29.2747 191.295 29.6827V28.4586H187.814V44.5753H191.295V38.0469C191.603 38.6591 192.115 39.1691 192.832 39.5771C193.446 39.9851 194.265 40.0872 195.085 40.0872C195.801 40.0872 196.416 39.9851 197.03 39.679C197.645 39.3731 198.157 38.965 198.566 38.4551C198.976 37.9451 199.386 37.3329 199.59 36.6189C199.795 35.9048 200 35.0889 200 34.2728C200 33.2529 199.898 32.4368 199.59 31.7227ZM196.518 35.2929C196.416 35.7009 196.211 36.0069 196.006 36.2109C195.801 36.517 195.494 36.721 195.187 36.8231C194.88 36.9249 194.572 37.027 194.163 37.027C193.446 37.027 192.832 36.721 192.32 36.2109C191.808 35.7009 191.603 34.9868 191.603 34.0688C191.603 33.6608 191.705 33.2529 191.808 32.8449C191.91 32.4368 192.115 32.1309 192.32 31.9267C192.524 31.6208 192.832 31.4168 193.139 31.3148C193.446 31.2127 193.753 31.1108 194.163 31.1108C194.88 31.1108 195.494 31.4169 196.006 31.9267C196.518 32.4368 196.723 33.1508 196.723 34.0688C196.723 34.5789 196.621 34.9868 196.518 35.2929Z" fill="white"/>
<path d="M199.59 31.7227C199.283 31.0087 198.976 30.3967 198.464 29.8867C197.952 29.3766 197.44 28.9687 196.825 28.6626C196.211 28.3567 195.494 28.2546 194.675 28.2546C193.753 28.2546 193.036 28.4586 192.422 28.7647C192.012 28.9687 191.603 29.2747 191.295 29.6827V28.4586H187.814V44.5753H191.295V38.0469C191.603 38.6591 192.115 39.1691 192.832 39.5771C193.446 39.9851 194.265 40.0872 195.085 40.0872C195.801 40.0872 196.416 39.9851 197.03 39.679C197.645 39.3731 198.157 38.965 198.566 38.4551C198.976 37.9451 199.386 37.3329 199.59 36.6189C199.795 35.9048 200 35.0889 200 34.2728C200 33.2529 199.898 32.4368 199.59 31.7227ZM196.518 35.2929C196.416 35.7009 196.211 36.0069 196.006 36.2109C195.801 36.517 195.494 36.721 195.187 36.8231C194.88 36.9249 194.572 37.027 194.163 37.027C193.446 37.027 192.832 36.721 192.32 36.2109C191.808 35.7009 191.603 34.9868 191.603 34.0688C191.603 33.6608 191.705 33.2529 191.808 32.8449C191.91 32.4368 192.115 32.1309 192.32 31.9267C192.524 31.6208 192.832 31.4168 193.139 31.3148C193.446 31.2127 193.753 31.1108 194.163 31.1108C194.88 31.1108 195.494 31.4169 196.006 31.9267C196.518 32.4368 196.723 33.1508 196.723 34.0688C196.723 34.5789 196.621 34.9868 196.518 35.2929Z" fill="white"/>
<path d="M87.4554 32.4372H91.3468V28.3569H94.8286V39.8834H91.3468V35.4973H87.4554V39.8834H83.9736V28.3569H87.4554V32.4372Z" fill="white"/>
<path d="M87.4554 32.4372H91.3468V28.3569H94.8286V39.8834H91.3468V35.4973H87.4554V39.8834H83.9736V28.3569H87.4554V32.4372Z" fill="white"/>
<path d="M117.153 39.8834H113.671V31.4171H110.189V28.3569H120.532V31.4171H117.153V39.8834Z" fill="white"/>
<path d="M117.153 39.8834H113.671V31.4171H110.189V28.3569H120.532V31.4171H117.153V39.8834Z" fill="white"/>
<path d="M137.327 41.5156C137.532 41.6175 137.839 41.7196 138.044 41.7196C138.248 41.7196 138.453 41.8215 138.658 41.8215C138.965 41.8215 139.272 41.7196 139.477 41.4135C139.682 41.1074 140.092 40.5974 139.989 39.8833C139.887 39.1695 135.586 28.459 135.586 28.459H139.272L141.833 36.1094L144.086 28.459H147.465L143.266 41.3114C142.857 42.5355 142.345 43.4535 141.628 44.0657C140.911 44.6776 140.092 44.9837 139.068 44.9837C138.76 44.9837 138.453 44.9837 138.248 44.8816C137.941 44.7797 137.736 44.7797 137.429 44.6776V41.5156H137.327Z" fill="white"/>
<path d="M137.327 41.5156C137.532 41.6175 137.839 41.7196 138.044 41.7196C138.248 41.7196 138.453 41.8215 138.658 41.8215C138.965 41.8215 139.272 41.7196 139.477 41.4135C139.682 41.1074 140.092 40.5974 139.989 39.8833C139.887 39.1695 135.586 28.459 135.586 28.459H139.272L141.833 36.1094L144.086 28.459H147.465L143.266 41.3114C142.857 42.5355 142.345 43.4535 141.628 44.0657C140.911 44.6776 140.092 44.9837 139.068 44.9837C138.76 44.9837 138.453 44.9837 138.248 44.8816C137.941 44.7797 137.736 44.7797 137.429 44.6776V41.5156H137.327Z" fill="white"/>
<path d="M156.476 28.3569H160.265L155.759 33.9671L160.675 39.8834H156.578L153.301 35.8034H152.789V39.8834H149.308V28.3569H152.789V32.6411H153.199L156.476 28.3569Z" fill="white"/>
<path d="M156.476 28.3569H160.265L155.759 33.9671L160.675 39.8834H156.578L153.301 35.8034H152.789V39.8834H149.308V28.3569H152.789V32.6411H153.199L156.476 28.3569Z" fill="white"/>
<path d="M168.765 39.8834H165.284V31.4171H161.802V28.3569H172.145V31.4171H168.765V39.8834Z" fill="white"/>
<path d="M168.765 39.8834H165.284V31.4171H161.802V28.3569H172.145V31.4171H168.765V39.8834Z" fill="white"/>
<path d="M179.518 40.0876C178.494 40.0876 177.675 39.8836 176.856 39.5775C176.139 39.2716 175.422 38.8637 174.91 38.2515C174.398 37.7415 173.988 37.0275 173.681 36.3134C173.374 35.5994 173.271 34.8853 173.271 34.0694C173.271 33.2533 173.374 32.5393 173.681 31.8252C173.988 31.1114 174.398 30.4992 174.91 29.8873C175.422 29.3773 176.036 28.8672 176.856 28.5611C177.572 28.2553 178.494 28.0513 179.518 28.0513C180.542 28.0513 181.361 28.2553 182.078 28.5611C182.795 28.8672 183.512 29.2752 184.024 29.8873C184.536 30.3974 184.946 31.1114 185.253 31.8252C185.56 32.5393 185.662 33.2533 185.662 34.0694C185.662 34.8853 185.56 35.5994 185.253 36.3134C184.946 37.0275 184.536 37.6396 184.024 38.2515C183.512 38.7616 182.898 39.2716 182.078 39.5775C181.361 39.8836 180.44 40.0876 179.518 40.0876ZM176.958 34.1713C176.958 35.0895 177.163 35.8036 177.675 36.3134C178.187 36.8235 178.801 37.1295 179.518 37.1295C179.928 37.1295 180.235 37.0275 180.542 36.9256C180.849 36.8235 181.157 36.6195 181.361 36.3134C181.566 36.0075 181.771 35.7015 181.873 35.3954C181.976 34.9874 182.078 34.5795 182.078 34.1713C182.078 33.2533 181.873 32.5393 181.361 32.0294C180.849 31.5194 180.235 31.2133 179.518 31.2133C179.108 31.2133 178.801 31.3154 178.494 31.4173C178.187 31.5194 177.88 31.7233 177.675 32.0294C177.47 32.3353 177.265 32.6414 177.163 32.9474C176.958 33.2533 176.958 33.6615 176.958 34.1713Z" fill="white"/>
<path d="M179.518 40.0876C178.494 40.0876 177.675 39.8836 176.856 39.5775C176.139 39.2716 175.422 38.8637 174.91 38.2515C174.398 37.7415 173.988 37.0275 173.681 36.3134C173.374 35.5994 173.271 34.8853 173.271 34.0694C173.271 33.2533 173.374 32.5393 173.681 31.8252C173.988 31.1114 174.398 30.4992 174.91 29.8873C175.422 29.3773 176.036 28.8672 176.856 28.5611C177.572 28.2553 178.494 28.0513 179.518 28.0513C180.542 28.0513 181.361 28.2553 182.078 28.5611C182.795 28.8672 183.512 29.2752 184.024 29.8873C184.536 30.3974 184.946 31.1114 185.253 31.8252C185.56 32.5393 185.662 33.2533 185.662 34.0694C185.662 34.8853 185.56 35.5994 185.253 36.3134C184.946 37.0275 184.536 37.6396 184.024 38.2515C183.512 38.7616 182.898 39.2716 182.078 39.5775C181.361 39.8836 180.44 40.0876 179.518 40.0876ZM176.958 34.1713C176.958 35.0895 177.163 35.8036 177.675 36.3134C178.187 36.8235 178.801 37.1295 179.518 37.1295C179.928 37.1295 180.235 37.0275 180.542 36.9256C180.849 36.8235 181.157 36.6195 181.361 36.3134C181.566 36.0075 181.771 35.7015 181.873 35.3954C181.976 34.9874 182.078 34.5795 182.078 34.1713C182.078 33.2533 181.873 32.5393 181.361 32.0294C180.849 31.5194 180.235 31.2133 179.518 31.2133C179.108 31.2133 178.801 31.3154 178.494 31.4173C178.187 31.5194 177.88 31.7233 177.675 32.0294C177.47 32.3353 177.265 32.6414 177.163 32.9474C176.958 33.2533 176.958 33.6615 176.958 34.1713Z" fill="white"/>
<path d="M56.2216 3.46802H67.896V6.63013H59.9084V9.58824H63.6974C65.3358 9.58824 66.6672 9.99626 67.5888 10.8123C68.5104 11.6283 69.0224 12.7504 69.0224 14.1784C69.0224 15.7085 68.6128 16.8305 67.6912 17.6465C66.7696 18.4626 65.5406 18.8706 63.9022 18.8706H56.324V3.46802H56.2216ZM63.2878 15.9125C63.9022 15.9125 64.4142 15.7085 64.7214 15.4025C65.0286 15.0965 65.2334 14.6884 65.2334 14.0764C65.2334 13.5664 65.0286 13.1584 64.7214 12.8524C64.4142 12.5463 63.9022 12.3423 63.2878 12.3423H59.806V15.8105H63.2878V15.9125Z" fill="white"/>
<path d="M56.2216 3.46802H67.896V6.63013H59.9084V9.58824H63.6974C65.3358 9.58824 66.6672 9.99626 67.5888 10.8123C68.5104 11.6283 69.0224 12.7504 69.0224 14.1784C69.0224 15.7085 68.6128 16.8305 67.6912 17.6465C66.7696 18.4626 65.5406 18.8706 63.9022 18.8706H56.324V3.46802H56.2216ZM63.2878 15.9125C63.9022 15.9125 64.4142 15.7085 64.7214 15.4025C65.0286 15.0965 65.2334 14.6884 65.2334 14.0764C65.2334 13.5664 65.0286 13.1584 64.7214 12.8524C64.4142 12.5463 63.9022 12.3423 63.2878 12.3423H59.806V15.8105H63.2878V15.9125Z" fill="white"/>
<path d="M71.1797 18.9775V7.47418H74.6629V18.9775H71.1797ZM71.1797 6.03941V2.8623H74.6629V6.03941H71.1797Z" fill="white"/>
<path d="M77.092 8.56837C77.7064 8.05836 78.4234 7.65035 79.2426 7.44633C79.9594 7.24233 80.7786 7.03833 81.4956 7.03833C82.0076 7.03833 82.5196 7.14032 83.0316 7.24233C83.5436 7.34434 83.9532 7.54834 84.3628 7.85436C84.7726 8.05836 85.0798 8.46638 85.2846 8.87438C85.4894 9.2824 85.5918 9.69043 85.5918 10.3025C85.5918 10.9145 85.387 11.4245 85.0798 11.9345C84.7726 12.4445 84.2604 12.7505 83.646 12.8525C84.4652 13.0565 85.0798 13.4646 85.4894 13.9746C85.899 14.4846 86.1038 15.0966 86.1038 15.9127C86.1038 16.4227 86.0014 16.9327 85.6942 17.3407C85.4894 17.7487 85.0798 18.1567 84.6702 18.4627C84.2604 18.7688 83.7484 18.9728 83.134 19.1768C82.5196 19.3808 81.9052 19.4828 81.2906 19.4828C80.2666 19.4828 79.4474 19.3808 78.5258 19.0748C77.7064 18.7688 77.092 18.3608 76.58 17.8507L78.2186 15.6066C78.4234 15.9127 78.833 16.1167 79.2426 16.3207C79.6522 16.5247 80.1642 16.6267 80.6762 16.6267C81.2906 16.6267 81.7004 16.5247 82.0076 16.3207C82.3148 16.1167 82.5196 15.8106 82.5196 15.4026C82.5196 14.9946 82.3148 14.6886 82.0076 14.3826C81.7004 14.1786 81.0858 14.0766 80.1642 14.0766H79.1402V12.2405H80.0618C80.7786 12.2405 81.2906 12.1385 81.598 11.8325C81.9052 11.6285 82.11 11.2205 82.11 10.9145C82.11 10.6085 82.0076 10.3025 81.7004 10.2004C81.4956 9.99644 81.0858 9.99644 80.7786 9.99644C80.369 9.99644 79.9594 10.0984 79.4474 10.3025C78.9354 10.5065 78.5258 10.7105 78.2186 11.0165L77.092 8.56837Z" fill="white"/>
<path d="M77.092 8.56837C77.7064 8.05836 78.4234 7.65035 79.2426 7.44633C79.9594 7.24233 80.7786 7.03833 81.4956 7.03833C82.0076 7.03833 82.5196 7.14032 83.0316 7.24233C83.5436 7.34434 83.9532 7.54834 84.3628 7.85436C84.7726 8.05836 85.0798 8.46638 85.2846 8.87438C85.4894 9.2824 85.5918 9.69043 85.5918 10.3025C85.5918 10.9145 85.387 11.4245 85.0798 11.9345C84.7726 12.4445 84.2604 12.7505 83.646 12.8525C84.4652 13.0565 85.0798 13.4646 85.4894 13.9746C85.899 14.4846 86.1038 15.0966 86.1038 15.9127C86.1038 16.4227 86.0014 16.9327 85.6942 17.3407C85.4894 17.7487 85.0798 18.1567 84.6702 18.4627C84.2604 18.7688 83.7484 18.9728 83.134 19.1768C82.5196 19.3808 81.9052 19.4828 81.2906 19.4828C80.2666 19.4828 79.4474 19.3808 78.5258 19.0748C77.7064 18.7688 77.092 18.3608 76.58 17.8507L78.2186 15.6066C78.4234 15.9127 78.833 16.1167 79.2426 16.3207C79.6522 16.5247 80.1642 16.6267 80.6762 16.6267C81.2906 16.6267 81.7004 16.5247 82.0076 16.3207C82.3148 16.1167 82.5196 15.8106 82.5196 15.4026C82.5196 14.9946 82.3148 14.6886 82.0076 14.3826C81.7004 14.1786 81.0858 14.0766 80.1642 14.0766H79.1402V12.2405H80.0618C80.7786 12.2405 81.2906 12.1385 81.598 11.8325C81.9052 11.6285 82.11 11.2205 82.11 10.9145C82.11 10.6085 82.0076 10.3025 81.7004 10.2004C81.4956 9.99644 81.0858 9.99644 80.7786 9.99644C80.369 9.99644 79.9594 10.0984 79.4474 10.3025C78.9354 10.5065 78.5258 10.7105 78.2186 11.0165L77.092 8.56837Z" fill="white"/>
<path d="M91.8392 11.6285H95.6284V7.54834H99.1102V18.9728H95.6284V14.5866H91.8392V18.9728H88.3574V7.54834H91.8392V11.6285Z" fill="white"/>
<path d="M91.8392 11.6285H95.6284V7.54834H99.1102V18.9728H95.6284V14.5866H91.8392V18.9728H88.3574V7.54834H91.8392V11.6285Z" fill="white"/>
<path d="M113.138 15.8105C112.831 16.8305 111.909 17.7485 110.885 18.3606C109.964 18.9726 108.837 19.1766 107.506 19.1766C106.584 19.1766 105.662 18.9726 104.946 18.6666C104.229 18.3606 103.512 17.9525 103 17.3405C102.488 16.8305 102.078 16.2185 101.771 15.5045C101.464 14.7904 101.361 14.0764 101.361 13.2604C101.361 12.4443 101.464 11.6283 101.771 10.9143C102.078 10.2003 102.488 9.48622 103 8.97621C103.512 8.4662 104.126 7.95618 104.946 7.65017C105.662 7.34416 106.584 7.14014 107.608 7.14014C108.632 7.14014 109.451 7.34416 110.168 7.65017C110.885 7.95618 111.602 8.36418 112.114 8.97621C112.626 9.48622 113.036 10.2003 113.343 10.8123C113.65 11.5263 113.753 12.2403 113.753 13.0564C113.753 13.2604 113.753 13.4644 113.753 13.6684C113.753 13.8724 113.753 14.0764 113.65 14.1784H105.15C105.253 14.9944 105.458 15.5045 105.97 15.9125C106.482 16.3205 107.096 16.5245 107.711 16.5245C108.223 16.5245 108.735 16.4225 109.144 16.1165C109.451 16.0145 109.656 15.8105 109.759 15.6065L113.138 15.8105ZM109.964 12.1383C109.861 11.4243 109.656 10.8123 109.144 10.4043C108.735 9.99626 108.12 9.79223 107.506 9.79223C106.789 9.79223 106.277 9.99626 105.765 10.4043C105.355 10.8123 105.048 11.4243 104.946 12.1383H109.964Z" fill="white"/>
<path d="M113.138 15.8105C112.831 16.8305 111.909 17.7485 110.885 18.3606C109.964 18.9726 108.837 19.1766 107.506 19.1766C106.584 19.1766 105.662 18.9726 104.946 18.6666C104.229 18.3606 103.512 17.9525 103 17.3405C102.488 16.8305 102.078 16.2185 101.771 15.5045C101.464 14.7904 101.361 14.0764 101.361 13.2604C101.361 12.4443 101.464 11.6283 101.771 10.9143C102.078 10.2003 102.488 9.48622 103 8.97621C103.512 8.4662 104.126 7.95618 104.946 7.65017C105.662 7.34416 106.584 7.14014 107.608 7.14014C108.632 7.14014 109.451 7.34416 110.168 7.65017C110.885 7.95618 111.602 8.36418 112.114 8.97621C112.626 9.48622 113.036 10.2003 113.343 10.8123C113.65 11.5263 113.753 12.2403 113.753 13.0564C113.753 13.2604 113.753 13.4644 113.753 13.6684C113.753 13.8724 113.753 14.0764 113.65 14.1784H105.15C105.253 14.9944 105.458 15.5045 105.97 15.9125C106.482 16.3205 107.096 16.5245 107.711 16.5245C108.223 16.5245 108.735 16.4225 109.144 16.1165C109.451 16.0145 109.656 15.8105 109.759 15.6065L113.138 15.8105ZM109.964 12.1383C109.861 11.4243 109.656 10.8123 109.144 10.4043C108.735 9.99626 108.12 9.79223 107.506 9.79223C106.789 9.79223 106.277 9.99626 105.765 10.4043C105.355 10.8123 105.048 11.4243 104.946 12.1383H109.964Z" fill="white"/>
<path d="M44.4444 29.071V19.8907L39.9384 16.8306V7.14027L30.517 1.02004L25.3968 4.79418L17.8187 0L8.90936 6.52824V8.56832L0 15.1986V24.3789L5.12032 27.7451V37.7413L14.5417 43.8616L19.8668 39.9855L27.445 44.8817L36.3542 38.3535V35.2934L44.4444 29.071ZM9.6262 16.8306V9.48635L16.7946 4.18216V11.6284L9.6262 16.8306ZM17.9211 11.5264V4.08015L26.1136 9.48635V16.6266L17.9211 11.5264ZM10.343 32.4372L17.8187 26.9289L25.704 32.0293L18.2283 37.5374L10.343 32.4372ZM17.2043 18.7687V26.0109L9.93342 31.4171V24.1749L17.2043 18.7687ZM9.93342 17.8507L17.4091 12.4445L25.704 17.4426L22.3246 19.9928L17.8187 17.1366L13.62 20.1968L9.93342 17.8507ZM8.80694 28.9692L1.43369 24.073L9.01176 18.5647L12.6984 20.8087L8.80694 23.6648V28.9692ZM26.0112 28.2551V31.0092L18.3307 26.0109V18.6667L21.8126 20.9108V25.5009L26.0112 28.2551ZM8.60214 10.2004V17.5447L1.12647 22.9508V15.7086L8.60214 10.2004ZM18.8428 39.2715L14.4393 42.5356L6.554 37.4355L10.9575 34.1714L18.8428 39.2715ZM34.8182 38.0474L27.3424 43.5557L19.0476 38.1495L26.5232 32.6412L34.8182 38.0474ZM39.9384 25.8069V18.1567L43.4202 20.5028V27.847L39.9384 25.8069ZM31.0292 10.2004V2.6521L38.812 7.75229V15.5046L31.0292 10.2004ZM31.0292 18.8707V11.4244L38.812 16.6266V23.8688L36.9686 22.6449L31.0292 18.8707ZM38.5048 24.991L31.1316 30.3972L23.2462 25.2969L30.517 19.8907L38.5048 24.991ZM27.0352 28.9692L31.1316 31.6211L35.2278 28.6631V29.6832V37.1294L27.0352 31.8251V28.9692ZM38.6072 26.2149L43.0106 28.8671L36.3542 33.8653V29.1731V27.847L38.6072 26.2149ZM24.4752 5.5082L23.3486 6.32424L18.3307 3.06012V1.53006L24.4752 5.5082Z" fill="white"/>
<path d="M44.4444 29.071V19.8907L39.9384 16.8306V7.14027L30.517 1.02004L25.3968 4.79418L17.8187 0L8.90936 6.52824V8.56832L0 15.1986V24.3789L5.12032 27.7451V37.7413L14.5417 43.8616L19.8668 39.9855L27.445 44.8817L36.3542 38.3535V35.2934L44.4444 29.071ZM9.6262 16.8306V9.48635L16.7946 4.18216V11.6284L9.6262 16.8306ZM17.9211 11.5264V4.08015L26.1136 9.48635V16.6266L17.9211 11.5264ZM10.343 32.4372L17.8187 26.9289L25.704 32.0293L18.2283 37.5374L10.343 32.4372ZM17.2043 18.7687V26.0109L9.93342 31.4171V24.1749L17.2043 18.7687ZM9.93342 17.8507L17.4091 12.4445L25.704 17.4426L22.3246 19.9928L17.8187 17.1366L13.62 20.1968L9.93342 17.8507ZM8.80694 28.9692L1.43369 24.073L9.01176 18.5647L12.6984 20.8087L8.80694 23.6648V28.9692ZM26.0112 28.2551V31.0092L18.3307 26.0109V18.6667L21.8126 20.9108V25.5009L26.0112 28.2551ZM8.60214 10.2004V17.5447L1.12647 22.9508V15.7086L8.60214 10.2004ZM18.8428 39.2715L14.4393 42.5356L6.554 37.4355L10.9575 34.1714L18.8428 39.2715ZM34.8182 38.0474L27.3424 43.5557L19.0476 38.1495L26.5232 32.6412L34.8182 38.0474ZM39.9384 25.8069V18.1567L43.4202 20.5028V27.847L39.9384 25.8069ZM31.0292 10.2004V2.6521L38.812 7.75229V15.5046L31.0292 10.2004ZM31.0292 18.8707V11.4244L38.812 16.6266V23.8688L36.9686 22.6449L31.0292 18.8707ZM38.5048 24.991L31.1316 30.3972L23.2462 25.2969L30.517 19.8907L38.5048 24.991ZM27.0352 28.9692L31.1316 31.6211L35.2278 28.6631V29.6832V37.1294L27.0352 31.8251V28.9692ZM38.6072 26.2149L43.0106 28.8671L36.3542 33.8653V29.1731V27.847L38.6072 26.2149ZM24.4752 5.5082L23.3486 6.32424L18.3307 3.06012V1.53006L24.4752 5.5082Z" fill="white"/>
<path d="M124.199 14.4845C124.096 14.8925 123.892 15.1985 123.687 15.5045C123.482 15.8105 123.175 16.0145 122.868 16.1166C122.56 16.2186 122.253 16.3206 121.843 16.3206C121.127 16.3206 120.512 16.0145 120 15.5045C119.488 14.9945 119.283 14.1785 119.283 13.3624C119.283 12.9544 119.386 12.5464 119.488 12.1384C119.591 11.7304 119.795 11.4244 120 11.2204C120.205 10.9144 120.512 10.7104 120.819 10.6084C121.127 10.5063 121.434 10.4043 121.843 10.4043C122.56 10.4043 123.175 10.7104 123.687 11.2204C123.892 11.5264 124.096 11.8324 124.199 12.2404H127.885C127.783 11.8324 127.681 11.5264 127.578 11.1184C127.271 10.4043 126.861 9.79231 126.349 9.18029C125.837 8.67028 125.223 8.16026 124.404 7.85425C123.687 7.54824 122.765 7.34424 121.741 7.34424C120.717 7.34424 119.898 7.54824 119.078 7.85425C118.259 8.16026 117.645 8.67028 117.133 9.18029C116.621 9.69032 116.211 10.4043 115.904 11.1184C115.597 11.8324 115.494 12.6484 115.494 13.3624C115.494 14.1785 115.597 14.8925 115.904 15.6065C116.211 16.3206 116.621 16.9326 117.133 17.5446C117.645 18.0546 118.362 18.5647 119.078 18.8707C119.898 19.1767 120.717 19.3807 121.741 19.3807C122.765 19.3807 123.584 19.1767 124.404 18.8707C125.223 18.5647 125.837 18.1566 126.349 17.5446C126.861 17.0346 127.271 16.3206 127.578 15.6065C127.681 15.1985 127.783 14.8925 127.885 14.4845H124.199Z" fill="white"/>
<path d="M124.199 14.4845C124.096 14.8925 123.892 15.1985 123.687 15.5045C123.482 15.8105 123.175 16.0145 122.868 16.1166C122.56 16.2186 122.253 16.3206 121.843 16.3206C121.127 16.3206 120.512 16.0145 120 15.5045C119.488 14.9945 119.283 14.1785 119.283 13.3624C119.283 12.9544 119.386 12.5464 119.488 12.1384C119.591 11.7304 119.795 11.4244 120 11.2204C120.205 10.9144 120.512 10.7104 120.819 10.6084C121.127 10.5063 121.434 10.4043 121.843 10.4043C122.56 10.4043 123.175 10.7104 123.687 11.2204C123.892 11.5264 124.096 11.8324 124.199 12.2404H127.885C127.783 11.8324 127.681 11.5264 127.578 11.1184C127.271 10.4043 126.861 9.79231 126.349 9.18029C125.837 8.67028 125.223 8.16026 124.404 7.85425C123.687 7.54824 122.765 7.34424 121.741 7.34424C120.717 7.34424 119.898 7.54824 119.078 7.85425C118.259 8.16026 117.645 8.67028 117.133 9.18029C116.621 9.69032 116.211 10.4043 115.904 11.1184C115.597 11.8324 115.494 12.6484 115.494 13.3624C115.494 14.1785 115.597 14.8925 115.904 15.6065C116.211 16.3206 116.621 16.9326 117.133 17.5446C117.645 18.0546 118.362 18.5647 119.078 18.8707C119.898 19.1767 120.717 19.3807 121.741 19.3807C122.765 19.3807 123.584 19.1767 124.404 18.8707C125.223 18.5647 125.837 18.1566 126.349 17.5446C126.861 17.0346 127.271 16.3206 127.578 15.6065C127.681 15.1985 127.783 14.8925 127.885 14.4845H124.199Z" fill="white"/>
<path d="M105.274 35.2937C105.274 35.3956 105.274 35.3956 105.274 35.2937C105.171 35.7016 104.967 36.0077 104.762 36.3136C104.557 36.6196 104.25 36.8236 103.943 36.9257C103.635 37.0276 103.328 37.1297 102.918 37.1297C102.202 37.1297 101.587 36.8236 101.075 36.3136C100.563 35.8037 100.358 34.9876 100.358 34.1715C100.358 33.7635 100.461 33.3555 100.563 32.9476C100.666 32.5394 100.87 32.2335 101.075 32.0296C101.28 31.7235 101.587 31.5195 101.894 31.4174C102.202 31.3155 102.509 31.2134 102.918 31.2134C103.635 31.2134 104.25 31.5195 104.762 32.0296C104.967 32.3354 105.171 32.6415 105.274 33.0495H108.96C108.858 32.6415 108.756 32.3354 108.653 31.9275C108.346 31.2134 107.936 30.6015 107.424 29.9894C106.912 29.4793 106.298 28.9694 105.479 28.6634C104.762 28.3573 103.84 28.1533 102.816 28.1533C101.792 28.1533 100.973 28.3573 100.154 28.6634C99.3341 28.9694 98.7197 29.4793 98.2077 29.9894C97.6957 30.4994 97.2861 31.2134 96.9789 31.9275C96.6717 32.6415 96.5693 33.4576 96.5693 34.1715C96.5693 34.9876 96.6717 35.7016 96.9789 36.4157C97.2861 37.1297 97.6957 37.7416 98.2077 38.3538C98.7197 38.8636 99.4365 39.3737 100.154 39.6798C100.973 39.9858 101.792 40.1898 102.816 40.1898C103.84 40.1898 104.659 39.9858 105.479 39.6798C106.298 39.3737 106.912 38.9657 107.424 38.3538C107.936 37.8437 108.346 37.1297 108.653 36.4157C108.756 36.0077 108.858 35.7016 108.96 35.2937H105.274Z" fill="white"/>
<path d="M105.274 35.2937C105.274 35.3956 105.274 35.3956 105.274 35.2937C105.171 35.7016 104.967 36.0077 104.762 36.3136C104.557 36.6196 104.25 36.8236 103.943 36.9257C103.635 37.0276 103.328 37.1297 102.918 37.1297C102.202 37.1297 101.587 36.8236 101.075 36.3136C100.563 35.8037 100.358 34.9876 100.358 34.1715C100.358 33.7635 100.461 33.3555 100.563 32.9476C100.666 32.5394 100.87 32.2335 101.075 32.0296C101.28 31.7235 101.587 31.5195 101.894 31.4174C102.202 31.3155 102.509 31.2134 102.918 31.2134C103.635 31.2134 104.25 31.5195 104.762 32.0296C104.967 32.3354 105.171 32.6415 105.274 33.0495H108.96C108.858 32.6415 108.756 32.3354 108.653 31.9275C108.346 31.2134 107.936 30.6015 107.424 29.9894C106.912 29.4793 106.298 28.9694 105.479 28.6634C104.762 28.3573 103.84 28.1533 102.816 28.1533C101.792 28.1533 100.973 28.3573 100.154 28.6634C99.3341 28.9694 98.7197 29.4793 98.2077 29.9894C97.6957 30.4994 97.2861 31.2134 96.9789 31.9275C96.6717 32.6415 96.5693 33.4576 96.5693 34.1715C96.5693 34.9876 96.6717 35.7016 96.9789 36.4157C97.2861 37.1297 97.6957 37.7416 98.2077 38.3538C98.7197 38.8636 99.4365 39.3737 100.154 39.6798C100.973 39.9858 101.792 40.1898 102.816 40.1898C103.84 40.1898 104.659 39.9858 105.479 39.6798C106.298 39.3737 106.912 38.9657 107.424 38.3538C107.936 37.8437 108.346 37.1297 108.653 36.4157C108.756 36.0077 108.858 35.7016 108.96 35.2937H105.274Z" fill="white"/>
</g>
<defs>
<clipPath id="clip0_2_372">
<rect width="200" height="45" fill="white"/>
</clipPath>
</defs>
</svg>
