<svg width="37" height="36" viewBox="0 0 37 36" fill="none" xmlns="http://www.w3.org/2000/svg">
<path fill-rule="evenodd" clip-rule="evenodd" d="M34.4342 0.980842H3.01601C2.29302 0.980842 1.70692 1.56694 1.70692 2.28993V33.7081C1.70692 34.4311 2.29302 35.0172 3.01601 35.0172H34.4342C35.1572 35.0172 35.7433 34.4311 35.7433 33.7081V2.28993C35.7433 1.56694 35.1572 0.980842 34.4342 0.980842ZM3.01601 -0.000976562C1.75077 -0.000976562 0.725098 1.0247 0.725098 2.28993V33.7081C0.725098 34.9733 1.75077 35.999 3.01601 35.999H34.4342C35.6994 35.999 36.7251 34.9733 36.7251 33.7081V2.28993C36.7251 1.0247 35.6994 -0.000976562 34.4342 -0.000976562H3.01601Z" fill="#22B5FF"/>
<path fill-rule="evenodd" clip-rule="evenodd" d="M31.4888 3.92664H5.96156C5.23857 3.92664 4.65247 4.51274 4.65247 5.23573V30.763C4.65247 31.486 5.23857 32.0721 5.96156 32.0721H31.4888C32.2118 32.0721 32.7979 31.486 32.7979 30.763V5.23573C32.7979 4.51274 32.2118 3.92664 31.4888 3.92664ZM5.96156 2.94482C4.69633 2.94482 3.67065 3.9705 3.67065 5.23573V30.763C3.67065 32.0282 4.69633 33.0539 5.96156 33.0539H31.4888C32.7541 33.0539 33.7797 32.0282 33.7797 30.763V5.23573C33.7797 3.9705 32.7541 2.94482 31.4888 2.94482H5.96156Z" fill="#22B5FF"/>
<path fill-rule="evenodd" clip-rule="evenodd" d="M25.4671 6.49976L30.3685 10.0287L17.2051 28.8335L6.401 21.0404L10.3133 16.15L16.0011 21.0252L25.4671 6.49976ZM25.7281 7.89751L16.2123 22.4994L10.4455 17.5564L7.81238 20.8478L16.9719 27.4547L29.0085 10.2594L25.7281 7.89751Z" fill="#22B5FF"/>
</svg>
