<svg width="46" height="46" viewBox="0 0 46 46" fill="none" xmlns="http://www.w3.org/2000/svg">
<g clip-path="url(#clip0_2293_10356)">
<path d="M30.575 29.6999C30.1749 29.6999 29.8504 30.0249 29.8504 30.4257V43.6731H8.51159V37.6248C8.51159 37.2239 8.18717 36.8989 7.78701 36.8989H1.74879V1.57637H29.8504V14.8238C29.8504 15.2246 30.1749 15.5496 30.575 15.5496C30.9752 15.5496 31.2996 15.2246 31.2996 14.8238V0.850562C31.2996 0.449724 30.9752 0.124756 30.575 0.124756H1.02421C0.624043 0.124756 0.299622 0.449724 0.299622 0.850562V37.6248C0.299622 37.649 0.300878 37.6732 0.303293 37.6972C0.305032 37.7149 0.308027 37.732 0.311022 37.7492C0.312084 37.7553 0.312664 37.7616 0.313823 37.7677C0.317881 37.788 0.323098 37.8079 0.328798 37.8276C0.329668 37.8305 0.330151 37.8335 0.33102 37.8364C0.337107 37.8564 0.344353 37.876 0.352082 37.8952C0.353144 37.8979 0.353917 37.9006 0.35498 37.9032C0.362516 37.9214 0.371211 37.9392 0.380196 37.9566C0.382031 37.9602 0.38348 37.9639 0.385413 37.9674C0.394011 37.9836 0.403672 37.9991 0.413526 38.0144C0.416425 38.019 0.419033 38.0238 0.422028 38.0284C0.431786 38.043 0.442607 38.0569 0.45333 38.0708C0.457098 38.0756 0.460383 38.0808 0.464247 38.0854C0.479319 38.1037 0.495163 38.1214 0.511877 38.1381L7.27439 44.912C7.2911 44.9288 7.30868 44.9448 7.32704 44.9599C7.33177 44.9637 7.33689 44.967 7.34163 44.9708C7.35544 44.9816 7.36936 44.9924 7.38394 45.0021C7.38849 45.0052 7.39332 45.0078 7.39795 45.0107C7.41331 45.0204 7.42877 45.0301 7.44491 45.0388C7.44838 45.0408 7.45215 45.0422 7.45573 45.044C7.47321 45.053 7.49089 45.0618 7.50906 45.0693C7.51167 45.0704 7.51437 45.0711 7.51688 45.0721C7.53611 45.0798 7.55562 45.0871 7.57562 45.0932C7.57852 45.0941 7.58152 45.0947 7.58441 45.0954C7.60403 45.1012 7.62393 45.1065 7.64422 45.1105C7.6503 45.1118 7.65658 45.1123 7.66267 45.1133C7.67987 45.1163 7.69697 45.1193 7.71455 45.1211C7.73851 45.1235 7.76266 45.1248 7.78691 45.1248H30.5749C30.9751 45.1248 31.2995 44.7998 31.2995 44.3989V30.4257C31.2996 30.0249 30.9752 29.6999 30.575 29.6999ZM7.06242 42.6468L2.77345 38.3506H7.06242V42.6468Z" fill="#7F5AF0"/>
<path d="M26.544 39.1248C26.9613 39.1248 27.2996 38.9009 27.2996 38.6248C27.2996 38.3486 26.9613 38.1248 26.544 38.1248H20.0553C19.638 38.1248 19.2996 38.3486 19.2996 38.6248C19.2996 38.9009 19.638 39.1248 20.0553 39.1248H26.544Z" fill="#7F5AF0"/>
<path d="M25.5865 7.12476H6.0127C5.61889 7.12476 5.29962 7.34862 5.29962 7.62476C5.29962 7.90089 5.61889 8.12476 6.0127 8.12476H25.5865C25.9804 8.12476 26.2996 7.90089 26.2996 7.62476C26.2996 7.34862 25.9804 7.12476 25.5865 7.12476Z" fill="#7F5AF0"/>
<path d="M25.5865 11.1248H6.0127C5.61889 11.1248 5.29962 11.3486 5.29962 11.6248C5.29962 11.9009 5.61889 12.1248 6.0127 12.1248H25.5865C25.9804 12.1248 26.2996 11.9009 26.2996 11.6248C26.2996 11.3486 25.9804 11.1248 25.5865 11.1248Z" fill="#7F5AF0"/>
<path d="M25.5865 15.1248H6.0127C5.61889 15.1248 5.29962 15.3486 5.29962 15.6248C5.29962 15.9009 5.61889 16.1248 6.0127 16.1248H25.5865C25.9804 16.1248 26.2996 15.9009 26.2996 15.6248C26.2996 15.3486 25.9804 15.1248 25.5865 15.1248Z" fill="#7F5AF0"/>
<path d="M26.2996 18.6248C26.2996 18.3486 25.9804 18.1248 25.5865 18.1248H6.0127C5.61889 18.1248 5.29962 18.3486 5.29962 18.6248C5.29962 18.9009 5.61889 19.1248 6.0127 19.1248H25.5865C25.9804 19.1248 26.2996 18.9009 26.2996 18.6248Z" fill="#7F5AF0"/>
<path d="M23.2996 22.6248C23.2996 22.3486 22.9734 22.1248 22.5709 22.1248H6.02832C5.62588 22.1248 5.29962 22.3486 5.29962 22.6248C5.29962 22.9009 5.62588 23.1248 6.02832 23.1248H22.571C22.9735 23.1248 23.2996 22.9009 23.2996 22.6248Z" fill="#7F5AF0"/>
<path d="M5.99915 26.1248C5.61282 26.1248 5.29962 26.3486 5.29962 26.6248C5.29962 26.9009 5.61282 27.1248 5.99915 27.1248H15.6001C15.9864 27.1248 16.2996 26.9009 16.2996 26.6248C16.2996 26.3486 15.9864 26.1248 15.6001 26.1248H5.99915Z" fill="#7F5AF0"/>
<path d="M44.3348 9.08994C43.7124 8.46759 42.884 8.12476 42.0019 8.12476C41.1198 8.12476 40.2913 8.46749 39.669 9.08985L37.4375 11.3214H37.4374H37.4373L35.4089 13.3498H35.4088C35.4087 13.3499 35.4087 13.3498 35.4087 13.3498L20.9098 27.8488C20.8896 27.8689 20.8714 27.8902 20.8541 27.912C20.8497 27.9177 20.8457 27.9236 20.8414 27.9293C20.8285 27.9467 20.8164 27.9645 20.8053 27.9827C20.8033 27.9859 20.8009 27.9888 20.799 27.9921L16.5749 35.166C16.3966 35.3801 16.2996 35.6473 16.2996 35.9294C16.2996 36.2487 16.4239 36.5489 16.6497 36.7747C16.8755 37.0004 17.1757 37.1248 17.495 37.1248C17.7771 37.1248 18.0443 37.0277 18.2584 36.8494L25.4325 32.6255C25.4358 32.6235 25.4387 32.6211 25.442 32.6191C25.4602 32.608 25.4778 32.5959 25.4951 32.5831C25.5009 32.5788 25.5069 32.5747 25.5126 32.5702C25.5344 32.553 25.5556 32.5347 25.5757 32.5146L40.0745 18.0159C40.0745 18.0159 40.0746 18.0159 40.0746 18.0158C40.0746 18.0157 40.0747 18.0157 40.0747 18.0157L42.1032 15.9872H42.1033H42.1034L44.3349 13.7558C45.6212 12.4694 45.6212 10.3763 44.3348 9.08994ZM39.5675 16.4943L36.9303 13.8571L37.9446 12.8428L40.5819 15.48L39.5675 16.4943ZM25.0685 30.9931L22.4313 28.3559L35.916 14.8714L38.5532 17.5086L25.0685 30.9931ZM20.9269 33.6136L19.8108 32.4975L21.565 29.5183L23.9062 31.8595L20.9269 33.6136ZM18.2127 35.2117L19.0591 33.7743L19.6501 34.3654L18.2127 35.2117ZM43.3205 12.7414L41.5962 14.4657L38.9589 11.8285L40.6833 10.1041C41.0348 9.75265 41.5031 9.5591 42.002 9.5591C42.5009 9.5591 42.9691 9.75265 43.3206 10.1041C43.6721 10.4555 43.8656 10.9238 43.8656 11.4227C43.8656 11.9216 43.672 12.39 43.3205 12.7414Z" fill="#7F5AF0"/>
</g>
<defs>
<clipPath id="clip0_2293_10356">
<rect width="45" height="45" fill="white" transform="translate(0.299622 0.124756)"/>
</clipPath>
</defs>
</svg>
