<svg width="46" height="46" viewBox="0 0 46 46" fill="none" xmlns="http://www.w3.org/2000/svg">
<g clip-path="url(#clip0_2289_7165)">
<path d="M38.9083 24.3843L32.4418 28.3376C31.4705 28.8544 29.5145 29.0044 27.6396 29.0344C27.9591 28.3309 27.7963 27.4886 27.1528 26.5287C25.9783 24.7752 23.9638 23.7289 21.7633 23.7289H18.8374C17.249 23.7289 15.7227 23.2384 14.5407 22.3466C11.8493 20.3184 7.6161 22.5104 5.54965 23.8234V23.0001C5.54965 22.5861 5.21367 22.2501 4.79968 22.2501H1.04959C0.634796 22.2501 0.299622 22.5861 0.299622 23.0001V41.0003C0.299622 41.4143 0.634886 41.7502 1.04959 41.7502H4.79959C5.21358 41.7502 5.54956 41.4143 5.54956 41.0003V39.5001H15.2996C16.8296 39.5001 18.3731 39.3838 19.8866 39.1535L29.6082 37.6753C29.9622 37.6709 30.3214 37.6289 30.6401 37.5568C31.5357 37.4316 32.3914 37.0034 33.1166 36.3193L44.4852 27.4663C44.4912 27.4618 44.4972 27.4573 44.5032 27.4521C45.3875 26.7194 45.5585 25.4181 44.8924 24.4888C43.5771 22.6563 42.2436 22.6293 38.9083 24.3843ZM1.79964 40.2502V23.7501H4.04963V25.2486C4.04963 25.249 4.04954 25.2495 4.04954 25.2499V38.75C4.04954 38.7505 4.04963 38.751 4.04963 38.7515V40.2502H1.79964ZM43.5531 26.2908L32.1665 35.1582C32.1462 35.1739 32.1267 35.1904 32.1088 35.2084C31.6055 35.6891 31.0258 35.9884 30.3583 36.0844C30.0463 36.1534 29.7358 36.1399 29.4365 36.1841L19.6609 37.6699C18.2217 37.8889 16.7546 37.9999 15.2997 37.9999H5.54965V25.627C7.33847 24.3385 11.5346 21.9603 13.6376 23.5443C15.0784 24.6303 16.9249 25.2288 18.8374 25.2288H21.7632C23.462 25.2288 25.0115 26.0269 25.907 27.3634C26.2348 27.8531 26.366 28.2574 26.258 28.4441C26.0705 28.7681 25.2201 28.9677 24.3522 29.0088C24.0582 29.0036 23.7882 28.9998 23.5497 28.9998H16.0497C13.7014 28.9998 12.2997 30.1211 12.2997 31.9999C12.2997 32.4147 12.635 32.7498 13.0497 32.7498C13.4637 32.7498 13.7996 32.4146 13.7996 31.9999C13.7996 31.6294 13.7996 30.4998 16.0496 30.4998H23.5272C23.6922 30.5111 24.0102 30.5253 24.4108 30.5096C24.548 30.5118 24.6897 30.5149 24.836 30.5171C27.569 30.5681 31.3116 30.6378 33.1851 29.6396L39.6487 25.6878C42.7402 24.0625 43.0529 24.4976 43.674 25.3638C43.8808 25.6518 43.8276 26.0576 43.5531 26.2908Z" fill="#7F5AF0"/>
<path d="M23.9273 15.4008C24.0443 15.4683 24.1726 15.4998 24.2986 15.4998C24.5588 15.4998 24.8124 15.3641 24.9504 15.1218L27.4224 10.7958L31.2302 15.2381C31.3757 15.4076 31.5918 15.5111 31.8122 15.4998C32.0357 15.4961 32.2457 15.3926 32.3852 15.2185L37.0495 9.38821V10.9998C37.0495 11.4137 37.3855 11.7497 37.7995 11.7497C38.2135 11.7497 38.5495 11.4137 38.5495 10.9998V7.24975C38.5495 7.24823 38.5492 7.24671 38.5492 7.24519C38.549 7.21892 38.5478 7.19265 38.5448 7.16656C38.5445 7.16423 38.544 7.162 38.5437 7.15968C38.5409 7.13626 38.537 7.11303 38.532 7.08998C38.53 7.08068 38.5272 7.07157 38.5249 7.06237C38.5208 7.04646 38.5166 7.03056 38.5114 7.01492C38.5081 7.00491 38.5042 6.99526 38.5006 6.98543C38.495 6.97078 38.4893 6.9563 38.4829 6.942C38.4786 6.93235 38.474 6.92297 38.4692 6.9135C38.4622 6.89947 38.4547 6.88562 38.4467 6.87204C38.4414 6.86301 38.4361 6.85408 38.4304 6.84523C38.4219 6.83192 38.4127 6.81896 38.4032 6.80609C38.3969 6.79761 38.3908 6.78912 38.3842 6.7809C38.3742 6.76856 38.3636 6.75677 38.3528 6.74506C38.3455 6.73702 38.3384 6.72889 38.3307 6.72121C38.3195 6.70986 38.3072 6.69931 38.2951 6.68859C38.2882 6.68251 38.282 6.6759 38.275 6.67009C38.2736 6.66893 38.2721 6.66813 38.2708 6.66697C38.2696 6.66607 38.2686 6.665 38.2675 6.66411C38.2555 6.65455 38.2429 6.64624 38.2305 6.63748C38.2194 6.62971 38.2085 6.62175 38.197 6.6146C38.178 6.60272 38.1588 6.59137 38.1391 6.58136C38.1277 6.57547 38.1157 6.57082 38.104 6.56555C38.092 6.56019 38.0801 6.55447 38.0678 6.54982C38.0552 6.545 38.0423 6.54106 38.0294 6.53686C38.0177 6.53311 38.0061 6.52918 37.9942 6.52596C37.9811 6.52239 37.9678 6.51962 37.9545 6.51685C37.9424 6.51426 37.9303 6.51184 37.9181 6.50988C37.9052 6.50782 37.8923 6.50621 37.8795 6.50487C37.8659 6.50344 37.8523 6.50237 37.8386 6.50166C37.8273 6.50112 37.8159 6.50059 37.8045 6.5005C37.7868 6.50041 37.7691 6.50112 37.7514 6.50228C37.7442 6.50273 37.737 6.50291 37.7298 6.50362C37.6981 6.50657 37.6665 6.5114 37.6354 6.51837L33.9024 7.26494C33.4959 7.34589 33.2327 7.7412 33.3144 8.14697C33.3946 8.55274 33.7884 8.81669 34.1964 8.73493L35.9276 8.38904L31.7798 13.5747L27.8686 9.01167C27.7103 8.82715 27.4725 8.72895 27.228 8.75289C26.9858 8.77613 26.769 8.91641 26.6483 9.12792L23.6483 14.3779C23.4427 14.7371 23.5673 15.1953 23.9273 15.4008Z" fill="#7F5AF0"/>
<path d="M20.5495 7.99944H23.5495C23.9635 7.99944 24.2995 7.66346 24.2995 7.24948C24.2995 6.83549 23.9635 6.49951 23.5495 6.49951H20.5495C20.1355 6.49951 19.7995 6.83549 19.7995 7.24948C19.7995 7.66346 20.1354 7.99944 20.5495 7.99944Z" fill="#7F5AF0"/>
<path d="M37.7997 16.25C37.7997 16.664 38.1356 16.9999 38.5496 16.9999H41.5497C41.9637 16.9999 42.2996 16.664 42.2996 16.25C42.2996 15.836 41.9637 15.5 41.5497 15.5H38.5496C38.1356 15.5 37.7997 15.836 37.7997 16.25Z" fill="#7F5AF0"/>
<path d="M44.5498 3.49976H17.5496C17.1356 3.49976 16.7996 3.83573 16.7996 4.24972V19.2498C16.7996 19.6638 17.1356 19.9998 17.5496 19.9998H27.6485L30.4257 24.1661C30.5652 24.3746 30.7992 24.4999 31.0497 24.4999C31.3002 24.4999 31.5342 24.3746 31.6737 24.1661L34.451 19.9998H44.5498C44.9638 19.9998 45.2998 19.6638 45.2998 19.2498V4.24972C45.2998 3.83573 44.9638 3.49976 44.5498 3.49976ZM43.7998 18.4999H34.0497C33.7993 18.4999 33.5653 18.6251 33.4258 18.8336L31.0498 22.3977L28.6738 18.8336C28.5343 18.6251 28.3003 18.4999 28.0498 18.4999H18.2996V4.99978H43.7998V18.4999Z" fill="#7F5AF0"/>
</g>
<defs>
<clipPath id="clip0_2289_7165">
<rect width="45" height="45" fill="white" transform="translate(0.299622 0.125)"/>
</clipPath>
</defs>
</svg>
