<svg width="46" height="46" viewBox="0 0 46 46" fill="none" xmlns="http://www.w3.org/2000/svg">
<g clip-path="url(#clip0_2289_7111)">
<path d="M4.54962 45.1238H38.2996C38.7138 45.1238 39.0496 44.788 39.0496 44.3738V24.8738H37.5496V43.6238H4.54962C3.30707 43.6238 2.29962 42.6163 2.29962 41.3738C2.29962 40.1312 3.30707 39.1238 4.54962 39.1238H6.04962C6.46381 39.1238 6.79962 38.788 6.79962 38.3738V15.8738H18.7996V14.3738H6.79962V9.12378C6.79962 8.70959 6.46381 8.37378 6.04962 8.37378H4.54962C2.47943 8.37634 0.802185 10.0536 0.799622 12.1238V41.3738C0.802185 43.444 2.47943 45.1212 4.54962 45.1238ZM2.29962 15.1238V12.1238C2.29962 10.8812 3.30707 9.87378 4.54962 9.87378H5.29962V37.6238H4.54962C3.7381 37.6227 2.94818 37.886 2.29962 38.3738V15.1238Z" fill="#7F5AF0"/>
<path d="M18.0496 18.1238H9.04962C8.63544 18.1238 8.29962 18.4596 8.29962 18.8738V24.8738C8.29962 25.288 8.63544 25.6238 9.04962 25.6238H18.0496C18.4638 25.6238 18.7996 25.288 18.7996 24.8738V22.6238H21.7996V21.1238H18.7996V18.8738C18.7996 18.4596 18.4638 18.1238 18.0496 18.1238ZM17.2996 24.1238H9.79962V19.6238H17.2996V24.1238Z" fill="#7F5AF0"/>
<path d="M25.5496 39.1238H34.5496C34.9638 39.1238 35.2996 38.788 35.2996 38.3738V32.3738C35.2996 31.9596 34.9638 31.6238 34.5496 31.6238H30.7996V27.1238H29.2996V31.6238H25.5496C25.1354 31.6238 24.7996 31.9596 24.7996 32.3738V34.6238H18.7996V32.3738C18.7996 31.9596 18.4638 31.6238 18.0496 31.6238H9.04962C8.63544 31.6238 8.29962 31.9596 8.29962 32.3738V38.3738C8.29962 38.788 8.63544 39.1238 9.04962 39.1238H18.0496C18.4638 39.1238 18.7996 38.788 18.7996 38.3738V36.1238H24.7996V38.3738C24.7996 38.788 25.1354 39.1238 25.5496 39.1238ZM26.2996 33.1238H33.7996V37.6238H26.2996V33.1238ZM17.2996 37.6238H9.79962V33.1238H17.2996V37.6238Z" fill="#7F5AF0"/>
<path d="M33.0496 6.12378C29.3216 6.12378 26.2996 9.14575 26.2996 12.8738C26.2996 16.6018 29.3216 19.6238 33.0496 19.6238C36.7776 19.6238 39.7996 16.6018 39.7996 12.8738C39.7956 9.14758 36.7758 6.12781 33.0496 6.12378ZM33.0496 18.1238C30.15 18.1238 27.7996 15.7734 27.7996 12.8738C27.7996 9.97412 30.15 7.62378 33.0496 7.62378C35.9493 7.62378 38.2996 9.97412 38.2996 12.8738C38.2963 15.772 35.9478 18.1205 33.0496 18.1238Z" fill="#7F5AF0"/>
<path d="M45.0496 15.8738C45.4638 15.8738 45.7996 15.538 45.7996 15.1238V10.6238C45.7996 10.2096 45.4638 9.87378 45.0496 9.87378H42.3173C42.1573 9.38159 41.9588 8.90259 41.7241 8.44116L43.6591 6.51306C43.8001 6.37244 43.8796 6.18127 43.8796 5.98206C43.8796 5.78284 43.8001 5.59167 43.6591 5.45105L40.4745 2.26355C40.3339 2.12292 40.1431 2.04382 39.9443 2.04382C39.7454 2.04419 39.5546 2.12329 39.414 2.26428L37.4822 4.19934C37.0208 3.9646 36.5418 3.76648 36.0496 3.60608V0.873779C36.0496 0.459595 35.7138 0.123779 35.2996 0.123779H30.7996C30.3854 0.123779 30.0496 0.459595 30.0496 0.873779V3.60608C29.5574 3.76648 29.0784 3.9646 28.617 4.19934L26.6882 2.26428C26.5475 2.12329 26.3568 2.04419 26.1579 2.04382C25.959 2.04382 25.7682 2.12292 25.6276 2.26355L22.4394 5.44885C22.2984 5.58948 22.2189 5.78064 22.2189 5.97986C22.2189 6.17908 22.2984 6.37024 22.4394 6.51086L24.3745 8.43896C24.1397 8.90112 23.9416 9.38086 23.7819 9.87378H21.0496C20.6354 9.87378 20.2996 10.2096 20.2996 10.6238V15.1238C20.2996 15.538 20.6354 15.8738 21.0496 15.8738H23.7819C23.942 16.366 24.1404 16.845 24.3752 17.3064L22.4401 19.2345C22.2988 19.3751 22.2193 19.5667 22.2193 19.7659C22.2193 19.9655 22.2988 20.1566 22.4401 20.2972L25.6247 23.4767C25.9177 23.7693 26.3923 23.7693 26.6852 23.4767L28.6141 21.5482C29.0766 21.783 29.5567 21.9811 30.0496 22.1415V24.8738C30.0496 25.288 30.3854 25.6238 30.7996 25.6238H35.2996C35.7138 25.6238 36.0496 25.288 36.0496 24.8738V22.1415C36.5422 21.9811 37.0212 21.783 37.483 21.5482L39.4118 23.4767C39.7048 23.7689 40.1786 23.7689 40.4716 23.4767L43.6591 20.2965C43.8005 20.1559 43.8799 19.9647 43.8799 19.7651C43.8799 19.5656 43.8005 19.3744 43.6591 19.2338L41.7241 17.3057C41.9588 16.8446 42.1573 16.3656 42.3173 15.8738H45.0496ZM41.0327 14.9326C40.8353 15.6793 40.5383 16.396 40.149 17.0632C39.9772 17.358 40.0259 17.7316 40.2676 17.9722L42.0676 19.7662L39.9428 21.8866L38.1495 20.0911C37.9089 19.8501 37.5357 19.8018 37.2413 19.9731C36.5744 20.3624 35.8574 20.6594 35.1107 20.8561C34.7803 20.9421 34.55 21.2402 34.5496 21.5812V24.1238H31.5496V21.5812C31.5496 21.2406 31.32 20.9429 30.9908 20.8561C30.2441 20.6594 29.527 20.3624 28.8602 19.9731C28.5657 19.8018 28.1926 19.8501 27.952 20.0911L26.1572 21.8859L24.0324 19.7662L25.8323 17.9722C26.074 17.7316 26.1227 17.358 25.951 17.0632C25.5617 16.396 25.2647 15.6793 25.0673 14.9326C24.9805 14.6034 24.6828 14.3738 24.3422 14.3738H21.7996V11.3738H24.3422C24.6824 11.3734 24.9798 11.1442 25.0666 10.8149C25.264 10.0682 25.561 9.35156 25.9503 8.68433C26.122 8.38953 26.0733 8.01599 25.8316 7.77539L24.0317 5.98059L26.1572 3.8551L27.952 5.65503C28.1926 5.89673 28.5661 5.94543 28.8609 5.77368C29.5278 5.3844 30.2448 5.0874 30.9915 4.89075C31.3204 4.80359 31.5493 4.50623 31.5496 4.16638V1.62378H34.5496V4.16638C34.5496 4.50696 34.7792 4.80469 35.1085 4.89148C35.8552 5.08813 36.5722 5.38513 37.2391 5.77441C37.5342 5.9469 37.9085 5.89819 38.1495 5.65576L39.9443 3.85583L42.0698 5.98132L40.2698 7.77612C40.0281 8.01672 39.9794 8.39026 40.1516 8.68506C40.5405 9.35229 40.8375 10.069 41.0349 10.8157C41.1216 11.1438 41.4179 11.3727 41.757 11.3738H44.2996V14.3738H41.757C41.4168 14.3741 41.1194 14.6034 41.0327 14.9326Z" fill="#7F5AF0"/>
<path d="M33.0496 9.87378C31.3929 9.87378 30.0496 11.217 30.0496 12.8738C30.0496 14.5305 31.3929 15.8738 33.0496 15.8738C34.7064 15.8738 36.0496 14.5305 36.0496 12.8738C36.0496 11.217 34.7064 9.87378 33.0496 9.87378ZM33.0496 14.3738C32.2213 14.3738 31.5496 13.7021 31.5496 12.8738C31.5496 12.0454 32.2213 11.3738 33.0496 11.3738C33.878 11.3738 34.5496 12.0454 34.5496 12.8738C34.5496 13.7021 33.878 14.3738 33.0496 14.3738Z" fill="#7F5AF0"/>
</g>
<defs>
<clipPath id="clip0_2289_7111">
<rect width="45" height="45" fill="white" transform="translate(0.799622 0.123779)"/>
</clipPath>
</defs>
</svg>
