<svg width="45" height="45" viewBox="0 0 45 45" fill="none" xmlns="http://www.w3.org/2000/svg">
<g clip-path="url(#clip0_1_7994)">
<circle cx="22.0636" cy="22.4795" r="21" stroke="#D9D9D9" stroke-width="2"/>
<path fill-rule="evenodd" clip-rule="evenodd" d="M30.6268 15.5426C31.076 15.0935 31.076 14.3654 30.6268 13.9163C30.1778 13.4672 29.4496 13.4672 29.0006 13.9163L22.0637 20.8531L15.1269 13.9163C14.6778 13.4672 13.9496 13.4672 13.5005 13.9163C13.0514 14.3654 13.0514 15.0935 13.5005 15.5426L20.4374 22.4795L13.5005 29.4163C13.0514 29.8655 13.0514 30.5935 13.5005 31.0427C13.9496 31.4917 14.6778 31.4917 15.1269 31.0427L22.0637 24.1058L29.0006 31.0427C29.4496 31.4917 30.1778 31.4917 30.6268 31.0427C31.076 30.5935 31.076 29.8655 30.6268 29.4163L23.69 22.4795L30.6268 15.5426Z" fill="#D9D9D9"/>
</g>
<defs>
<clipPath id="clip0_1_7994">
<rect width="44" height="44" fill="white" transform="translate(0.0635986 0.479492)"/>
</clipPath>
</defs>
</svg>
