<svg width="17" height="28" viewBox="0 0 17 28" fill="none" xmlns="http://www.w3.org/2000/svg">
<path d="M13.3848 27.2483L13.3848 27.2484C14.055 27.9172 15.1417 27.9172 15.8114 27.2484L15.8115 27.2483C16.481 26.5805 16.481 25.4974 15.8115 24.8296L15.988 24.6526L15.8115 24.8296L5.13232 14.1768L4.95489 13.9998L5.13233 13.8228L15.8111 3.17038C16.4807 2.50217 16.4806 1.41924 15.8112 0.751388L15.8111 0.751352C15.1413 0.0829023 14.0546 0.082851 13.3845 0.751388L13.3845 0.751389L1.31555 12.7907C0.980652 13.125 0.813599 13.5619 0.813599 13.9997C0.813599 14.4378 0.980988 14.8751 1.31582 15.2091C1.31582 15.2092 1.31583 15.2092 1.31583 15.2092L13.3848 27.2483Z" stroke="#7F5AF0" stroke-width="0.5"/>
</svg>
