<svg width="36" height="36" viewBox="0 0 36 36" fill="none" xmlns="http://www.w3.org/2000/svg">
<path fill-rule="evenodd" clip-rule="evenodd" d="M33.7091 0.981818H2.29091C1.56792 0.981818 0.981818 1.56792 0.981818 2.29091V33.7091C0.981818 34.4321 1.56792 35.0182 2.29091 35.0182H33.7091C34.4321 35.0182 35.0182 34.4321 35.0182 33.7091V2.29091C35.0182 1.56792 34.4321 0.981818 33.7091 0.981818ZM2.29091 0C1.02567 0 0 1.02567 0 2.29091V33.7091C0 34.9743 1.02567 36 2.29091 36H33.7091C34.9743 36 36 34.9743 36 33.7091V2.29091C36 1.02567 34.9743 0 33.7091 0H2.29091Z" fill="#FF5555"/>
<path fill-rule="evenodd" clip-rule="evenodd" d="M30.7636 3.92762H5.23634C4.51335 3.92762 3.92725 4.51372 3.92725 5.23671V30.764C3.92725 31.487 4.51335 32.0731 5.23634 32.0731H30.7636C31.4866 32.0731 32.0727 31.487 32.0727 30.764V5.23671C32.0727 4.51372 31.4866 3.92762 30.7636 3.92762ZM5.23634 2.9458C3.97111 2.9458 2.94543 3.97148 2.94543 5.23671V30.764C2.94543 32.0292 3.97111 33.0549 5.23634 33.0549H30.7636C32.0288 33.0549 33.0545 32.0292 33.0545 30.764V5.23671C33.0545 3.97148 32.0289 2.9458 30.7636 2.9458H5.23634Z" fill="#FF5555"/>
<path fill-rule="evenodd" clip-rule="evenodd" d="M24.7423 6.50098L29.6437 10.03L16.4803 28.8347L5.67621 21.0416L9.58853 16.1512L15.2763 21.0264L24.7423 6.50098ZM25.0033 7.89873L15.4875 22.5006L9.72072 17.5576L7.08758 20.849L16.2471 27.4559L28.2837 10.2606L25.0033 7.89873Z" fill="#FF5555"/>
</svg>
