<svg width="46" height="46" viewBox="0 0 46 46" fill="none" xmlns="http://www.w3.org/2000/svg">
<path d="M40.3777 1.53125H19.284C18.3519 1.53237 17.4584 1.90312 16.7993 2.56219C16.1402 3.22125 15.7695 4.11482 15.7684 5.04688V16.2969C15.7695 17.2289 16.1402 18.1225 16.7993 18.7816C17.4584 19.4406 18.3519 19.8114 19.284 19.8125H40.3777C41.3098 19.8114 42.2034 19.4406 42.8624 18.7816C43.5215 18.1225 43.8923 17.2289 43.8934 16.2969V5.04688C43.8923 4.11482 43.5215 3.22125 42.8624 2.56219C42.2034 1.90312 41.3098 1.53237 40.3777 1.53125ZM42.4871 13.6791L35.1219 9.47164L42.4871 6.75828V13.6791ZM19.284 2.9375H40.3777C40.9372 2.9375 41.4737 3.15974 41.8693 3.55532C42.2649 3.95091 42.4871 4.48743 42.4871 5.04688V5.25781L29.8309 9.92305L17.1746 5.25781V5.04688C17.1746 4.48743 17.3969 3.95091 17.7924 3.55532C18.188 3.15974 18.7246 2.9375 19.284 2.9375ZM24.5399 9.47164L17.1746 13.6791V6.75828L24.5399 9.47164ZM40.3777 18.4062H19.284C18.7246 18.4062 18.188 18.184 17.7924 17.7884C17.3969 17.3928 17.1746 16.8563 17.1746 16.2969V15.2984L26.2632 10.1094L29.5876 11.3342C29.7446 11.3921 29.9171 11.3921 30.0742 11.3342L33.3985 10.1094L42.4871 15.2984V16.2969C42.4871 16.8563 42.2649 17.3928 41.8693 17.7884C41.4737 18.184 40.9372 18.4062 40.3777 18.4062Z" fill="#7F5AF0"/>
<path d="M22.7996 15.5938H39.6746V17H22.7996V15.5938Z" fill="#7F5AF0"/>
<path d="M19.9871 15.5938H21.3934V17H19.9871V15.5938Z" fill="#7F5AF0"/>
<path d="M5.22158 22.625C5.40805 22.625 5.58686 22.5509 5.71869 22.419L8.70205 19.4363L7.70783 18.4421L5.92471 20.2245V7.15625H12.956V5.75H5.22158C5.0351 5.75 4.85626 5.82408 4.7244 5.95594C4.59254 6.0878 4.51846 6.26664 4.51846 6.45312V20.2245L2.73533 18.4421L1.74112 19.4363L4.72447 22.419C4.8563 22.5509 5.03512 22.625 5.22158 22.625Z" fill="#7F5AF0"/>
<path d="M39.8806 24.9407L36.8973 27.9234L37.8915 28.9176L39.6746 27.1352V40.2035H32.6434V41.6097H40.3777C40.5642 41.6097 40.7431 41.5356 40.8749 41.4038C41.0068 41.2719 41.0809 41.0931 41.0809 40.9066V27.1352L42.864 28.9176L43.8582 27.9234L40.8749 24.9407C40.743 24.8089 40.5642 24.7349 40.3777 24.7349C40.1913 24.7349 40.0125 24.8089 39.8806 24.9407Z" fill="#7F5AF0"/>
<path d="M26.3152 25.4375H5.2215C4.28944 25.4386 3.39587 25.8094 2.73681 26.4684C2.07774 27.1275 1.70699 28.0211 1.70587 28.9531V40.2031C1.70699 41.1352 2.07774 42.0287 2.73681 42.6878C3.39587 43.3469 4.28944 43.7176 5.2215 43.7188H26.3152C27.2473 43.7176 28.1409 43.3469 28.7999 42.6878C29.459 42.0287 29.8298 41.1352 29.8309 40.2031V28.9531C29.8298 28.0211 29.459 27.1275 28.7999 26.4684C28.1409 25.8094 27.2473 25.4386 26.3152 25.4375ZM5.2215 26.8438H26.3152C26.8747 26.8438 27.4112 27.066 27.8068 27.4616C28.2024 27.8572 28.4246 28.3937 28.4246 28.9531V29.1641L15.7684 33.8293L3.11212 29.1641V28.9531C3.11212 28.3937 3.33436 27.8572 3.72994 27.4616C4.12553 27.066 4.66206 26.8438 5.2215 26.8438ZM28.4246 30.6645V37.5854L21.0594 33.3779L28.4246 30.6645ZM10.4774 33.3779L3.11212 37.5854V30.6645L10.4774 33.3779ZM26.3152 42.3125H5.2215C4.66206 42.3125 4.12553 42.0903 3.72994 41.6947C3.33436 41.2991 3.11212 40.7626 3.11212 40.2031V39.2047L12.2007 34.0156L15.5251 35.2405C15.6821 35.2984 15.8546 35.2984 16.0117 35.2405L19.336 34.0156L28.4246 39.2047V40.2031C28.4246 40.7626 28.2024 41.2991 27.8068 41.6947C27.4112 42.0903 26.8747 42.3125 26.3152 42.3125Z" fill="#7F5AF0"/>
<path d="M8.73712 39.5H25.6121V40.9062H8.73712V39.5Z" fill="#7F5AF0"/>
<path d="M5.92462 39.5H7.33087V40.9062H5.92462V39.5Z" fill="#7F5AF0"/>
</svg>
