<svg width="17" height="28" viewBox="0 0 17 28" fill="none" xmlns="http://www.w3.org/2000/svg">
<path d="M3.74244 27.2483L3.74239 27.2484C3.07223 27.9172 1.98554 27.9172 1.31581 27.2484L1.31572 27.2483C0.646219 26.5805 0.64623 25.4974 1.31572 24.8296L1.13916 24.6526L1.31572 24.8296L11.9949 14.1768L12.1723 13.9998L11.9949 13.8228L1.31607 3.17038C0.646502 2.50217 0.646554 1.41924 1.31604 0.751388L1.31607 0.751352C1.98588 0.0829023 3.07258 0.082851 3.74274 0.751388L3.74275 0.751389L15.8116 12.7907C16.1465 13.125 16.3136 13.5619 16.3136 13.9997C16.3136 14.4378 16.1462 14.8751 15.8114 15.2091C15.8114 15.2092 15.8114 15.2092 15.8114 15.2092L3.74244 27.2483Z" stroke="#7F5AF0" stroke-width="0.5"/>
</svg>
