<svg xmlns="http://www.w3.org/2000/svg" xmlns:xlink="http://www.w3.org/1999/xlink"><symbol viewBox="0 0 36 36" id="01" xmlns="http://www.w3.org/2000/svg"><path fill-rule="evenodd" clip-rule="evenodd" d="M33.71.982H2.29A1.31 1.31 0 00.983 2.29v31.418c0 .723.586 1.31 1.309 1.31h31.418a1.31 1.31 0 001.31-1.31V2.291a1.31 1.31 0 00-1.31-1.31zM2.29 0A2.29 2.29 0 000 2.29v31.42A2.29 2.29 0 002.29 36h31.42A2.29 2.29 0 0036 33.71V2.29A2.29 2.29 0 0033.71 0H2.29z"/><path fill-rule="evenodd" clip-rule="evenodd" d="M30.764 3.928H5.236a1.31 1.31 0 00-1.309 1.309v25.527c0 .723.586 1.31 1.31 1.31h25.527a1.31 1.31 0 001.309-1.31V5.237a1.31 1.31 0 00-1.31-1.31zM5.236 2.946a2.29 2.29 0 00-2.29 2.29v25.528a2.29 2.29 0 002.29 2.29h25.528a2.29 2.29 0 002.29-2.29V5.237a2.29 2.29 0 00-2.29-2.291H5.236z"/><path fill-rule="evenodd" clip-rule="evenodd" d="M24.742 6.501l4.902 3.529L16.48 28.835 5.676 21.042l3.913-4.89 5.687 4.874 9.466-14.525zm.261 1.398L15.488 22.5 9.72 17.558l-2.633 3.291 9.16 6.607L28.283 10.26l-3.28-2.362z"/></symbol><symbol viewBox="0 0 46 46" id="02" xmlns="http://www.w3.org/2000/svg"><path d="M40.378 1.531H19.284a3.52 3.52 0 00-3.516 3.516v11.25a3.52 3.52 0 003.516 3.515h21.094a3.52 3.52 0 003.515-3.515V5.047a3.52 3.52 0 00-3.515-3.516zm2.11 12.148l-7.366-4.207 7.365-2.714v6.921zM19.283 2.937h21.094a2.11 2.11 0 012.11 2.11v.21L29.83 9.924 17.175 5.258v-.211a2.11 2.11 0 012.109-2.11zm5.256 6.535l-7.365 4.207V6.76l7.365 2.713zm15.838 8.934H19.284a2.11 2.11 0 01-2.11-2.11v-.998l9.09-5.189 3.324 1.225c.157.058.33.058.486 0l3.324-1.225 9.09 5.19v.998a2.11 2.11 0 01-2.11 2.11z"/><path d="M22.8 15.594h16.875V17H22.8v-1.406zM19.987 15.594h1.406V17h-1.406v-1.406zM5.222 22.625a.703.703 0 00.497-.206l2.983-2.983-.994-.994-1.783 1.782V7.156h7.031V5.75H5.222a.703.703 0 00-.704.703v13.771l-1.783-1.782-.994.994 2.983 2.983c.132.132.311.206.498.206zM39.88 24.94l-2.983 2.983.995.995 1.783-1.783v13.068h-7.032v1.407h7.735a.703.703 0 00.703-.703V27.135l1.783 1.783.994-.995-2.983-2.982a.703.703 0 00-.994 0zM26.315 25.438H5.221a3.52 3.52 0 00-3.515 3.515v11.25A3.52 3.52 0 005.22 43.72h21.094a3.52 3.52 0 003.516-3.516v-11.25a3.52 3.52 0 00-3.516-3.515zM5.221 26.843h21.094a2.11 2.11 0 012.11 2.11v.21L15.768 33.83 3.112 29.164v-.21a2.11 2.11 0 012.11-2.11zm23.204 3.82v6.921l-7.366-4.207 7.366-2.713zm-17.948 2.714l-7.365 4.207v-6.92l7.365 2.713zm15.838 8.934H5.221a2.11 2.11 0 01-2.109-2.109v-.998l9.089-5.19 3.324 1.225c.157.058.33.058.487 0l3.324-1.224 9.089 5.189v.998a2.11 2.11 0 01-2.11 2.11z"/><path d="M8.737 39.5h16.875v1.406H8.737V39.5zM5.925 39.5H7.33v1.406H5.925V39.5z"/></symbol><symbol viewBox="0 0 46 46" id="03" xmlns="http://www.w3.org/2000/svg"><g clip-path="url(#cclip0_2289_7111)"><path d="M4.55 45.124H38.3a.75.75 0 00.75-.75v-19.5h-1.5v18.75h-33a2.25 2.25 0 010-4.5h1.5a.75.75 0 00.75-.75v-22.5h12v-1.5h-12v-5.25a.75.75 0 00-.75-.75h-1.5a3.754 3.754 0 00-3.75 3.75v29.25a3.754 3.754 0 003.75 3.75zm-2.25-30v-3a2.25 2.25 0 012.25-2.25h.75v27.75h-.75a3.735 3.735 0 00-2.25.75v-23.25z"/><path d="M18.05 18.124h-9a.75.75 0 00-.75.75v6c0 .414.335.75.75.75h9a.75.75 0 00.75-.75v-2.25h3v-1.5h-3v-2.25a.75.75 0 00-.75-.75zm-.75 6H9.8v-4.5h7.5v4.5zM25.55 39.124h9a.75.75 0 00.75-.75v-6a.75.75 0 00-.75-.75H30.8v-4.5h-1.5v4.5h-3.75a.75.75 0 00-.75.75v2.25h-6v-2.25a.75.75 0 00-.75-.75h-9a.75.75 0 00-.75.75v6c0 .414.335.75.75.75h9a.75.75 0 00.75-.75v-2.25h6v2.25c0 .414.335.75.75.75zm.75-6h7.5v4.5h-7.5v-4.5zm-9 4.5H9.8v-4.5h7.5v4.5zM33.05 6.124a6.75 6.75 0 106.75 6.75 6.757 6.757 0 00-6.75-6.75zm0 12a5.25 5.25 0 110-10.5 5.25 5.25 0 010 10.5z"/><path d="M45.05 15.874a.75.75 0 00.75-.75v-4.5a.75.75 0 00-.75-.75h-2.733a9.936 9.936 0 00-.593-1.433l1.935-1.928a.75.75 0 000-1.062l-3.184-3.187a.75.75 0 00-1.061 0L37.482 4.2a9.975 9.975 0 00-1.432-.593V.874a.75.75 0 00-.75-.75h-4.5a.75.75 0 00-.75.75v2.732c-.493.16-.972.359-1.433.593l-1.929-1.935a.75.75 0 00-1.06 0l-3.189 3.185a.75.75 0 000 1.062l1.936 1.928a9.913 9.913 0 00-.593 1.435H21.05a.75.75 0 00-.75.75v4.5c0 .414.335.75.75.75h2.732c.16.492.358.971.593 1.432l-1.935 1.928a.75.75 0 000 1.063l3.185 3.18a.75.75 0 001.06 0l1.93-1.929c.462.235.942.433 1.435.594v2.732c0 .414.335.75.75.75h4.5a.75.75 0 00.75-.75v-2.732c.492-.16.971-.359 1.433-.594l1.929 1.929a.75.75 0 001.06 0l3.187-3.18a.75.75 0 000-1.063l-1.935-1.928a9.93 9.93 0 00.593-1.432h2.733zm-4.017-.941a8.577 8.577 0 01-.884 2.13.75.75 0 00.119.91l1.8 1.793-2.125 2.12-1.793-1.795a.75.75 0 00-.909-.118 8.544 8.544 0 01-2.13.883.75.75 0 00-.561.725v2.543h-3V21.58a.75.75 0 00-.56-.725 8.542 8.542 0 01-2.13-.883.75.75 0 00-.908.118l-1.795 1.795-2.125-2.12 1.8-1.794a.75.75 0 00.119-.909 8.577 8.577 0 01-.884-2.13.75.75 0 00-.725-.56H21.8v-3h2.542a.75.75 0 00.725-.558 8.577 8.577 0 01.883-2.13.75.75 0 00-.118-.91l-1.8-1.794 2.125-2.126 1.795 1.8a.75.75 0 00.909.119 8.543 8.543 0 012.13-.883.75.75 0 00.559-.725V1.624h3v2.542c0 .341.23.639.559.725a8.543 8.543 0 012.13.883.75.75 0 00.91-.118l1.795-1.8L42.07 5.98l-1.8 1.795a.75.75 0 00-.118.91c.389.666.685 1.383.883 2.13a.75.75 0 00.722.558H44.3v3h-2.543a.75.75 0 00-.724.559z"/><path d="M33.05 9.874a3 3 0 100 6 3 3 0 000-6zm0 4.5a1.5 1.5 0 110-3 1.5 1.5 0 010 3z"/></g><defs><clipPath id="cclip0_2289_7111"><path transform="translate(.8 .124)" d="M0 0h45v45H0z"/></clipPath></defs></symbol></svg>