<svg xmlns="http://www.w3.org/2000/svg" xmlns:xlink="http://www.w3.org/1999/xlink"><symbol viewBox="0 0 17 28" id="hello" xmlns="http://www.w3.org/2000/svg"><path d="M13.385 27.248h0c.67.67 1.757.67 2.426 0h0c.67-.668.67-1.75 0-2.418l.177-.177-.176.177-10.68-10.653L4.955 14l.177-.177L15.812 3.17c.669-.668.669-1.75 0-2.419h0a1.719 1.719 0 00-2.428 0h0L1.316 12.791A1.702 1.702 0 00.814 14a1.702 1.702 0 00.502 1.21l12.069 12.038z" stroke-width=".5"/></symbol><symbol viewBox="0 0 17 28" id="world" xmlns="http://www.w3.org/2000/svg"><path d="M3.742 27.248h0a1.718 1.718 0 01-2.426 0h0a1.707 1.707 0 010-2.418l-.177-.177.177.177 10.679-10.653.177-.177-.177-.177L1.316 3.17a1.708 1.708 0 010-2.419h0a1.719 1.719 0 012.427 0h0l12.069 12.04c.335.334.502.77.502 1.209 0 .438-.168.875-.503 1.21 0 0 0 0 0 0L3.742 27.247z" stroke-width=".5"/></symbol></svg>