<svg xmlns="http://www.w3.org/2000/svg" xmlns:xlink="http://www.w3.org/1999/xlink"><symbol viewBox="0 0 17 28" id="arrow" xmlns="http://www.w3.org/2000/svg"><path d="M13.385 27.248c.67.67 1.757.67 2.426 0 .67-.668.67-1.75 0-2.418l.177-.177-.176.177-10.68-10.653L4.955 14l.177-.177L15.812 3.17c.669-.668.669-1.75 0-2.419a1.719 1.719 0 00-2.428 0L1.316 12.791A1.702 1.702 0 00.814 14a1.702 1.702 0 00.502 1.21l12.069 12.038z"/></symbol><symbol viewBox="0 0 24 24" id="checked" xmlns="http://www.w3.org/2000/svg"><path d="M20.285 2L9 13.567 3.714 8.556 0 12.272 9 21 24 5.715z"/></symbol><symbol id="loading" xml:space="preserve" viewBox="0 0 40 40" xmlns="http://www.w3.org/2000/svg"><path opacity=".2" d="M20.201 5.169c-8.254 0-14.946 6.692-14.946 14.946 0 8.255 6.692 14.946 14.946 14.946s14.946-6.691 14.946-14.946c-.001-8.254-6.692-14.946-14.946-14.946zm0 26.58c-6.425 0-11.634-5.208-11.634-11.634 0-6.425 5.209-11.634 11.634-11.634 6.425 0 11.633 5.209 11.633 11.634 0 6.426-5.208 11.634-11.633 11.634z"/><path d="M26.013 10.047l1.654-2.866a14.855 14.855 0 00-7.466-2.012v3.312c2.119 0 4.1.576 5.812 1.566z"><animateTransform attributeType="xml" attributeName="transform" type="rotate" from="0 20 20" to="360 20 20" dur="0.5s" repeatCount="indefinite"/></path></symbol><symbol class="dsvg-icon" viewBox="0 0 1024 1024" overflow="hidden" id="success" xmlns="http://www.w3.org/2000/svg"><path d="M681.89 356.073c11.637-13.964 34.91-16.291 48.874-4.655 13.963 11.637 16.29 34.91 4.654 48.873L502.691 677.236c-11.636 13.964-34.91 16.291-48.873 4.655L302.545 556.218c-13.963-11.636-16.29-34.909-4.654-48.873 11.636-13.963 34.909-16.29 48.873-4.654l125.672 104.727 209.455-251.345zM512 1024C228.073 1024 0 795.927 0 512S228.073 0 512 0s512 228.073 512 512-228.073 512-512 512zm0-46.545C768 977.455 977.455 768 977.455 512S768 46.545 512 46.545 46.545 256 46.545 512 256 977.455 512 977.455z"/></symbol><symbol viewBox="0 0 17 28" id="world" xmlns="http://www.w3.org/2000/svg"><path d="M3.742 27.248h0a1.718 1.718 0 01-2.426 0h0a1.707 1.707 0 010-2.418l-.177-.177.177.177 10.679-10.653.177-.177-.177-.177L1.316 3.17a1.708 1.708 0 010-2.419h0a1.719 1.719 0 012.427 0h0l12.069 12.04c.335.334.502.77.502 1.209 0 .438-.168.875-.503 1.21 0 0 0 0 0 0L3.742 27.247z" stroke-width=".5"/></symbol></svg>